<?xml version="1.0" standalone="no"?>
<!DOCTYPE svg PUBLIC "-//W3C//DTD SVG 20010904//EN"
 "http://www.w3.org/TR/2001/REC-SVG-20010904/DTD/svg10.dtd">
<svg version="1.0" xmlns="http://www.w3.org/2000/svg"
 width="660.000000pt" height="660.000000pt" viewBox="0 0 660.000000 660.000000"
 preserveAspectRatio="xMidYMid meet">
<metadata>
Created by potrace 1.14, written by Peter Selinger 2001-2017
</metadata>
<g transform="translate(0.000000,660.000000) scale(0.100000,-0.100000)"
fill="#000000" stroke="none">
<path d="M1648 6593 c908 -2 2396 -2 3305 0 908 1 165 2 -1653 2 -1818 0
-2561 -1 -1652 -2z"/>
<path d="M4620 5852 c-14 -2 -40 -15 -58 -28 -17 -14 -37 -22 -42 -19 -5 3
-18 1 -27 -4 -15 -9 -10 -11 22 -10 22 0 69 -2 104 -5 101 -10 132 3 140 58 1
9 -91 14 -139 8z"/>
<path d="M1500 5770 c-113 -8 -269 -43 -282 -63 -4 -6 -8 -21 -8 -32 0 -16 -2
-17 -9 -6 -5 8 -7 20 -4 27 5 13 -24 3 -79 -27 -10 -5 -25 -9 -33 -9 -9 0 -18
-7 -22 -16 -3 -8 -12 -13 -20 -10 -8 3 -11 1 -8 -4 3 -6 -3 -10 -14 -10 -28 0
-27 -16 2 -24 32 -8 39 -7 32 4 -3 6 4 10 17 9 13 0 17 -3 11 -6 -21 -8 -15
-23 9 -23 12 0 18 -3 14 -7 -4 -4 -22 -6 -39 -5 -22 2 -41 -4 -56 -17 -13 -12
-32 -21 -42 -21 -9 0 -26 -3 -36 -7 -13 -5 -11 1 9 21 15 15 31 25 35 23 14
-9 36 9 29 22 -4 6 -11 11 -15 11 -10 0 -52 -34 -99 -80 -19 -19 -41 -34 -47
-32 -6 1 -24 -11 -39 -27 -15 -16 -43 -46 -62 -66 -19 -19 -34 -42 -34 -50 0
-8 -4 -15 -10 -15 -18 0 -61 -55 -56 -72 2 -10 -1 -16 -6 -15 -6 1 -13 -4 -16
-12 -3 -8 0 -11 7 -7 13 9 14 -4 1 -24 -6 -10 -10 -11 -10 -2 0 25 -17 11 -39
-33 -13 -25 -20 -53 -17 -61 3 -8 2 -13 -3 -10 -15 9 -31 -20 -41 -71 -5 -26
-16 -75 -25 -108 -20 -75 -25 -409 -7 -427 7 -7 12 -29 12 -49 0 -21 4 -40 9
-43 5 -3 12 -18 16 -33 3 -16 14 -37 24 -48 10 -11 25 -41 35 -66 9 -25 36
-69 61 -98 26 -30 49 -70 55 -94 20 -79 30 -91 105 -139 77 -48 118 -98 120
-145 1 -25 68 -92 92 -93 22 0 45 -47 39 -78 -4 -16 0 -43 9 -65 22 -52 19
-70 -20 -155 -20 -41 -33 -78 -29 -81 4 -3 9 0 11 7 3 6 12 12 20 12 13 0 13
-3 3 -15 -7 -8 -20 -15 -30 -15 -25 0 -30 -10 -17 -31 15 -25 23 -24 30 3 4
12 9 19 12 16 12 -11 -16 -50 -31 -44 -11 4 -13 0 -9 -17 6 -21 -11 -85 -19
-76 -2 2 -6 22 -10 44 -5 32 -4 35 4 16 14 -32 24 -20 15 18 -7 31 -25 43 -25
17 0 -8 -7 -22 -16 -30 -13 -13 -14 -22 -5 -48 13 -38 13 -38 1 -38 -5 0 -11
10 -11 23 -1 16 -2 18 -6 5 -2 -10 -9 -18 -14 -18 -5 0 -9 -9 -9 -21 0 -11 -6
-33 -14 -47 -35 -68 -56 -159 -57 -247 -1 -57 -4 -79 -8 -60 -6 27 -8 25 -15
-25 -5 -30 -9 -74 -10 -97 0 -23 -5 -41 -11 -40 -5 1 -10 -5 -10 -13 0 -8 -7
-18 -16 -22 -9 -3 -26 -23 -38 -43 -11 -20 -17 -34 -12 -31 4 3 17 -1 27 -10
18 -14 18 -15 -5 -8 -16 4 -21 3 -17 -5 4 -6 2 -19 -4 -28 -11 -17 -11 -17 -6
0 6 18 -2 21 -22 9 -7 -5 -10 -16 -6 -25 3 -10 1 -17 -5 -17 -6 0 -11 -9 -11
-19 0 -11 -6 -26 -13 -33 -8 -7 -12 -18 -10 -25 2 -6 -5 -21 -16 -32 -12 -12
-15 -21 -9 -23 7 -3 8 -10 4 -17 -5 -7 -14 -10 -22 -7 -16 6 -22 -4 -28 -49
-2 -16 -16 -52 -30 -78 -15 -27 -28 -56 -30 -65 -2 -10 -6 -24 -9 -32 -3 -8
-8 -31 -10 -50 -3 -19 -19 -64 -35 -100 -17 -36 -34 -78 -38 -95 -10 -43 -9
-43 -56 -35 l-43 6 0 -40 c0 -31 4 -40 15 -37 8 2 23 4 33 5 19 1 77 61 77 80
0 13 70 89 76 83 7 -6 -27 -67 -37 -67 -5 0 -11 -11 -15 -25 -3 -14 -10 -25
-15 -25 -5 0 -9 -18 -9 -40 0 -30 -4 -40 -16 -40 -11 0 -15 -6 -11 -19 2 -11
-3 -33 -13 -49 -18 -30 -20 -39 -21 -127 -2 -93 1 -121 10 -107 17 28 22 -37
5 -75 -13 -30 -17 -82 -20 -248 -6 -301 -11 -425 -19 -465 -6 -31 -9 -50 -14
-97 -2 -22 -20 -14 -27 12 -3 13 -13 30 -22 37 -13 11 -13 9 1 -19 13 -24 14
-33 4 -36 -7 -4 -6 -6 4 -6 19 -1 35 -34 20 -39 -14 -5 -14 -39 0 -48 7 -4 7
-9 1 -13 -5 -3 -13 -17 -17 -30 -5 -18 -4 -22 6 -16 8 5 7 0 -2 -10 -13 -13
-15 -24 -7 -51 5 -19 7 -38 4 -42 -3 -5 0 -25 6 -45 9 -29 17 -37 35 -37 13 0
23 -4 23 -10 0 -5 -18 -10 -40 -10 -41 0 -49 -11 -30 -40 8 -13 10 -12 10 3 0
9 7 17 15 17 9 0 15 -9 14 -22 0 -21 -1 -22 -8 -4 -7 19 -8 18 -14 -4 -3 -14
-2 -29 3 -34 7 -7 10 -5 10 4 0 12 2 12 8 2 6 -9 33 -12 98 -10 80 3 89 5 92
23 2 11 8 24 13 30 6 6 7 -3 3 -23 l-6 -32 71 0 72 0 -5 53 -5 52 10 -52 10
-53 464 0 464 0 4 23 4 22 2 -22 c1 -21 6 -23 55 -23 34 0 56 5 59 13 4 10 6
10 6 0 1 -7 8 -13 16 -13 11 0 13 8 10 33 l-5 32 10 -32 11 -33 89 0 c50 0 90
3 90 6 0 3 -14 19 -30 34 -24 23 -26 27 -10 23 11 -3 31 -18 44 -34 24 -29 26
-29 135 -29 78 0 111 4 114 13 4 9 6 9 6 0 1 -7 8 -13 17 -13 9 0 12 5 8 13
-6 9 -4 9 7 -1 8 -7 43 -12 96 -12 73 0 83 2 83 18 0 11 8 18 20 19 14 1 20
-4 20 -18 0 -19 5 -20 75 -17 52 2 75 7 75 16 0 9 8 9 33 -3 23 -12 27 -12 15
-2 -29 23 -20 26 19 6 44 -23 91 -24 129 -5 15 8 31 13 35 11 4 -3 9 6 11 20
6 30 -14 49 -41 40 -16 -5 -20 -3 -15 9 3 9 1 16 -4 16 -6 0 -13 -8 -15 -17
-3 -11 -5 -5 -6 12 -2 29 -2 29 -17 10 -10 -12 -14 -14 -12 -5 3 8 -2 26 -12
40 -9 14 -17 36 -18 49 0 13 -8 32 -18 42 -15 17 -15 19 0 34 15 15 16 15 16
-3 0 -11 16 -43 35 -72 19 -29 35 -56 35 -61 0 -5 7 -9 15 -9 12 0 11 8 -6 46
-10 26 -18 51 -17 58 1 6 -3 21 -10 34 -11 18 -10 22 2 22 8 0 17 6 20 13 3 6
3 0 0 -14 -3 -16 0 -30 10 -38 9 -8 16 -19 16 -25 0 -6 -4 -4 -10 4 -19 30
-23 -2 -5 -37 l20 -37 6 44 c4 31 2 49 -7 58 -11 11 -11 17 0 35 20 30 10 80
-13 68 -12 -7 -19 -3 -28 15 -13 28 0 33 17 7 8 -13 13 -14 16 -5 3 6 9 12 14
12 14 0 22 -33 27 -119 3 -46 11 -102 19 -124 8 -22 14 -48 14 -58 0 -10 9
-21 20 -24 11 -3 20 -11 20 -16 0 -6 5 -7 10 -4 6 3 10 1 10 -4 0 -20 18 -11
24 11 5 22 6 22 19 3 14 -18 15 -18 21 2 4 11 14 20 24 19 14 -1 17 8 19 44 2
65 3 67 14 47 5 -9 7 -22 4 -27 -3 -6 1 -7 10 -4 9 4 15 3 14 -2 -4 -16 14
-68 27 -82 10 -10 12 -6 11 20 -1 18 -6 39 -10 45 -6 9 -3 11 8 7 10 -4 15
-14 12 -25 -3 -11 -1 -16 5 -13 12 8 1 56 -15 66 -9 6 -8 8 1 8 7 0 10 4 7 10
-3 6 1 7 9 4 9 -3 15 -9 14 -12 -2 -19 3 -32 13 -32 14 0 1 42 -19 57 -9 7
-11 13 -5 13 13 0 39 -24 45 -42 2 -6 10 -8 17 -4 9 6 9 11 0 22 -9 11 -9 14
1 14 7 0 18 -6 24 -14 19 -24 54 -29 59 -9 3 12 5 9 6 -9 1 -33 15 -43 31 -23
11 14 7 19 -12 16 -5 0 -8 4 -8 9 0 6 5 10 11 10 6 0 8 9 4 23 -5 15 0 12 14
-10 12 -19 29 -33 40 -33 11 0 22 -6 25 -12 3 -7 5 -4 4 7 -1 11 5 40 13 65
l14 45 3 -48 c3 -45 15 -61 25 -34 3 6 6 3 6 -8 1 -14 8 -21 24 -22 12 0 16 1
10 4 -7 3 -13 12 -13 21 0 13 2 14 9 3 11 -17 25 3 15 22 -4 6 2 3 14 -7 l22
-19 -5 34 c-4 26 -3 29 4 14 9 -19 10 -19 10 2 1 12 -3 33 -9 47 -6 17 -6 27
2 32 7 4 8 3 4 -4 -4 -7 -2 -12 4 -12 6 0 9 -4 6 -9 -9 -14 24 -36 53 -36 14
0 29 7 33 15 5 8 6 -4 4 -27 -2 -31 0 -43 10 -43 16 0 31 43 15 48 -7 2 -6 8
3 18 20 19 26 18 26 -5 0 -11 5 -23 12 -27 8 -5 9 -2 4 11 -5 15 -4 16 9 5 8
-7 15 -11 16 -9 6 26 4 51 -4 56 -6 3 -7 1 -3 -5 11 -18 0 -14 -15 5 -10 11
-10 14 -1 9 8 -5 12 -1 12 10 0 15 3 14 18 -5 9 -13 27 -35 40 -49 l23 -24 15
21 c9 12 20 18 26 15 7 -5 9 -1 5 9 -4 12 -2 14 10 10 12 -5 15 -2 11 8 -4 9
2 21 13 27 18 11 18 11 7 -7 -9 -15 -9 -24 0 -43 12 -23 12 -23 7 4 -4 22 -2
26 10 22 11 -5 13 -2 9 10 -3 9 -1 16 5 16 6 0 11 -11 11 -24 0 -14 5 -28 12
-32 8 -5 9 -2 5 9 -3 10 -2 17 3 17 5 0 7 17 5 37 l-5 38 11 -35 c6 -19 13
-41 15 -47 6 -24 21 -13 44 33 24 46 50 74 36 38 -4 -10 -10 -31 -13 -46 -8
-42 24 -37 36 4 8 29 9 30 10 8 1 -36 20 -12 31 41 l9 44 -2 -58 c-1 -40 2
-57 11 -57 6 0 12 5 12 11 0 8 5 8 15 -1 12 -10 19 -8 36 11 l21 24 -6 -25
c-5 -24 -4 -24 10 -5 9 13 12 30 8 50 l-6 30 22 -27 c23 -30 40 -36 40 -14 0
17 38 66 51 66 5 0 2 -11 -7 -26 -11 -16 -14 -28 -7 -35 6 -6 16 4 28 30 10
22 22 38 27 35 4 -3 6 -9 3 -14 -3 -4 7 -16 22 -25 22 -15 25 -15 20 -2 -9 24
5 29 20 7 8 -11 20 -20 28 -20 9 0 12 -6 9 -15 -4 -8 -2 -15 3 -15 18 0 22 13
12 33 -9 15 -8 18 2 12 9 -6 11 -2 7 13 -8 28 8 29 17 2 4 -11 11 -18 16 -15
5 4 9 1 9 -5 0 -7 6 -10 13 -7 6 2 11 9 10 15 -1 5 4 13 13 16 22 8 31 -24 10
-39 -9 -7 -13 -16 -8 -19 5 -3 15 6 22 20 11 20 19 24 42 19 27 -6 41 9 16 18
-7 2 -1 2 14 0 18 -3 30 2 38 14 10 16 11 16 6 1 -4 -13 0 -17 16 -15 15 1 24
-5 30 -23 7 -25 8 -25 4 3 -2 15 1 27 5 27 5 0 9 8 10 18 0 10 3 12 6 5 2 -7
11 -13 19 -13 9 0 12 -4 9 -10 -3 -5 -1 -10 4 -10 6 0 11 -4 11 -9 0 -6 -9 -9
-19 -8 -11 0 -17 6 -14 14 3 7 0 13 -6 13 -17 0 -13 -24 9 -48 19 -20 56 -21
44 0 -4 6 -10 5 -16 -3 -8 -11 -9 -11 -6 1 3 8 15 17 29 21 14 4 17 7 7 8 -12
1 -15 7 -10 23 5 21 6 21 12 3 6 -17 8 -16 14 8 8 34 25 36 18 2 -5 -28 4 -31
32 -10 11 8 16 21 13 30 -4 9 -1 15 8 15 8 0 15 -8 16 -17 0 -12 2 -13 6 -5 3
7 -1 19 -7 27 -10 12 -9 15 3 15 9 0 18 -8 20 -17 4 -17 5 -17 6 0 0 9 5 17
11 17 5 0 7 -13 4 -30 -5 -23 -3 -30 10 -30 9 0 16 7 16 16 0 9 6 14 13 11 6
-2 11 -14 9 -26 -2 -20 -1 -21 14 -7 20 20 34 20 34 0 0 -8 4 -13 10 -9 5 3 6
13 3 23 -5 13 -3 15 7 5 10 -9 16 -8 27 3 16 16 47 5 70 -25 11 -14 12 -14 13
2 0 9 -4 17 -10 17 -5 0 -10 5 -10 10 0 6 7 10 16 10 11 0 14 6 8 23 -14 44
-14 52 -3 30 14 -26 29 -30 29 -8 0 8 5 15 11 15 6 0 8 -7 5 -16 -4 -12 -2
-15 9 -10 8 3 14 2 14 -2 -4 -22 3 -23 20 -3 14 16 21 18 24 9 4 -9 6 -10 6
-1 1 7 8 10 16 7 10 -4 18 3 25 20 12 33 24 34 18 1 -3 -13 0 -26 6 -29 8 -3
8 -7 0 -13 -9 -6 -8 -11 2 -20 8 -8 15 -9 19 -3 3 6 1 10 -6 10 -7 0 -9 3 -6
6 4 4 13 1 22 -6 21 -17 19 -1 -2 23 -18 19 -17 20 6 7 21 -11 23 -10 18 4 -5
11 -1 16 13 16 11 0 20 6 20 14 0 8 3 17 8 20 4 2 6 -14 4 -36 -3 -24 1 -44 8
-51 7 -7 11 -7 8 -2 -6 12 28 46 36 38 3 -4 6 -3 6 2 0 4 -8 13 -17 20 -15 11
-13 12 17 9 49 -6 56 14 18 53 -38 40 -26 44 14 6 25 -24 28 -25 28 -7 1 15 4
14 16 -9 8 -15 14 -33 13 -40 -4 -32 1 -40 16 -27 8 7 13 16 10 20 -3 4 2 13
10 20 12 10 15 10 15 0 0 -10 3 -10 15 0 12 10 16 8 24 -11 9 -23 10 -22 10 9
1 37 3 38 37 16 l25 -17 -12 27 c-7 14 -16 26 -21 26 -9 0 -48 37 -48 45 0 12
26 3 47 -17 12 -12 31 -22 41 -23 9 0 23 -4 30 -9 6 -4 12 -2 12 3 0 6 -5 11
-11 11 -5 0 -7 5 -3 11 4 8 0 9 -15 4 -15 -4 -21 -2 -21 8 0 10 7 13 18 10 13
-3 18 2 19 19 0 13 -1 17 -4 11 -5 -15 -33 -18 -33 -4 0 5 12 12 26 15 20 5
24 11 18 29 -4 12 -11 23 -15 25 -14 6 -10 28 6 42 11 9 12 16 4 26 -6 7 -8
17 -5 22 8 14 -24 103 -40 109 -8 3 -11 9 -8 14 3 5 0 9 -5 9 -14 0 -14 -27
-1 -35 13 -8 13 -62 1 -70 -6 -3 -14 3 -20 12 -6 11 -11 13 -11 5 0 -7 -4 -10
-10 -7 -5 3 -10 24 -10 45 0 21 -5 42 -10 45 -8 5 -7 12 1 22 10 12 10 16 0
23 -8 4 -10 13 -6 20 6 10 1 11 -21 6 -27 -6 -28 -5 -10 9 19 14 19 15 -10 17
-16 0 -37 1 -46 0 -10 -1 -18 3 -18 8 0 6 6 10 13 10 22 0 -17 20 -40 20 -13
0 -23 4 -23 8 0 11 -72 42 -99 42 -12 0 -19 4 -16 10 12 19 -45 23 -65 5 -11
-10 -20 -13 -20 -7 0 6 6 12 13 15 6 2 9 8 5 12 -9 10 -46 11 -91 1 -29 -5
-37 -4 -32 4 8 13 -25 6 -55 -11 -12 -7 -10 -8 8 -9 12 0 22 -4 22 -10 0 -5
-10 -10 -22 -11 -13 0 0 -7 28 -16 38 -11 51 -19 49 -31 -1 -10 0 -11 2 -5 8
22 26 14 20 -8 -3 -13 3 -39 14 -61 17 -34 18 -39 4 -44 -9 -4 -14 -13 -11
-20 3 -8 -1 -14 -9 -14 -8 0 -15 6 -15 13 0 6 -6 19 -13 29 -11 13 -13 6 -11
-45 1 -34 0 -46 -3 -27 -4 42 -23 81 -35 74 -4 -3 -8 6 -8 19 0 14 -7 31 -17
38 -15 13 -15 12 -5 -8 16 -28 15 -66 0 -81 -10 -10 -10 -14 0 -21 8 -5 12
-21 10 -37 -2 -17 3 -35 12 -42 13 -12 13 -13 -2 -8 -10 3 -18 1 -18 -4 0 -6
-9 -5 -20 2 -11 7 -20 23 -20 36 0 13 -4 20 -10 17 -6 -3 -10 -17 -10 -31 0
-15 -6 -24 -15 -24 -8 0 -15 -7 -15 -17 0 -9 -3 -14 -6 -10 -10 10 5 58 16 52
6 -3 10 1 10 10 0 25 -36 0 -44 -31 -5 -20 -10 -23 -21 -14 -9 8 -15 8 -20 0
-3 -6 -11 -8 -16 -4 -6 4 -6 10 1 19 8 10 6 13 -7 11 -13 -1 -17 5 -15 19 2
12 0 16 -5 9 -4 -5 -18 -10 -30 -10 -16 0 -23 6 -23 21 0 15 2 17 9 6 7 -10 9
-7 8 12 -2 25 -2 25 -20 6 -25 -27 -32 -24 -13 6 9 13 16 30 16 37 0 10 -2 10
-9 0 -6 -10 -16 -11 -42 -4 -25 8 -28 10 -11 11 19 1 22 6 21 39 0 20 -3 30
-6 22 -3 -8 -11 -18 -17 -22 -8 -5 -7 -8 2 -8 20 0 14 -17 -10 -23 -18 -5 -19
-8 -8 -22 7 -8 10 -18 6 -22 -3 -3 -6 -1 -6 5 0 23 -18 11 -29 -18 -13 -39
-25 -39 -16 0 6 29 -6 42 -20 20 -3 -6 -11 -10 -16 -10 -6 0 -8 4 -4 9 3 5 1
12 -5 16 -5 3 -7 20 -4 38 4 24 3 28 -5 17 -6 -8 -11 -22 -11 -30 0 -8 -7 -23
-15 -34 -13 -17 -14 -17 -11 5 2 13 6 31 10 40 4 9 8 35 9 58 1 22 5 41 10 41
4 0 7 10 6 23 0 21 -1 21 -10 2 -8 -17 -9 -16 -6 7 2 15 0 33 -4 40 -6 9 -9 4
-9 -14 0 -40 -17 -35 -18 5 -1 18 -8 46 -17 63 l-16 29 6 -43 c5 -38 4 -42 -8
-30 -8 7 -15 15 -15 18 1 25 -4 39 -18 44 -12 4 -14 1 -9 -13 3 -11 1 -22 -5
-26 -10 -6 -14 7 -11 33 1 6 -5 12 -14 12 -18 0 -21 20 -2 21 6 0 -1 5 -16 11
-17 6 -26 15 -23 23 2 8 -10 23 -29 36 -18 13 -31 27 -29 31 3 4 -2 8 -10 8
-9 0 -16 6 -16 13 0 7 -20 33 -45 57 -25 24 -45 39 -45 33 0 -6 18 -27 40 -47
22 -20 40 -43 40 -51 0 -8 8 -19 18 -24 10 -5 34 -34 55 -63 37 -54 46 -75 28
-63 -5 3 -12 -3 -14 -12 -2 -10 -3 -6 -2 9 1 23 -3 28 -22 28 -13 0 -23 4 -23
9 0 5 -12 12 -27 14 l-28 4 28 2 c15 0 27 4 27 9 0 23 -105 140 -122 135 -4
-2 -5 3 -2 11 3 7 -2 18 -10 25 -8 7 -13 18 -10 26 3 7 -3 16 -15 20 -12 3
-19 10 -16 15 3 5 -3 15 -13 22 -11 7 -22 30 -26 51 -4 20 -12 37 -18 37 -5 0
-8 -6 -5 -12 21 -52 24 -51 -55 -22 -9 3 -20 22 -24 42 -6 29 -8 32 -12 15 -5
-32 -15 -29 -29 8 -12 32 -7 63 8 53 5 -3 9 0 9 5 0 16 -20 13 -26 -4 -4 -8
-15 -15 -25 -15 -11 0 -22 -7 -25 -15 -4 -8 -11 -12 -16 -9 -6 4 -5 10 3 15
11 7 10 11 -6 23 -16 12 -18 18 -9 33 9 15 8 26 -2 48 l-14 30 4 -28 c4 -32
-4 -35 -24 -6 -36 50 -49 61 -67 54 -15 -7 -15 -9 -3 -12 8 -3 30 -25 48 -50
22 -30 28 -44 17 -39 -9 3 -21 6 -27 6 -6 0 -8 7 -5 15 4 9 -5 21 -23 32 -17
9 -30 22 -30 28 0 5 -5 3 -10 -5 -6 -9 -10 -10 -10 -3 0 6 -3 20 -7 30 -6 16
-5 16 10 4 24 -19 21 -5 -3 19 -11 11 -20 15 -20 8 0 -6 -9 -3 -20 7 -17 15
-20 16 -15 3 4 -9 2 -19 -3 -22 -11 -7 -25 21 -17 34 3 5 1 11 -5 15 -5 3 -10
-1 -10 -9 0 -9 -4 -16 -10 -16 -5 0 -10 5 -10 11 0 5 -4 8 -9 5 -5 -3 -11 1
-15 9 -3 8 -1 17 4 20 6 4 10 12 10 18 0 8 -3 9 -8 1 -4 -6 -16 -14 -27 -18
-13 -5 -15 -10 -7 -13 6 -3 12 -9 12 -14 0 -18 -21 2 -31 29 l-10 26 -17 -26
c-19 -27 -42 -27 -42 2 0 9 -7 24 -17 31 -9 8 -22 27 -30 44 l-14 30 4 -30 c2
-16 7 -39 11 -50 5 -15 4 -14 -5 2 -7 13 -16 23 -21 23 -5 0 -6 -4 -3 -10 3
-5 1 -10 -4 -10 -6 0 -11 -9 -11 -20 0 -11 -4 -20 -10 -20 -15 0 -12 33 5 56
14 19 21 54 8 41 -11 -12 -31 13 -26 33 3 11 1 20 -5 20 -5 0 -12 -10 -16 -22
-5 -19 -8 -20 -16 -8 -5 8 -7 22 -4 32 2 9 -1 20 -7 24 -9 5 -10 2 -6 -10 4
-10 1 -19 -7 -22 -8 -3 -12 -16 -9 -32 1 -15 0 -21 -3 -13 -4 9 -13 0 -25 -25
-15 -32 -17 -34 -12 -10 4 18 1 31 -8 37 -12 8 -12 10 0 18 10 6 10 13 2 29
-6 11 -8 27 -5 36 3 8 1 23 -4 32 -8 14 -11 6 -18 -37 -4 -30 -6 -63 -5 -74
l3 -20 -16 20 c-11 15 -15 16 -16 5 0 -8 12 -26 25 -39 26 -24 32 -41 15 -41
-5 0 -10 -5 -10 -11 0 -5 4 -8 9 -5 5 3 9 -6 9 -21 l0 -26 -20 24 -19 24 11
-24 c9 -18 10 -41 1 -95 -7 -39 -14 -110 -16 -156 -3 -47 -10 -98 -15 -115 -5
-16 -10 -50 -10 -75 -1 -60 -5 -87 -19 -138 -16 -57 -8 -82 24 -76 14 2 25 0
25 -6 0 -5 7 -10 15 -10 9 0 15 -9 15 -25 0 -14 -4 -25 -10 -25 -5 0 -10 7
-10 15 0 20 -20 19 -36 -2 -12 -16 -13 -15 -14 10 0 15 -5 27 -11 27 -8 0 -9
-11 -5 -32 4 -24 3 -29 -4 -18 -5 8 -10 23 -10 33 0 15 -2 16 -13 5 -8 -7 -16
-20 -19 -28 -5 -12 -7 -12 -13 3 -6 14 -12 10 -36 -27 -15 -25 -48 -65 -73
-89 l-45 -45 -4 37 c-3 31 -4 30 -5 -12 -1 -29 -6 -46 -12 -42 -5 3 -10 -1
-10 -9 0 -9 -4 -16 -8 -16 -23 0 -124 -117 -137 -160 -4 -14 -15 -34 -25 -45
-9 -11 -25 -35 -36 -53 -10 -17 -22 -32 -25 -32 -4 0 -5 -17 -3 -37 l4 -38
-25 29 c-29 34 -31 40 -10 32 13 -4 14 -2 5 14 -8 16 -8 20 4 20 9 0 18 18 25
50 11 50 7 79 -13 92 -8 5 -7 8 1 8 7 0 17 -8 23 -17 11 -17 11 -17 6 0 -3 9
-9 24 -13 34 -4 11 -3 14 5 9 7 -4 12 -2 12 3 0 6 -7 11 -15 11 -8 0 -15 5
-15 10 0 6 -5 10 -11 10 -6 0 -19 10 -30 23 -15 18 -18 19 -19 5 0 -9 5 -20
10 -23 6 -3 10 -12 10 -18 0 -7 -9 2 -20 18 -22 33 -26 50 -10 40 16 -10 12
18 -6 43 -9 13 -13 29 -11 36 3 8 -1 22 -9 33 -14 17 -15 16 -8 -7 3 -14 3
-22 -1 -18 -4 4 -9 29 -11 55 -3 42 -2 45 9 26 9 -16 16 -19 29 -12 27 15 53
-18 49 -63 -1 -9 8 -19 21 -24 13 -3 26 -12 30 -18 5 -7 8 -6 8 4 0 8 -5 22
-10 30 -7 11 -10 11 -10 2 0 -30 -17 0 -18 32 -1 27 2 34 13 30 8 -3 17 -15
21 -27 3 -11 15 -30 25 -41 11 -11 19 -26 19 -33 0 -20 20 -16 20 5 1 15 2 15
15 -2 19 -26 19 -4 0 37 -8 18 -10 24 -3 13 7 -10 21 -28 30 -40 l17 -21 -6
25 c-6 23 -5 24 12 10 19 -16 19 -14 -3 50 -4 12 -2 12 8 3 7 -6 20 -9 29 -6
13 4 13 3 -1 -7 -14 -9 -15 -15 -6 -35 6 -14 15 -25 20 -25 4 0 3 9 -4 19 -9
15 -9 23 1 35 9 11 10 20 1 35 -6 12 -10 27 -8 34 5 25 -24 86 -43 92 -14 5
-18 12 -14 25 3 10 2 21 -3 24 -5 3 -9 17 -9 31 0 13 3 22 8 19 5 -3 9 -11 9
-18 0 -7 11 -23 25 -36 14 -13 25 -33 25 -44 0 -12 9 -39 20 -61 l20 -40 -6
35 c-4 19 -11 38 -17 41 -5 4 -7 19 -3 34 4 16 3 24 -3 21 -5 -3 -12 4 -15 17
-3 12 -22 40 -41 61 -24 26 -34 45 -29 55 16 39 15 61 -6 90 -12 17 -17 31
-12 31 14 0 38 -40 44 -75 4 -20 1 -33 -10 -41 -10 -7 -13 -16 -9 -20 4 -5 13
-2 18 6 9 13 10 13 6 0 -3 -9 2 -25 10 -35 13 -18 13 -16 8 25 -11 89 -18 116
-40 157 -13 24 -20 43 -16 43 12 0 41 -35 41 -48 0 -7 5 -12 11 -12 6 0 9 7 5
15 -3 9 0 15 9 15 14 0 19 -12 16 -32 0 -5 9 -8 20 -8 19 0 20 2 8 18 -8 9
-20 21 -26 25 -7 4 -13 15 -13 23 0 9 5 12 12 8 7 -4 8 -3 4 5 -4 6 -12 9 -17
6 -5 -4 -9 -1 -9 4 0 6 5 11 11 11 8 0 8 4 0 13 -8 10 -7 14 3 14 8 0 13 -7
11 -16 -2 -18 21 -44 42 -47 11 -2 8 5 -7 21 -13 14 -17 25 -11 29 5 4 14 -2
20 -11 6 -10 11 -14 11 -9 0 5 -7 18 -17 28 -15 17 -15 18 0 18 10 0 17 -4 17
-8 0 -5 7 -17 15 -28 12 -15 12 -11 -2 19 -9 20 -22 37 -29 37 -7 0 -16 9 -19
20 -3 11 -11 20 -17 20 -6 0 -9 3 -5 6 3 4 18 -3 33 -15 31 -24 57 -14 34 14
-7 8 -11 18 -8 20 4 5 21 -13 93 -102 l20 -24 0 35 c0 19 -6 41 -14 48 -11 11
-12 8 -7 -17 7 -29 7 -29 -8 -10 -8 11 -16 28 -16 38 0 10 -5 15 -10 12 -5 -3
-10 1 -10 9 0 9 5 16 11 16 12 0 2 42 -13 51 -5 3 -9 9 -9 13 3 23 0 36 -9 31
-6 -3 -13 2 -17 12 -3 10 -13 26 -21 36 -13 14 -13 17 -1 17 8 0 22 -14 32
-32 15 -25 20 -29 27 -17 7 10 9 5 7 -16 -1 -22 3 -30 18 -33 16 -3 17 -1 8 8
-6 7 -9 18 -6 26 8 21 -28 73 -46 66 -14 -5 -14 -4 -1 10 13 14 17 15 32 1 10
-9 17 -18 16 -22 -1 -3 2 -17 5 -31 4 -14 9 -38 12 -55 2 -16 9 -31 15 -33 5
-2 10 -8 10 -14 0 -6 -9 -3 -20 7 -20 18 -21 18 -14 -1 4 -10 16 -34 26 -52
10 -18 18 -40 18 -49 0 -9 11 -31 25 -49 26 -34 32 -50 15 -39 -5 3 -10 1 -10
-4 0 -6 7 -11 15 -11 9 0 15 -10 15 -26 0 -14 4 -23 9 -20 5 4 11 3 14 -1 5
-10 -2 12 -18 57 -7 19 -22 45 -33 57 -29 32 -14 29 21 -5 l28 -27 -9 26 c-12
29 0 60 14 38 4 -7 9 -27 11 -43 2 -17 13 -40 24 -51 l21 -20 -6 34 c-3 18 -6
40 -6 48 0 8 -5 11 -12 7 -7 -5 -8 -3 -3 6 4 7 3 15 -2 19 -15 10 -55 71 -46
71 4 0 17 -14 28 -30 28 -42 39 -38 16 6 -11 20 -17 42 -14 50 3 8 0 14 -6 14
-6 0 -11 8 -11 18 0 10 -6 24 -12 32 -7 8 -4 7 8 -3 11 -9 25 -17 30 -17 5 0
2 5 -6 10 -12 7 -12 12 -2 22 9 9 12 9 12 -1 0 -7 4 -10 9 -7 5 4 12 0 14 -6
4 -9 6 -8 6 2 0 8 -6 26 -14 40 -19 33 -19 46 0 30 20 -17 19 -8 -6 35 -13 21
-28 34 -38 33 -12 -2 -16 5 -17 32 -1 32 -37 103 -90 177 -9 13 -14 23 -11 23
4 0 17 -16 31 -36 15 -22 27 -31 31 -24 4 6 1 17 -5 25 -6 8 -9 19 -5 24 3 6
1 19 -4 30 -8 14 -8 21 2 24 7 3 5 6 -5 6 -10 1 -18 8 -18 17 0 9 -5 12 -12 8
-6 -4 -8 -3 -5 3 4 6 -2 18 -13 28 -11 10 -20 23 -20 29 0 6 11 -2 25 -19 35
-43 31 -22 -10 52 -22 37 -43 63 -52 63 -14 0 -14 -2 3 -14 10 -8 16 -18 12
-22 -4 -4 0 -13 10 -21 12 -10 13 -16 5 -19 -7 -3 -10 -13 -7 -22 5 -14 2 -13
-10 2 -25 30 -19 3 6 -30 20 -26 20 -27 2 -11 -11 9 -28 17 -38 17 -9 0 -15 4
-12 9 9 14 -4 41 -20 41 -8 0 -14 5 -14 11 0 6 7 8 16 5 27 -10 34 4 14 24
-22 22 -24 29 -11 49 8 13 12 13 27 0 15 -12 15 -10 -2 16 -12 19 -14 26 -5
20 11 -6 13 -4 8 8 -4 10 -10 24 -13 32 -3 8 -1 15 6 15 6 0 8 -6 4 -13 -5 -9
-4 -9 5 -1 8 7 8 25 1 64 -6 29 -8 56 -5 58 3 3 5 0 5 -6 0 -18 55 -14 71 4
21 26 70 46 95 40 36 -9 62 9 66 47 l3 32 80 5 c52 3 96 12 125 26 25 12 86
33 136 48 l91 27 49 -23 c30 -14 50 -31 52 -43 6 -30 22 -45 47 -45 16 0 24
-9 33 -36 9 -30 8 -35 -4 -30 -9 4 -18 -2 -23 -16 -6 -18 -16 -21 -57 -22 -47
-1 -49 -2 -52 -31 -4 -39 24 -105 44 -105 8 0 12 5 9 11 -4 6 1 16 11 24 16
11 22 10 43 -6 38 -30 54 -25 46 13 -8 37 -8 34 -6 68 2 42 13 52 44 37 15 -6
27 -18 27 -25 0 -7 13 -18 30 -23 21 -8 32 -20 38 -42 6 -23 16 -33 39 -39 22
-6 34 -17 41 -37 10 -29 44 -56 56 -44 3 3 13 -10 21 -30 11 -27 21 -37 38
-37 17 0 26 -9 36 -35 7 -19 18 -35 26 -35 7 0 17 -9 20 -20 3 -11 17 -23 29
-26 14 -3 28 -19 36 -40 8 -18 22 -36 32 -40 10 -3 18 -12 18 -20 0 -8 7 -17
15 -20 8 -4 15 -12 15 -20 0 -7 6 -17 14 -21 8 -4 16 -21 18 -38 3 -27 0 -30
-37 -38 -22 -5 -48 -13 -57 -18 -10 -5 -29 -9 -43 -9 -31 0 -32 -13 -2 -29 18
-9 36 -8 97 8 78 21 92 17 83 -20 -6 -22 22 -27 30 -6 4 7 6 6 6 -4 1 -9 8
-19 16 -23 8 -3 15 -15 15 -26 0 -11 4 -20 8 -20 10 0 31 -72 42 -147 10 -70
2 -117 -29 -166 -24 -40 -27 -93 -7 -142 19 -46 51 -53 107 -25 l43 23 26 -32
c28 -33 67 -41 76 -16 4 9 7 29 8 45 0 17 4 30 9 30 4 0 5 6 0 12 -9 15 -7
173 2 188 3 5 3 10 -2 10 -4 0 -8 29 -9 65 0 36 3 65 7 65 5 0 6 6 3 14 -3 8
-11 14 -17 12 -7 -1 -9 -1 -4 1 11 7 8 43 -4 43 -8 0 -8 5 1 15 10 13 9 15
-11 15 -19 0 -21 2 -9 10 8 5 16 21 17 35 1 19 -3 25 -20 26 -21 0 -21 1 -2 8
19 8 19 8 0 19 -20 11 -20 11 0 12 15 0 17 2 7 9 -8 4 -13 12 -11 17 1 5 -8
14 -21 21 -23 11 -23 11 -2 15 17 2 19 7 12 18 -9 13 -11 13 -20 0 -8 -13 -10
-12 -10 3 0 9 6 17 13 18 6 0 4 4 -6 8 -10 4 -18 11 -17 15 1 5 -3 12 -10 16
-6 4 -12 16 -13 28 0 12 -7 24 -14 26 -7 3 -13 13 -13 21 0 10 -5 13 -12 9 -8
-5 -9 0 -6 14 4 16 2 22 -9 22 -13 0 -13 2 -2 17 8 9 9 14 2 10 -7 -4 -14 1
-18 14 -6 17 -9 18 -16 8 -4 -7 -11 -11 -14 -7 -3 3 1 13 10 22 15 15 15 16
-3 16 -11 0 -23 -6 -26 -12 -3 -7 -2 0 1 16 5 25 3 28 -12 23 -13 -5 -16 -3
-11 8 3 10 -1 15 -12 15 -15 0 -15 2 -2 10 12 8 10 10 -10 11 -14 0 -19 3 -12
6 19 7 14 23 -5 16 -14 -5 -16 -3 -6 7 14 15 -5 40 -31 40 -22 0 -20 20 2 21
13 0 14 2 2 6 -46 15 -46 15 -25 23 17 7 16 9 -9 9 -22 1 -27 5 -22 17 4 12 2
15 -9 10 -9 -3 -15 0 -15 8 0 8 6 17 13 19 6 3 -1 6 -18 7 -26 1 -27 3 -10 10
l20 9 -20 0 c-17 1 -17 3 -5 11 13 8 12 10 -3 10 -11 0 -15 4 -11 12 5 8 0 9
-14 6 -12 -4 -22 -2 -22 3 0 5 8 10 18 10 9 1 1 5 -18 9 -29 6 -31 8 -10 9 25
3 25 3 -5 16 -16 8 -24 14 -17 15 18 0 15 20 -4 20 -11 0 -14 5 -10 16 5 13 1
15 -23 12 -20 -3 -32 0 -36 10 -4 12 3 14 42 9 37 -4 42 -4 24 4 -13 5 -35 10
-48 11 -14 2 -22 7 -19 15 3 7 0 13 -7 14 -7 1 -1 5 13 9 21 7 18 8 -20 10
-25 1 -37 4 -28 7 10 3 15 10 11 20 -5 12 -1 14 18 8 48 -15 53 -15 20 1 -19
8 -42 16 -51 17 -21 1 -47 27 -28 27 7 0 29 -4 47 -10 19 -5 36 -8 39 -6 7 8
-42 29 -77 33 -20 3 -42 11 -50 19 -13 12 -10 13 21 9 19 -3 48 -9 62 -15 40
-15 23 6 -24 30 -22 11 -50 20 -64 20 -14 0 -28 4 -31 10 -4 6 1 7 11 3 13 -5
15 -3 9 7 -6 9 -4 11 5 5 21 -13 80 -23 80 -14 0 11 -76 50 -83 43 -8 -8 -47
15 -47 27 0 6 10 8 23 4 67 -20 64 -20 44 2 -19 22 -79 43 -120 43 -14 0 -29
5 -32 10 -4 6 7 10 27 10 25 0 29 3 18 10 -11 7 -8 9 15 8 17 -1 36 -6 43 -11
7 -6 12 -6 12 0 0 22 -42 45 -105 60 -41 9 -64 19 -62 26 3 7 10 11 16 10 6
-2 11 1 11 6 0 6 -15 8 -32 7 -18 -2 -25 -1 -15 1 9 2 17 9 17 14 0 6 7 6 18
1 9 -5 32 -12 51 -16 33 -6 34 -6 17 13 -18 20 -61 36 -84 32 -8 -1 -21 4 -30
11 -13 11 -14 11 -7 -1 5 -10 4 -12 -3 -7 -7 4 -12 15 -13 24 -1 11 -4 8 -9
-8 -8 -24 -8 -24 -9 -2 -1 12 -5 22 -11 22 -5 0 -9 10 -7 23 1 16 -3 21 -15
19 -10 -2 -18 2 -18 8 0 5 14 10 31 10 21 0 28 -4 23 -12 -5 -10 -4 -10 6 -1
9 8 20 9 38 2 13 -5 27 -8 29 -5 8 8 -61 36 -92 38 -16 1 -36 6 -42 11 -9 6
-13 6 -13 -2 0 -17 -27 -13 -34 5 -8 22 -8 22 12 28 10 3 8 4 -7 3 -13 -1 -26
3 -28 9 -2 7 9 9 29 7 35 -3 29 2 -13 11 -15 3 -29 15 -32 26 -5 20 -27 28
-27 10 0 -5 -5 -10 -11 -10 -6 0 -9 7 -6 14 4 10 1 13 -9 9 -7 -3 -14 0 -14 6
0 6 19 11 45 11 25 0 45 -5 45 -11 0 -5 4 -7 10 -4 5 3 10 1 10 -4 0 -6 5 -11
11 -11 5 0 8 4 5 8 -3 5 8 6 25 4 24 -4 27 -7 18 -18 -7 -9 -20 -12 -33 -8
-12 4 -18 3 -14 -1 13 -14 57 -13 68 0 14 16 -19 41 -64 49 -15 3 -35 13 -43
23 -12 15 -14 15 -10 2 5 -14 -2 -16 -41 -13 -26 2 -53 3 -60 4 -7 0 -11 4 -7
9 3 5 18 8 33 5 20 -3 23 -2 12 6 -14 9 -13 11 10 14 6 0 9 6 8 11 -2 6 -7 9
-11 7 -5 -1 -11 6 -14 17 -3 11 -11 22 -19 25 -20 8 -17 -4 9 -32 19 -21 19
-24 4 -19 -10 4 -22 7 -26 7 -4 0 -22 20 -40 45 -18 25 -30 45 -26 45 3 0 -10
15 -30 34 -19 19 -35 40 -35 47 0 7 -3 10 -6 6 -5 -5 -44 57 -44 69 0 10 35
12 42 2 5 -9 8 -5 8 11 0 16 -4 22 -15 17 -8 -3 -15 -1 -15 4 0 17 -18 11 -22
-7 -2 -13 -9 -8 -26 20 -26 44 -27 57 -8 57 8 0 18 5 22 11 5 8 -1 10 -19 7
-16 -3 -31 0 -38 8 -16 19 -29 17 -29 -3 -1 -15 -4 -14 -20 5 -24 28 -17 50
18 55 17 2 9 5 -19 6 -25 0 -51 -5 -58 -11 -10 -11 -15 -9 -26 5 -20 27 -29 2
-10 -27 16 -23 15 -24 -4 -19 -33 8 -39 83 -6 83 7 0 18 7 25 15 10 11 9 18
-3 30 -10 9 -18 11 -22 5 -3 -5 -1 -10 4 -10 21 0 10 -21 -16 -33 -16 -6 -32
-17 -36 -24 -10 -16 -48 1 -44 20 3 17 -65 16 -79 -1 -9 -12 -13 -12 -26 2 -9
9 -23 16 -31 16 -22 0 -47 33 -37 50 11 17 4 30 -17 30 -8 0 -13 -6 -10 -13 2
-6 -2 -19 -11 -27 -14 -12 -15 -11 -9 9 6 23 -19 43 -32 24 -3 -5 -17 -12 -29
-16 -22 -5 -23 -4 -8 12 9 10 13 21 9 24 -11 12 -48 8 -71 -9 -20 -14 -22 -14
-22 3 0 15 -8 18 -40 18 -26 0 -40 -4 -40 -12 0 -23 -18 -14 -24 13 -6 22 -11
25 -32 20 -14 -4 -30 -3 -37 1 -8 5 -1 10 18 14 l30 7 -28 1 c-17 1 -27 6 -25
12 5 15 56 21 63 8 4 -5 13 -9 21 -9 11 0 14 6 9 23 -4 15 -3 18 3 8 15 -21
50 -4 57 29 4 17 12 30 19 30 18 0 66 24 66 33 0 10 -60 -1 -76 -14 -6 -5 -13
-6 -17 -3 -9 9 3 34 17 34 6 0 19 11 28 24 16 22 16 23 -8 18 -13 -2 -24 -8
-24 -13 0 -5 -5 -9 -10 -9 -6 0 -10 8 -8 18 2 11 -2 16 -12 13 -8 -2 -28 -3
-45 -3 -38 1 -105 -28 -105 -45 0 -7 -10 -13 -21 -13 -18 0 -19 -2 -9 -15 10
-12 9 -15 -7 -15 -10 0 -29 -7 -41 -16 -20 -14 -22 -14 -22 2 0 10 -5 14 -15
10 -10 -3 -17 3 -22 22 l-7 27 -7 -25 -7 -25 -7 23 c-9 26 -14 27 -30 5 -10
-14 -12 -10 -12 26 0 24 2 39 6 34 3 -6 15 -12 26 -15 11 -3 28 -9 38 -13 10
-4 17 -3 17 4 0 6 -6 11 -13 11 -8 0 -21 8 -31 19 -14 15 -14 20 -3 30 8 6 22
8 31 5 15 -6 15 -8 -1 -20 -16 -12 -17 -13 -1 -14 10 0 22 13 29 34 8 21 17
32 26 29 7 -3 13 2 13 11 0 9 8 16 18 17 14 0 14 2 -3 9 -16 7 -16 9 -4 9 9 1
27 10 40 20 l24 19 -30 7 c-16 3 -38 10 -47 16 -10 5 -23 9 -29 9 -7 0 -18 8
-25 18 -11 14 -13 14 -14 2 -1 -17 -44 -70 -58 -70 -5 0 -9 -6 -9 -12 -1 -7
-10 -30 -20 -52 -14 -26 -23 -35 -28 -26 -4 7 -2 16 6 21 12 7 12 10 1 18 -10
6 -8 10 10 15 17 4 20 8 9 15 -10 7 -9 12 8 23 15 11 19 21 15 33 -5 13 -4 16
4 11 7 -4 12 -3 12 2 0 5 10 14 23 21 18 9 19 10 2 6 -28 -6 -88 8 -92 22 -3
7 8 15 24 19 59 13 109 36 122 56 31 49 39 91 26 135 -16 55 -93 162 -162 226
-18 17 -33 35 -33 40 0 5 -19 36 -42 68 -30 40 -50 59 -65 59 -12 0 -29 10
-37 22 -22 31 -11 36 15 7 11 -13 17 -17 13 -9 -14 28 -37 50 -47 43 -6 -4 -8
0 -4 11 5 13 -13 37 -70 92 -84 83 -135 125 -156 128 -7 1 -30 15 -51 32 -20
17 -56 37 -79 44 -23 8 -46 17 -52 20 -19 13 -110 40 -155 45 -25 3 -67 10
-93 15 -26 6 -49 9 -50 8 -1 0 -49 -4 -107 -8z m127 -16 c-3 -3 -12 -4 -19 -1
-8 3 -5 6 6 6 11 1 17 -2 13 -5z m103 -8 c0 -2 -8 -10 -17 -17 -14 -12 -15
-12 -9 0 7 10 2 12 -25 6 -25 -4 -30 -3 -19 4 14 10 70 16 70 7z m-396 -24 c2
-4 -14 -8 -37 -9 -34 0 -37 1 -17 7 34 11 48 11 54 2z m271 -2 c3 -6 -1 -7 -9
-4 -18 7 -21 14 -7 14 6 0 13 -4 16 -10z m-235 -14 c0 -3 -4 -8 -10 -11 -5 -3
-10 -1 -10 4 0 6 5 11 10 11 6 0 10 -2 10 -4z m-110 -31 c0 -8 -4 -15 -9 -15
-13 0 -22 16 -14 24 11 11 23 6 23 -9z m40 0 c-7 -9 -15 -13 -19 -10 -3 3 1
10 9 15 21 14 24 12 10 -5z m48 -14 c3 -8 -1 -12 -9 -9 -7 2 -15 10 -17 17 -3
8 1 12 9 9 7 -2 15 -10 17 -17z m37 -1 c-3 -5 -10 -10 -16 -10 -5 0 -9 5 -9
10 0 6 7 10 16 10 8 0 12 -4 9 -10z m-185 -20 c3 -4 12 -10 20 -13 12 -4 12
-6 -2 -6 -9 -1 -20 4 -23 9 -4 6 -14 10 -23 9 -10 -1 -26 2 -36 6 -13 6 -21 4
-24 -3 -2 -7 -11 -12 -20 -12 -15 1 -14 3 2 15 19 15 95 11 106 -5z m-49 -37
c13 3 19 1 16 -6 -6 -18 -30 -18 -52 -1 -17 13 -18 16 -5 24 11 7 16 5 18 -6
3 -10 11 -14 23 -11z m209 17 c0 -13 -11 -13 -30 0 -12 8 -11 10 8 10 12 0 22
-4 22 -10z m-151 -39 c-26 -21 -35 -20 -26 4 4 8 16 15 28 15 21 0 21 0 -2
-19z m-129 -31 c0 -5 -9 -10 -20 -10 -11 0 -20 5 -20 10 0 6 9 10 20 10 11 0
20 -4 20 -10z m3 -41 c-8 -8 -16 -8 -30 0 -16 9 -14 10 12 11 21 0 26 -3 18
-11z m87 1 c0 -5 -7 -10 -15 -10 -8 0 -15 5 -15 10 0 6 7 10 15 10 8 0 15 -4
15 -10z m1086 -57 c-4 -4 -11 -1 -16 7 -16 25 -11 35 7 17 9 -9 13 -20 9 -24z
m-1276 -3 c0 -5 -4 -10 -10 -10 -5 0 -10 5 -10 10 0 6 5 10 10 10 6 0 10 -4
10 -10z m-39 -31 c-9 -22 -10 -22 -10 -3 -1 11 2 24 6 27 12 12 14 0 4 -24z
m1362 -19 c-2 -3 -10 3 -17 13 -17 22 -30 22 -21 0 5 -14 4 -15 -6 -6 -10 10
-9 15 0 27 12 14 15 13 31 -7 10 -12 16 -24 13 -27z m-676 -26 c-3 -3 -12 -4
-19 -1 -8 3 -5 6 6 6 11 1 17 -2 13 -5z m-687 -24 c0 -5 -7 -10 -15 -10 -8 0
-15 5 -15 10 0 6 7 10 15 10 8 0 15 -4 15 -10z m300 -10 c0 -5 -4 -10 -10 -10
-5 0 -10 5 -10 10 0 6 5 10 10 10 6 0 10 -4 10 -10z m-107 -6 c11 -11 -3 -24
-18 -18 -8 4 -12 10 -9 15 6 11 18 12 27 3z m487 -49 c-7 -8 -20 -15 -29 -15
-11 0 -8 5 9 14 33 19 35 19 20 1z m87 9 c-3 -3 -12 -4 -19 -1 -8 3 -5 6 6 6
11 1 17 -2 13 -5z m63 -14 c8 -5 11 -10 5 -10 -5 0 -17 5 -25 10 -8 5 -10 10
-5 10 6 0 17 -5 25 -10z m635 -10 c-3 -5 -11 -10 -16 -10 -6 0 -7 5 -4 10 3 6
11 10 16 10 6 0 7 -4 4 -10z m-645 -18 c3 -3 -12 -2 -33 1 -22 3 -47 1 -56 -5
-13 -8 -23 -8 -37 1 -17 10 -16 11 7 5 15 -3 30 -1 34 5 6 11 73 5 85 -7z
m-1017 -9 c-7 -2 -19 -2 -25 0 -7 3 -2 5 12 5 14 0 19 -2 13 -5z m854 1 c-3
-3 -12 -4 -19 -1 -8 3 -5 6 6 6 11 1 17 -2 13 -5z m-210 -10 c-3 -3 -12 -4
-19 -1 -8 3 -5 6 6 6 11 1 17 -2 13 -5z m320 -30 c-3 -3 -12 -4 -19 -1 -8 3
-5 6 6 6 11 1 17 -2 13 -5z m56 -9 c-3 -9 -8 -14 -10 -11 -3 3 -2 9 2 15 9 16
15 13 8 -4z m-319 -20 c-7 -16 -24 -21 -24 -6 0 8 7 13 27 20 1 1 0 -6 -3 -14z
m436 5 c0 -5 -2 -10 -4 -10 -3 0 -8 5 -11 10 -3 6 -1 10 4 10 6 0 11 -4 11
-10z m-920 -16 c0 -8 -5 -12 -10 -9 -6 4 -8 11 -5 16 9 14 15 11 15 -7z m747
10 c-3 -3 -12 -4 -19 -1 -8 3 -5 6 6 6 11 1 17 -2 13 -5z m65 -11 c-10 -4 -10
-8 -1 -19 8 -9 8 -14 1 -14 -15 0 -25 18 -17 30 3 6 12 10 18 9 8 0 8 -2 -1
-6z m381 -23 c15 -28 15 -29 -4 -20 -10 6 -19 16 -19 21 0 6 -7 9 -15 6 -8 -4
-17 -2 -20 3 -4 7 9 14 37 19 3 0 13 -12 21 -29z m-316 14 c-3 -3 -12 -4 -19
-1 -8 3 -5 6 6 6 11 1 17 -2 13 -5z m243 -30 c0 -2 -9 0 -20 6 -11 6 -20 13
-20 16 0 2 9 0 20 -6 11 -6 20 -13 20 -16z m-615 6 c-3 -5 -10 -10 -16 -10 -5
0 -9 5 -9 10 0 6 7 10 16 10 8 0 12 -4 9 -10z m-659 -38 c1 -19 -1 -20 -15
-10 -9 7 -18 13 -20 15 -1 1 0 7 4 13 11 17 30 6 31 -18z m1229 -21 c-3 -2
-11 1 -18 7 -8 7 -18 8 -22 4 -5 -4 -5 -1 -1 5 5 10 11 10 26 1 11 -7 17 -14
15 -17z m-210 9 c3 -6 -1 -7 -9 -4 -18 7 -21 14 -7 14 6 0 13 -4 16 -10z m371
-25 c14 -11 15 -14 4 -14 -8 0 -24 6 -34 14 -15 11 -16 15 -5 15 8 0 24 -7 35
-15z m-1085 -20 c1 -16 -16 -16 -36 0 -19 15 -19 15 8 13 15 -2 28 -7 28 -13z
m157 -16 c-4 -22 0 -33 14 -40 26 -14 22 -29 -7 -29 -23 0 -25 3 -25 50 0 30
4 50 11 50 7 0 9 -12 7 -31z m837 13 c-3 -3 -11 0 -18 7 -9 10 -8 11 6 5 10
-3 15 -9 12 -12z m-40 -9 c0 -6 3 -15 8 -19 4 -4 7 -1 7 6 0 7 2 11 5 8 3 -3
3 -13 -1 -22 -6 -15 -8 -14 -25 5 -22 25 -25 43 -6 37 6 -3 12 -10 12 -15z
m-841 -21 c-6 -4 -13 -15 -17 -25 -4 -11 -12 -15 -19 -11 -9 6 -9 9 0 12 25 8
11 24 -15 18 -23 -5 -25 -4 -10 5 10 6 25 8 32 5 8 -3 17 -1 21 5 3 6 9 8 12
4 4 -3 2 -9 -4 -13z m360 2 c5 -14 4 -15 -9 -4 -17 14 -19 20 -6 20 5 0 12 -7
15 -16z m571 6 c16 -7 17 -9 3 -9 -9 -1 -18 -7 -21 -13 -2 -8 -8 -9 -13 -4 -5
5 -3 11 5 14 11 4 11 6 0 13 -18 11 0 10 26 -1z m-137 -12 c16 -16 15 -28 -3
-28 -8 0 -15 6 -15 14 0 8 -6 17 -12 19 -9 4 -8 6 3 6 8 1 20 -4 27 -11z
m-691 -4 c-3 -3 -12 -4 -19 -1 -8 3 -5 6 6 6 11 1 17 -2 13 -5z m463 2 c0 -3
-4 -8 -10 -11 -5 -3 -10 -1 -10 4 0 6 5 11 10 11 6 0 10 -2 10 -4z m375 -36
c-3 -5 -11 -10 -16 -10 -6 0 -7 5 -4 10 3 6 11 10 16 10 6 0 7 -4 4 -10z
m-579 -39 c-4 -6 -15 -11 -24 -10 -14 0 -14 2 2 8 14 5 16 10 8 15 -7 4 -12
12 -12 19 0 7 7 5 16 -5 9 -9 13 -21 10 -27z m69 9 c-10 -11 -25 -20 -34 -19
-11 0 -10 3 5 9 12 4 24 16 28 26 3 9 9 14 13 10 3 -3 -2 -15 -12 -26z m581
19 c7 -12 -15 -31 -28 -23 -4 3 -8 12 -8 20 0 17 26 19 36 3z m-606 -3 c0 -3
-4 -8 -10 -11 -5 -3 -10 -1 -10 4 0 6 5 11 10 11 6 0 10 -2 10 -4z m523 -17
c33 -9 52 -29 27 -29 -5 0 -10 4 -10 9 0 5 -25 12 -57 16 -31 4 -66 11 -77 16
-26 11 61 2 117 -12z m-808 -9 c-3 -5 -13 -6 -21 -3 -12 4 -13 8 -3 14 15 9
32 2 24 -11z m-52 3 c-7 -2 -13 -12 -13 -20 0 -9 -3 -14 -6 -10 -10 10 4 37
18 36 10 0 10 -2 1 -6z m994 1 c-3 -3 -12 -4 -19 -1 -8 3 -5 6 6 6 11 1 17 -2
13 -5z m-822 -14 c3 -5 -1 -10 -10 -10 -9 0 -13 5 -10 10 3 6 8 10 10 10 2 0
7 -4 10 -10z m63 -15 c-3 -3 -9 2 -12 12 -6 14 -5 15 5 6 7 -7 10 -15 7 -18z
m716 1 c-3 -8 5 -21 18 -30 12 -9 17 -16 11 -16 -18 0 -43 30 -43 51 0 11 4
18 10 14 5 -3 7 -12 4 -19z m-567 8 c-3 -3 -12 -4 -19 -1 -8 3 -5 6 6 6 11 1
17 -2 13 -5z m438 -3 c3 -5 -8 -9 -25 -9 -21 1 -27 4 -18 9 17 11 35 11 43 0z
m202 -6 c0 -11 -4 -12 -14 -4 -7 6 -13 13 -13 15 0 2 6 4 13 4 8 0 14 -7 14
-15z m-807 -14 c0 -10 -6 -21 -14 -24 -11 -4 -11 -1 -2 19 13 29 16 30 16 5z
m776 4 c9 -8 11 -15 6 -15 -5 0 -15 7 -22 15 -7 8 -9 15 -6 15 4 0 14 -7 22
-15z m-106 -5 c0 -5 7 -10 15 -10 21 0 65 -29 65 -43 0 -8 -3 -8 -11 0 -6 6
-18 9 -25 6 -8 -3 -14 -1 -14 5 0 5 -9 12 -20 15 -11 3 -20 1 -20 -4 0 -5 4
-9 9 -9 5 0 11 -6 14 -14 5 -11 0 -11 -23 2 -16 9 -25 19 -20 20 22 8 8 22
-22 22 -25 0 -29 3 -18 10 20 13 70 13 70 0z m-497 -7 c-7 -2 -21 -2 -30 0
-10 3 -4 5 12 5 17 0 24 -2 18 -5z m-554 -35 c-1 -18 -3 -25 -6 -15 -2 9 -9
14 -14 11 -6 -3 -5 3 3 15 17 28 18 27 17 -11z m421 12 c6 -11 9 -20 7 -20 -2
0 -12 9 -22 20 -10 11 -13 20 -7 20 6 0 16 -9 22 -20z m56 5 c-8 -8 -18 -15
-22 -15 -3 0 -1 7 6 15 7 8 17 15 22 15 5 0 3 -7 -6 -15z m-81 -36 c1 -11 -1
-22 -5 -24 -3 -2 -6 9 -6 25 0 33 9 32 11 -1z m-145 11 c0 -5 -4 -10 -9 -10
-6 0 -13 5 -16 10 -3 6 1 10 9 10 9 0 16 -4 16 -10z m785 -18 c38 -31 46 -44
34 -59 -8 -9 -8 -13 0 -13 6 0 11 -5 11 -11 0 -6 -8 -8 -17 -5 -10 3 -31 -1
-47 -9 -33 -17 -36 -18 -36 -7 0 5 12 15 28 23 49 25 53 34 28 58 -12 11 -26
21 -30 21 -4 0 -15 7 -24 16 -15 15 -14 16 8 9 14 -4 34 -15 45 -23z m-720 8
c-3 -5 -14 -10 -23 -9 -14 0 -13 2 3 9 27 11 27 11 20 0z m162 -22 c2 -18 0
-20 -7 -8 -12 18 -13 30 -2 30 4 0 9 -10 9 -22z m-220 6 c-3 -3 -12 -4 -19 -1
-8 3 -5 6 6 6 11 1 17 -2 13 -5z m773 -30 c14 -15 13 -15 -10 -9 -14 4 -30 12
-37 17 -7 5 -17 7 -23 3 -5 -3 -10 -1 -10 6 0 16 60 3 80 -17z m-585 6 c3 -5
1 -10 -4 -10 -6 0 -11 5 -11 10 0 6 2 10 4 10 3 0 8 -4 11 -10z m-35 -10 c0
-5 -2 -10 -4 -10 -3 0 -8 5 -11 10 -3 6 -1 10 4 10 6 0 11 -4 11 -10z m117 4
c-3 -3 -12 -4 -19 -1 -8 3 -5 6 6 6 11 1 17 -2 13 -5z m603 -4 c0 -5 -5 -10
-11 -10 -5 0 -7 5 -4 10 3 6 8 10 11 10 2 0 4 -4 4 -10z m-690 -25 c0 -8 -4
-15 -10 -15 -5 0 -10 7 -10 15 0 8 5 15 10 15 6 0 10 -7 10 -15z m40 -20 c0
-5 -5 -3 -10 5 -5 8 -10 20 -10 25 0 6 5 3 10 -5 5 -8 10 -19 10 -25z m678 18
c-10 -2 -18 -11 -18 -19 0 -8 -4 -14 -9 -14 -6 0 -9 9 -8 20 1 15 8 20 27 19
17 -1 19 -3 8 -6z m-1084 -58 c3 -8 1 -15 -4 -15 -6 0 -10 7 -10 15 0 8 2 15
4 15 2 0 6 -7 10 -15z m1020 7 c2 -4 -11 -6 -30 -4 -19 2 -34 6 -34 8 0 8 59
4 64 -4z m321 -9 c-11 -3 -23 -10 -27 -17 -5 -7 -8 -7 -8 0 0 16 11 24 34 23
20 -1 20 -1 1 -6z m-1185 -29 c0 -8 -4 -12 -10 -9 -5 3 -10 10 -10 16 0 5 5 9
10 9 6 0 10 -7 10 -16z m84 -21 c-4 -14 -2 -23 5 -23 6 0 11 5 11 10 0 6 8 10
18 10 15 -1 15 -2 2 -13 -9 -7 -21 -31 -28 -54 -12 -39 -13 -40 -37 -30 -21
10 -24 17 -19 37 4 14 8 36 9 50 3 36 3 36 25 36 15 0 18 -5 14 -23z m1231 7
c3 -5 1 -10 -4 -10 -6 0 -11 5 -11 10 0 6 2 10 4 10 3 0 8 -4 11 -10z m-55
-19 c0 -5 -7 -11 -14 -14 -10 -4 -13 -1 -9 9 6 15 23 19 23 5z m85 -1 c-3 -5
-11 -10 -16 -10 -6 0 -7 5 -4 10 3 6 11 10 16 10 6 0 7 -4 4 -10z m-1348 -32
c-3 -8 -6 -5 -6 6 -1 11 2 17 5 13 3 -3 4 -12 1 -19z m963 18 c0 -2 -7 -7 -16
-10 -8 -3 -12 -2 -9 4 6 10 25 14 25 6z m-1277 -13 c-7 -2 -19 -2 -25 0 -7 3
-2 5 12 5 14 0 19 -2 13 -5z m1568 -28 c0 -5 -9 -11 -20 -13 -13 -2 -18 -9
-14 -18 3 -9 -1 -14 -11 -14 -10 0 -23 -15 -31 -32 -8 -18 -14 -27 -15 -20 0
20 26 76 45 95 18 19 46 20 46 2z m-1361 -95 c0 -5 -4 -10 -10 -10 -5 0 -10 5
-10 10 0 6 5 10 10 10 6 0 10 -4 10 -10z m-32 -36 c6 4 23 4 37 0 20 -5 23 -9
13 -15 -18 -12 -105 -11 -113 1 -3 6 3 10 14 10 12 0 21 6 21 13 0 9 3 8 9 -2
5 -7 14 -11 19 -7z m180 2 c-7 -8 -17 -12 -22 -9 -4 3 -2 9 5 14 22 13 31 11
17 -5z m39 -18 c-3 -8 -6 -5 -6 6 -1 11 2 17 5 13 3 -3 4 -12 1 -19z m-307
-13 c0 -8 -2 -15 -4 -15 -2 0 -6 7 -10 15 -3 8 -1 15 4 15 6 0 10 -7 10 -15z
m147 -31 c-3 -3 -12 -4 -19 -1 -8 3 -5 6 6 6 11 1 17 -2 13 -5z m1583 -4 c0
-5 -5 -10 -11 -10 -5 0 -7 5 -4 10 3 6 8 10 11 10 2 0 4 -4 4 -10z m-1420 -22
c0 -11 -47 -21 -65 -14 -28 10 -15 21 25 21 22 1 40 -3 40 -7z m-15 -52 c-11
-8 -24 -12 -29 -8 -5 3 -1 9 10 13 31 12 39 10 19 -5z m82 -88 c-3 -8 -6 -5
-6 6 -1 11 2 17 5 13 3 -3 4 -12 1 -19z m-167 2 c0 -5 -7 -10 -16 -10 -8 0
-12 5 -9 10 3 6 10 10 16 10 5 0 9 -4 9 -10z m2152 -172 c9 -7 19 -24 23 -38
l7 -25 -18 25 c-9 14 -24 31 -32 38 -9 6 -11 12 -6 12 6 0 17 -6 26 -12z m-48
-34 c3 -8 2 -12 -4 -9 -6 3 -10 10 -10 16 0 14 7 11 14 -7z m36 -35 c0 -11 -4
-18 -10 -14 -5 3 -7 12 -3 20 7 21 13 19 13 -6z m106 -27 c-4 -3 -11 0 -16 8
-15 24 -11 33 6 15 9 -9 13 -19 10 -23z m11 -34 c-3 -8 -6 -5 -6 6 -1 11 2 17
5 13 3 -3 4 -12 1 -19z m-7 -64 c0 -8 -4 -12 -10 -9 -5 3 -10 13 -10 21 0 8 5
12 10 9 6 -3 10 -13 10 -21z m-580 1 c0 -8 -2 -15 -4 -15 -2 0 -6 7 -10 15 -3
8 -1 15 4 15 6 0 10 -7 10 -15z m610 -50 c0 -8 -4 -15 -10 -15 -5 0 -7 7 -4
15 4 8 8 15 10 15 2 0 4 -7 4 -15z m64 -29 c-5 -13 -9 -14 -20 -5 -8 6 -14 16
-14 21 0 6 7 4 16 -3 15 -12 16 -11 10 11 -6 20 -5 22 4 8 5 -9 7 -24 4 -32z
m-21 -56 c-5 -6 -42 41 -43 55 0 6 11 -3 24 -20 13 -16 22 -32 19 -35z m97
-24 c0 -9 -6 -13 -14 -10 -8 3 -12 12 -9 20 3 8 0 14 -7 14 -6 0 -9 4 -6 9 3
5 -1 14 -9 21 -8 7 -15 17 -15 22 0 5 14 -7 30 -25 17 -19 30 -42 30 -51z
m-65 45 c3 -5 1 -12 -5 -16 -5 -3 -10 1 -10 9 0 18 6 21 15 7z m35 -61 c8 -5
11 -12 8 -16 -4 -3 -14 1 -23 10 -18 17 -9 21 15 6z m42 -54 c-3 -5 -9 -1 -13
10 -5 11 -8 13 -8 5 -1 -8 -4 -11 -7 -8 -4 4 -1 14 7 23 12 15 14 14 20 -3 3
-10 4 -22 1 -27z m38 34 c0 -5 -4 -10 -10 -10 -5 0 -10 5 -10 10 0 6 5 10 10
10 6 0 10 -4 10 -10z m35 -20 c3 -6 -1 -7 -9 -4 -18 7 -21 14 -7 14 6 0 13 -4
16 -10z m35 -150 c0 -5 -2 -10 -4 -10 -3 0 -8 5 -11 10 -3 6 -1 10 4 10 6 0
11 -4 11 -10z m47 -15 c0 -8 -4 -12 -9 -9 -4 3 -8 9 -8 15 0 5 4 9 8 9 5 0 9
-7 9 -15z m-2836 -52 c-8 -15 -10 -15 -11 -2 0 17 10 32 18 25 2 -3 -1 -13 -7
-23z m39 -22 c16 -30 12 -36 -10 -16 -21 19 -26 35 -10 35 5 0 14 -9 20 -19z
m-40 -9 c0 -13 -12 -22 -22 -16 -10 6 -1 24 13 24 5 0 9 -4 9 -8z m-25 -42
c-3 -5 -11 -10 -16 -10 -6 0 -7 5 -4 10 3 6 11 10 16 10 6 0 7 -4 4 -10z m-95
-250 c-10 -24 -15 -28 -26 -19 -8 6 -14 17 -13 23 0 7 2 6 6 -1 7 -19 23 -15
23 5 0 20 10 35 18 27 3 -2 -1 -18 -8 -35z m-40 -44 c0 -3 -4 -8 -10 -11 -5
-3 -10 -1 -10 4 0 6 5 11 10 11 6 0 10 -2 10 -4z m27 -18 c-3 -8 -6 -5 -6 6
-1 11 2 17 5 13 3 -3 4 -12 1 -19z m3323 2 c0 -5 -4 -10 -10 -10 -5 0 -10 5
-10 10 0 6 5 10 10 10 6 0 10 -4 10 -10z m-3370 -30 c0 -5 -5 -10 -11 -10 -5
0 -7 5 -4 10 3 6 8 10 11 10 2 0 4 -4 4 -10z m458 -59 c-15 -5 -19 4 -11 24 6
18 7 18 13 -1 4 -10 3 -21 -2 -23z m-478 -31 c0 -5 -4 -10 -10 -10 -5 0 -10 5
-10 10 0 6 5 10 10 10 6 0 10 -4 10 -10z m-13 -42 c-3 -8 -6 -5 -6 6 -1 11 2
17 5 13 3 -3 4 -12 1 -19z m428 -7 c-6 -5 -25 10 -25 20 0 5 6 4 14 -3 8 -7
12 -15 11 -17z m-378 -13 c-3 -7 -5 -2 -5 12 0 14 2 19 5 13 2 -7 2 -19 0 -25z
m425 10 c-7 -7 -12 -8 -12 -2 0 14 12 26 19 19 2 -3 -1 -11 -7 -17z m-82 -12
c0 -2 -12 -12 -27 -21 l-28 -18 19 21 c17 20 36 29 36 18z m-354 -38 c-10 -6
-20 -7 -24 -3 -9 8 20 25 31 18 5 -3 2 -10 -7 -15z m348 -37 c19 -7 18 -8 -4
-14 -13 -3 -26 -4 -29 -2 -2 3 2 5 10 6 8 0 6 4 -6 9 -25 11 2 12 29 1z m-388
-63 c-13 -19 -16 -19 -16 -5 0 9 6 26 13 37 9 16 13 17 15 6 2 -9 -4 -26 -12
-38z m3619 33 c-3 -6 -11 -11 -17 -11 -6 0 -6 6 2 15 14 17 26 13 15 -4z
m-3245 -21 c0 -5 -7 -10 -16 -10 -8 0 -12 5 -9 10 3 6 10 10 16 10 5 0 9 -4 9
-10z m8 -37 c-25 -6 -22 -23 4 -23 12 0 19 -3 15 -6 -3 -3 -20 -3 -37 1 -29 6
-30 8 -13 21 10 7 25 13 33 13 11 -1 10 -3 -2 -6z m-428 -33 c0 -5 -4 -10 -10
-10 -5 0 -10 5 -10 10 0 6 5 10 10 10 6 0 10 -4 10 -10z m435 -56 c-9 -9 -19
-13 -23 -10 -3 4 0 11 8 16 24 15 33 11 15 -6z m-355 -74 c-8 -5 -24 -9 -35
-9 -16 1 -16 2 5 9 35 11 48 11 30 0z m-245 -240 c-3 -5 -14 -10 -23 -9 -14 0
-13 2 3 9 27 11 27 11 20 0z m2556 -7 c12 -14 12 -15 0 -9 -10 7 -12 3 -6 -13
10 -33 -2 -25 -14 9 -11 33 -1 40 20 13z m94 -54 c9 -17 14 -33 11 -36 -3 -3
-11 6 -17 21 -7 14 -16 26 -21 26 -5 0 -6 5 -3 10 9 15 13 13 30 -21z m-115
-4 c1 6 7 -5 16 -24 17 -40 10 -56 -7 -17 -7 14 -16 26 -21 26 -4 0 -8 8 -8
18 0 14 2 15 10 2 5 -8 10 -10 10 -5z m44 -1 c3 -8 2 -12 -4 -9 -6 3 -10 10
-10 16 0 14 7 11 14 -7z m-2669 -94 c-3 -5 -12 -10 -18 -10 -7 0 -6 4 3 10 19
12 23 12 15 0z m2625 -33 c0 -4 -7 -2 -15 7 -8 8 -15 21 -15 28 1 14 30 -20
30 -35z m50 8 c0 -5 -5 -3 -10 5 -5 8 -10 20 -10 25 0 6 5 3 10 -5 5 -8 10
-19 10 -25z m90 -26 c0 -6 -4 -7 -10 -4 -5 3 -10 11 -10 16 0 6 5 7 10 4 6 -3
10 -11 10 -16z m-2570 1 c0 -5 -5 -10 -11 -10 -5 0 -7 5 -4 10 3 6 8 10 11 10
2 0 4 -4 4 -10z m2474 -6 c3 -8 2 -12 -4 -9 -6 3 -10 10 -10 16 0 14 7 11 14
-7z m33 -16 c-3 -8 -6 -5 -6 6 -1 11 2 17 5 13 3 -3 4 -12 1 -19z m-2719 -13
c0 -20 -3 -23 -14 -14 -10 8 -11 14 -1 24 7 8 13 14 13 15 1 0 2 -11 2 -25z
m2672 -40 c0 -11 -14 7 -31 40 -7 13 -3 12 10 -5 11 -14 21 -29 21 -35z m138
-1 c-4 -3 -12 5 -18 18 -12 22 -12 22 6 6 10 -10 15 -20 12 -24z m1619 30 c-3
-3 -12 -4 -19 -1 -8 3 -5 6 6 6 11 1 17 -2 13 -5z m-4457 -24 c0 -5 -5 -10
-11 -10 -5 0 -7 5 -4 10 3 6 8 10 11 10 2 0 4 -4 4 -10z m2749 -85 c0 -5 -7 3
-15 18 -8 15 -19 25 -24 22 -11 -7 -14 18 -3 29 7 7 42 -50 42 -69z m238 53
c-3 -8 -6 -5 -6 6 -1 11 2 17 5 13 3 -3 4 -12 1 -19z m-127 -44 c0 -2 -7 -4
-15 -4 -8 0 -15 4 -15 10 0 5 7 7 15 4 8 -4 15 -8 15 -10z m25 7 c3 -5 1 -12
-5 -16 -5 -3 -10 1 -10 9 0 18 6 21 15 7z m-21 -51 c4 0 4 4 1 10 -3 6 1 7 10
4 8 -4 20 -15 25 -25 16 -28 12 -36 -6 -11 -12 18 -19 20 -29 12 -10 -9 -16
-7 -24 9 -15 28 -13 40 3 19 7 -10 16 -18 20 -18z m-2637 4 c-3 -3 -12 -4 -19
-1 -8 3 -5 6 6 6 11 1 17 -2 13 -5z m2963 -4 c0 -5 -2 -10 -4 -10 -3 0 -8 5
-11 10 -3 6 -1 10 4 10 6 0 11 -4 11 -10z m110 -23 c0 -5 -4 -5 -10 -2 -5 3
-10 14 -10 23 0 15 2 15 10 2 5 -8 10 -19 10 -23z m-3276 -13 c3 -8 2 -12 -4
-9 -6 3 -10 10 -10 16 0 14 7 11 14 -7z m2866 8 c0 -13 -12 -22 -22 -16 -10 6
-1 24 13 24 5 0 9 -4 9 -8z m460 -11 c0 -5 14 -14 30 -21 17 -7 30 -16 30 -20
0 -4 -20 2 -44 14 -24 11 -42 24 -39 29 6 10 23 9 23 -2z m50 5 c0 -3 -4 -8
-10 -11 -5 -3 -10 -1 -10 4 0 6 5 11 10 11 6 0 10 -2 10 -4z m-100 -16 c0 -5
-4 -10 -10 -10 -5 0 -10 5 -10 10 0 6 5 10 10 10 6 0 10 -4 10 -10z m150 -26
c0 -8 -4 -12 -10 -9 -5 3 -10 10 -10 16 0 5 5 9 10 9 6 0 10 -7 10 -16z m-130
-1 c0 -5 -5 -15 -10 -23 -8 -12 -10 -11 -10 8 0 12 5 22 10 22 6 0 10 -3 10
-7z m115 -33 c3 -5 1 -10 -4 -10 -6 0 -11 5 -11 10 0 6 2 10 4 10 3 0 8 -4 11
-10z m55 -19 c0 -5 -9 -7 -20 -4 -11 3 -20 7 -20 9 0 2 9 4 20 4 11 0 20 -4
20 -9z m-20 -36 c11 -13 10 -14 -4 -9 -9 3 -16 10 -16 15 0 13 6 11 20 -6z
m55 -5 c3 -5 1 -10 -4 -10 -6 0 -11 5 -11 10 0 6 2 10 4 10 3 0 8 -4 11 -10z
m-3395 -14 c0 -2 -7 -7 -16 -10 -8 -3 -12 -2 -9 4 6 10 25 14 25 6z m3454 -12
c24 -9 19 -34 -6 -34 -19 0 -20 2 -8 10 13 9 13 11 0 20 -17 11 -10 13 14 4z
m-3494 -8 c0 -3 -4 -8 -10 -11 -5 -3 -10 -1 -10 4 0 6 5 11 10 11 6 0 10 -2
10 -4z m-106 -41 c-31 -23 -38 -17 -13 10 13 13 26 20 28 14 1 -6 -5 -17 -15
-24z m2537 18 c13 -16 12 -17 -3 -4 -17 13 -22 21 -14 21 2 0 10 -8 17 -17z
m994 -11 c-3 -3 -11 0 -18 7 -9 10 -8 11 6 5 10 -3 15 -9 12 -12z m-3472 -2
c-27 -11 -31 -32 -5 -24 15 5 15 4 -1 -6 -29 -18 -49 6 -23 26 11 8 27 14 35
13 10 0 7 -4 -6 -9z m3636 -11 c-16 -10 -23 -4 -14 10 3 6 11 8 17 5 6 -4 5
-9 -3 -15z m-3569 1 c0 -5 -10 -10 -22 -9 -22 0 -22 1 -3 9 11 5 21 9 23 9 1
1 2 -3 2 -9z m-170 -15 c0 -3 -9 -25 -21 -50 -21 -45 -32 -54 -44 -35 -3 6 0
10 8 10 14 0 37 40 37 65 0 8 5 15 10 15 6 0 10 -2 10 -5z m2620 -18 c11 -6
20 -17 20 -24 0 -18 -17 -16 -23 2 -4 8 -28 21 -54 30 l-48 15 43 -5 c24 -3
52 -11 62 -18z m-2445 3 c-3 -5 -18 -9 -33 -9 l-27 1 30 8 c17 4 31 8 33 9 2
0 0 -3 -3 -9z m3570 -8 c-3 -3 -11 0 -18 7 -9 10 -8 11 6 5 10 -3 15 -9 12
-12z m-3635 -2 c0 -5 -4 -10 -10 -10 -5 0 -10 5 -10 10 0 6 5 10 10 10 6 0 10
-4 10 -10z m3595 1 c3 -5 2 -12 -3 -15 -5 -3 -9 1 -9 9 0 17 3 19 12 6z
m-3545 -31 c13 -8 13 -10 -2 -10 -9 0 -20 5 -23 10 -8 13 5 13 25 0z m-43 -22
c-3 -8 -6 -5 -6 6 -1 11 2 17 5 13 3 -3 4 -12 1 -19z m-34 5 c-7 -2 -19 -2
-25 0 -7 3 -2 5 12 5 14 0 19 -2 13 -5z m3637 -13 c0 -5 -7 -7 -15 -4 -8 4
-15 8 -15 10 0 2 7 4 15 4 8 0 15 -4 15 -10z m-3654 -30 c13 0 24 5 24 11 0 5
5 7 10 4 18 -11 0 -25 -34 -25 -18 0 -36 -3 -40 -7 -10 -10 -46 -11 -40 -1 4
5 13 7 21 4 10 -4 17 2 21 16 3 12 7 17 10 10 2 -6 15 -12 28 -12z m3684 10
c0 -5 -4 -10 -10 -10 -5 0 -10 5 -10 10 0 6 5 10 10 10 6 0 10 -4 10 -10z
m-3610 -20 c0 -5 10 -11 23 -11 l22 -2 -22 -4 c-13 -2 -23 -11 -23 -19 0 -8
-4 -14 -9 -14 -5 0 -9 14 -9 30 1 17 5 30 10 30 4 0 8 -4 8 -10z m3709 -16
c10 -9 -35 -3 -49 6 -11 8 -7 9 15 4 17 -4 32 -8 34 -10z m-3742 -16 c-3 -8
-6 -5 -6 6 -1 11 2 17 5 13 3 -3 4 -12 1 -19z m3858 2 c3 -5 1 -10 -4 -10 -6
0 -11 5 -11 10 0 6 2 10 4 10 3 0 8 -4 11 -10z m-3945 -6 c0 -10 -28 -34 -39
-34 -16 0 -13 11 7 26 18 14 32 18 32 8z m2570 -15 c0 -6 -4 -8 -9 -5 -11 7
-23 -22 -15 -35 3 -5 0 -9 -5 -9 -15 0 -14 26 1 49 12 20 28 19 28 0z m-2530
-9 c-14 -10 -27 -17 -29 -14 -6 5 31 33 44 33 6 1 -1 -8 -15 -19z m2469 -63
c0 -21 -1 -21 -9 -2 -12 28 -12 37 0 30 6 -3 10 -16 9 -28z m-2029 9 c0 -3 -4
-8 -10 -11 -5 -3 -10 -1 -10 4 0 6 5 11 10 11 6 0 10 -2 10 -4z m2074 -11 c3
-8 1 -15 -4 -15 -6 0 -10 7 -10 15 0 8 2 15 4 15 2 0 6 -7 10 -15z m-87 -37
c-3 -7 -5 -2 -5 12 0 14 2 19 5 13 2 -7 2 -19 0 -25z m1483 22 c0 -5 -4 -10
-10 -10 -5 0 -10 5 -10 10 0 6 5 10 10 10 6 0 10 -4 10 -10z m100 -25 c14 -16
10 -18 -14 -9 -9 3 -16 10 -16 15 0 14 16 11 30 -6z m-1495 -4 c3 -6 -3 -9
-14 -8 -11 0 -17 5 -15 9 7 11 22 10 29 -1z m1429 0 c4 -5 -3 -7 -14 -4 -23 6
-26 13 -6 13 8 0 17 -4 20 -9z m-1459 -61 c1 -43 -8 -35 -20 17 -5 25 -3 32 7
28 8 -3 13 -22 13 -45z m39 -14 c5 -47 34 -96 45 -77 3 5 12 3 19 -5 9 -10 9
-14 1 -14 -7 0 -9 -10 -5 -27 l5 -28 -11 25 c-7 14 -16 28 -20 31 -22 15 -56
73 -51 86 3 8 0 19 -8 24 -10 6 -10 9 -1 9 6 0 12 8 12 17 0 32 8 7 14 -41z
m-105 27 c9 -15 12 -16 20 -4 7 10 11 6 16 -18 4 -17 20 -46 36 -64 16 -17 29
-36 29 -42 0 -5 -8 0 -18 11 -9 12 -29 29 -44 39 -16 9 -28 22 -28 27 0 5 5 6
10 3 6 -3 10 1 10 10 0 10 -6 15 -17 13 -10 -2 -17 -10 -15 -17 2 -9 -3 -9
-18 -1 -23 12 -27 22 -5 14 9 -4 15 0 15 10 0 9 -4 16 -10 16 -5 0 -10 5 -10
10 0 16 18 11 29 -7z m1561 -13 c0 -5 -4 -10 -10 -10 -5 0 -10 5 -10 10 0 6 5
10 10 10 6 0 10 -4 10 -10z m-1410 -61 c0 -5 -4 -9 -10 -9 -5 0 -10 7 -10 16
0 8 5 12 10 9 6 -3 10 -10 10 -16z m460 2 c0 -17 -18 -21 -24 -6 -3 9 0 15 9
15 8 0 15 -4 15 -9z m35 -11 c3 -5 2 -10 -4 -10 -5 0 -13 5 -16 10 -3 6 -2 10
4 10 5 0 13 -4 16 -10z m82 -2 c24 -11 29 -17 23 -33 -7 -18 -8 -19 -15 -3 -4
10 -10 16 -14 14 -3 -2 -15 5 -25 15 -23 22 -11 24 31 7z m-762 -18 c-3 -5
-12 -10 -18 -10 -7 0 -6 4 3 10 19 12 23 12 15 0z m89 -19 c-2 -3 -12 3 -22
13 -16 17 -16 18 5 5 12 -7 20 -15 17 -18z m766 14 c7 -8 8 -15 2 -15 -5 0
-15 7 -22 15 -7 8 -8 15 -2 15 5 0 15 -7 22 -15z m917 -17 c-3 -8 -6 -5 -6 6
-1 11 2 17 5 13 3 -3 4 -12 1 -19z m-1829 -13 c-3 -3 -9 2 -12 12 -6 14 -5 15
5 6 7 -7 10 -15 7 -18z m107 15 c3 -5 1 -10 -4 -10 -6 0 -11 5 -11 10 0 6 2
10 4 10 3 0 8 -4 11 -10z m115 -21 c0 -6 -4 -7 -10 -4 -5 3 -10 11 -10 16 0 6
5 7 10 4 6 -3 10 -11 10 -16z m765 11 c3 -5 1 -10 -4 -10 -6 0 -11 5 -11 10 0
6 2 10 4 10 3 0 8 -4 11 -10z m-1070 -20 c3 -5 1 -10 -4 -10 -6 0 -11 5 -11
10 0 6 2 10 4 10 3 0 8 -4 11 -10z m-1600 -40 c-3 -5 0 -21 7 -37 6 -15 10
-34 9 -41 -3 -18 38 -82 52 -82 8 0 8 -3 -1 -9 -10 -6 -10 -13 2 -37 8 -16 25
-51 39 -79 13 -27 40 -78 60 -112 20 -35 34 -63 33 -63 -2 0 9 -26 24 -57 29
-59 30 -73 4 -73 -9 0 -13 -8 -11 -22 4 -22 27 -39 27 -19 0 6 7 11 16 11 16
0 44 -23 44 -35 0 -4 16 -29 35 -55 19 -26 35 -51 35 -55 0 -4 -13 -5 -30 -3
-21 3 -30 0 -30 -10 0 -7 -5 -12 -12 -10 -6 2 -23 -7 -37 -20 -14 -13 -27 -19
-29 -13 -6 17 -33 13 -48 -6 -13 -17 -13 -17 -14 0 0 21 -10 22 -36 3 -17 -13
-21 -13 -37 7 -14 16 -17 17 -13 5 8 -25 -12 -33 -34 -13 -18 16 -20 16 -26 1
-10 -27 -22 -18 -27 21 -5 44 -24 110 -61 208 -20 56 -26 88 -26 160 0 53 5
96 11 102 7 7 11 71 10 179 0 147 2 169 17 180 14 10 20 10 34 -3 10 -9 15
-19 13 -23z m2415 19 c0 -5 -7 -9 -15 -9 -9 0 -12 6 -9 15 6 15 24 11 24 -6z
m1770 12 c0 -14 31 -22 44 -12 6 6 18 6 25 2 10 -6 9 -10 -5 -15 -9 -3 -14 -9
-11 -12 3 -3 18 1 35 10 32 16 42 13 42 -15 0 -15 -5 -17 -32 -12 -27 5 -30 4
-25 -11 4 -10 7 -27 7 -39 0 -17 2 -19 9 -8 14 22 75 -17 78 -50 1 -21 1 -21
-3 -2 -4 14 -10 20 -20 16 -8 -3 -14 1 -14 11 0 24 -19 19 -29 -6 -9 -23 -9
-23 -21 5 -7 15 -17 27 -21 27 -5 0 -11 16 -15 35 -4 26 -15 40 -35 51 -28 14
-39 34 -19 34 6 0 10 -4 10 -9z m-2302 -26 c-3 -3 -9 2 -12 12 -6 14 -5 15 5
6 7 -7 10 -15 7 -18z m-2288 5 c0 -5 -2 -10 -4 -10 -3 0 -8 5 -11 10 -3 6 -1
10 4 10 6 0 11 -4 11 -10z m4018 -25 c-3 -3 -9 2 -12 12 -6 14 -5 15 5 6 7 -7
10 -15 7 -18z m-3908 -35 c12 -23 5 -26 -16 -6 -16 17 -18 26 -4 26 5 0 14 -9
20 -20z m4700 14 c0 -4 -8 -13 -17 -20 -15 -11 -15 -15 -4 -23 18 -12 0 -20
-24 -10 -11 4 -14 8 -6 8 22 1 2 16 -22 16 -11 0 -22 6 -25 14 -3 10 1 12 16
9 11 -3 26 -2 33 3 16 10 49 12 49 3z m-265 -124 c-3 -5 -12 -10 -18 -10 -7 0
-6 4 3 10 19 12 23 12 15 0z m-2445 -19 c13 -25 13 -34 0 -26 -16 10 -32 45
-21 45 6 0 15 -9 21 -19z m2707 -7 c-9 -9 -28 6 -21 18 4 6 10 6 17 -1 6 -6 8
-13 4 -17z m210 -16 c-3 -8 -6 -5 -6 6 -1 11 2 17 5 13 3 -3 4 -12 1 -19z
m-2880 -18 c-1 -22 -17 -28 -17 -7 0 12 9 27 16 27 2 0 2 -9 1 -20z m-19 -56
c2 -1 -1 -5 -7 -8 -11 -7 -41 20 -41 36 0 6 10 3 23 -8 12 -10 23 -20 25 -20z
m1492 17 c20 -39 4 -43 -23 -6 -15 21 -16 25 -3 25 8 0 20 -9 26 -19z m1520
-6 c0 -8 -4 -15 -10 -15 -5 0 -10 7 -10 15 0 8 5 15 10 15 6 0 10 -7 10 -15z
m-3660 -26 c0 -6 -4 -7 -10 -4 -5 3 -10 11 -10 16 0 6 5 7 10 4 6 -3 10 -11
10 -16z m604 -18 c10 -11 23 -18 29 -14 6 3 7 1 3 -5 -4 -7 -1 -12 8 -12 9 0
16 -7 16 -15 0 -8 -2 -15 -4 -15 -2 0 -28 23 -57 51 -30 28 -45 46 -34 41 11
-6 29 -19 39 -31z m-94 14 c7 -8 18 -15 26 -15 7 0 16 -4 19 -10 11 -18 -10
-11 -45 15 -19 14 -29 25 -23 25 6 0 16 -7 23 -15z m2457 -17 c-3 -8 -6 -5 -6
6 -1 11 2 17 5 13 3 -3 4 -12 1 -19z m33 12 c0 -5 -2 -10 -4 -10 -3 0 -8 5
-11 10 -3 6 -1 10 4 10 6 0 11 -4 11 -10z m25 -20 c-3 -5 -12 -10 -18 -10 -7
0 -6 4 3 10 19 12 23 12 15 0z m605 0 c13 -9 13 -10 0 -10 -8 0 -22 5 -30 10
-13 9 -13 10 0 10 8 0 22 -5 30 -10z m-1453 -30 c4 -21 11 -30 24 -30 11 0 19
-6 19 -14 0 -10 -9 -14 -27 -11 -16 2 -27 8 -25 15 2 7 -2 26 -7 41 -6 19 -6
29 0 29 5 0 12 -13 16 -30z m-1598 -16 c-8 -10 -9 -15 -2 -11 7 5 16 -1 23
-13 6 -11 16 -20 22 -20 6 0 3 11 -7 26 -9 15 -12 23 -6 20 6 -4 18 -21 27
-38 9 -16 11 -27 5 -24 -15 10 -14 -7 1 -22 8 -8 8 -12 1 -12 -6 0 -18 11 -27
24 -8 14 -27 36 -42 51 -21 21 -24 28 -13 41 8 10 15 12 22 5 7 -7 5 -16 -4
-27z m-1399 -4 c0 -5 -2 -10 -4 -10 -3 0 -8 5 -11 10 -3 6 -1 10 4 10 6 0 11
-4 11 -10z m4327 -16 c-3 -3 -12 -4 -19 -1 -8 3 -5 6 6 6 11 1 17 -2 13 -5z
m-1307 -33 c0 -6 -4 -13 -10 -16 -5 -3 -10 1 -10 9 0 9 5 16 10 16 6 0 10 -4
10 -9z m195 -34 c-15 -37 -10 -48 14 -24 10 10 11 8 6 -8 -5 -14 -2 -13 9 5
12 19 15 21 16 8 0 -10 9 -23 19 -30 17 -10 17 -13 4 -26 -8 -8 -12 -21 -9
-28 7 -18 -58 -36 -89 -24 -27 10 -36 5 -28 -18 4 -15 3 -15 -6 -2 -8 12 -13
12 -23 2 -18 -18 -52 -16 -44 3 4 12 2 13 -13 5 -14 -7 -21 -6 -25 3 -3 6 -3
-4 0 -23 l6 -35 -23 20 c-15 13 -19 14 -11 3 8 -10 9 -19 3 -22 -5 -3 -13 8
-16 26 -4 18 -12 39 -17 46 -8 9 -4 12 13 13 17 1 19 3 7 6 -20 5 -25 33 -7
33 6 0 9 7 5 15 -3 8 -1 15 5 15 6 0 7 5 4 10 -3 6 -2 10 4 10 6 0 19 10 31
22 11 12 23 19 26 15 4 -3 -2 -14 -11 -24 -13 -12 -14 -18 -5 -21 9 -3 9 -6 1
-12 -14 -8 -3 -42 13 -37 6 2 11 10 11 18 0 8 8 17 18 21 10 4 17 18 17 33 0
15 4 24 10 20 6 -4 6 -15 0 -31 -13 -33 -13 -37 4 -31 7 3 18 1 24 -5 7 -7 19
6 37 42 30 58 44 63 20 7z m52 11 c-3 -8 -6 -5 -6 6 -1 11 2 17 5 13 3 -3 4
-12 1 -19z m366 2 c-3 -12 -8 -19 -11 -16 -5 6 5 36 12 36 2 0 2 -9 -1 -20z
m-2267 -16 c26 -24 27 -25 4 -13 -29 14 -55 39 -42 39 5 0 22 -12 38 -26z
m2016 -12 c12 -15 38 -34 56 -41 17 -7 32 -17 32 -21 0 -5 34 -11 75 -15 71
-7 93 -19 60 -31 -8 -4 -12 -10 -9 -15 7 -12 -7 -11 -26 1 -11 7 -11 10 -2 10
7 0 10 5 7 10 -5 8 -11 7 -21 -1 -7 -6 -11 -16 -7 -23 4 -6 0 -5 -9 2 -12 9
-18 10 -23 2 -4 -6 -13 -9 -21 -6 -9 3 -14 -1 -14 -12 0 -11 -3 -13 -8 -6 -4
7 -22 10 -39 8 -38 -4 -42 5 -13 31 31 28 16 30 -26 4 -26 -16 -39 -19 -42
-11 -6 18 -22 14 -22 -5 0 -15 -2 -16 -10 -3 -5 8 -10 11 -10 5 0 -5 -5 -2
-10 7 -7 11 -7 26 0 43 7 18 7 33 -1 48 -9 20 -9 20 4 4 13 -16 15 -15 27 13
15 37 22 37 52 2z m-387 -2 c3 -5 1 -10 -4 -10 -6 0 -11 5 -11 10 0 6 2 10 4
10 3 0 8 -4 11 -10z m-1480 -10 c3 -5 2 -10 -4 -10 -5 0 -13 5 -16 10 -3 6 -2
10 4 10 5 0 13 -4 16 -10z m2102 -22 c-3 -8 -6 -5 -6 6 -1 11 2 17 5 13 3 -3
4 -12 1 -19z m-2117 -16 c-17 -6 -42 7 -35 18 4 6 13 5 26 -3 10 -6 15 -13 9
-15z m-150 4 c0 -11 -19 -15 -25 -6 -3 5 1 10 9 10 9 0 16 -2 16 -4z m100 -26
c0 -5 -9 -6 -20 -3 -11 3 -20 9 -20 13 0 5 9 6 20 3 11 -3 20 -9 20 -13z m-82
-45 c-3 -3 -9 2 -12 12 -6 14 -5 15 5 6 7 -7 10 -15 7 -18z m107 15 c3 -5 2
-10 -4 -10 -5 0 -13 5 -16 10 -3 6 -2 10 4 10 5 0 13 -4 16 -10z m-20 -50 c3
-5 -1 -10 -9 -10 -9 0 -16 5 -16 10 0 6 4 10 9 10 6 0 13 -4 16 -10z m2382
-20 c-1 -14 -4 -16 -14 -8 -7 5 -21 7 -30 4 -11 -4 -8 1 7 13 28 22 39 19 37
-9z m-2393 -16 c9 -8 16 -23 16 -32 -1 -15 -3 -14 -15 3 -8 11 -19 26 -25 33
-16 18 6 15 24 -4z m1245 -7 c-2 -1 -13 -9 -24 -17 -19 -14 -19 -14 -6 3 7 9
18 17 24 17 6 0 8 -1 6 -3z m448 -3 c-3 -3 -12 -4 -19 -1 -8 3 -5 6 6 6 11 1
17 -2 13 -5z m-1807 -54 c0 -11 5 -20 11 -20 6 0 9 7 5 15 -3 8 -1 15 4 15 6
0 10 -9 10 -19 0 -11 6 -21 13 -24 6 -2 9 -8 5 -12 -4 -4 -14 -2 -23 5 -21 17
-29 7 -16 -19 37 -73 36 -68 12 -47 -11 11 -21 27 -21 38 0 10 -7 18 -15 18
-8 0 -15 5 -15 10 0 6 5 10 11 10 7 0 9 10 5 25 -4 14 -2 25 4 25 5 0 10 -9
10 -20z m603 -10 c-5 -19 -23 -39 -23 -25 0 9 20 45 24 45 2 0 2 -9 -1 -20z
m-46 -47 c15 -35 17 -36 22 -16 l6 23 30 -25 30 -26 -26 3 c-14 2 -34 -3 -43
-11 -14 -12 -16 -11 -16 5 -1 18 -1 18 -14 2 -7 -10 -23 -18 -34 -18 -22 0
-99 66 -89 76 3 3 22 -10 43 -30 29 -28 40 -33 55 -26 27 15 29 24 14 53 -8
15 -9 27 -4 27 6 0 17 -17 26 -37z m-457 23 c0 -3 -4 -8 -10 -11 -5 -3 -10 -1
-10 4 0 6 5 11 10 11 6 0 10 -2 10 -4z m699 -39 c12 -15 12 -17 -3 -11 -9 3
-16 13 -16 22 0 8 1 13 3 11 1 -2 9 -12 16 -22z m-3113 -1 c-14 -12 -45 -59
-64 -96 -11 -23 -12 -22 -8 18 2 24 13 53 23 64 17 20 17 21 0 15 -10 -4 -16
-3 -13 1 3 4 20 8 40 8 25 0 31 -3 22 -10z m267 -11 c-22 -17 -30 -11 -13 10
7 8 17 12 22 9 5 -3 1 -12 -9 -19z m887 15 c0 -5 -4 -10 -10 -10 -5 0 -10 5
-10 10 0 6 5 10 10 10 6 0 10 -4 10 -10z m1695 -8 c-3 -3 -11 0 -18 7 -9 10
-8 11 6 5 10 -3 15 -9 12 -12z m-1770 -2 c3 -5 1 -10 -4 -10 -6 0 -11 5 -11
10 0 6 2 10 4 10 3 0 8 -4 11 -10z m1971 -18 c-4 -3 -14 2 -24 12 -16 18 -16
18 6 6 13 -6 21 -14 18 -18z m-3129 -4 c-3 -8 -6 -5 -6 6 -1 11 2 17 5 13 3
-3 4 -12 1 -19z m456 10 c-6 -7 -13 -20 -16 -28 -3 -9 -6 -3 -6 13 -1 19 4 27
15 27 12 0 14 -4 7 -12z m257 -8 c0 -5 -4 -10 -9 -10 -5 0 -11 -7 -15 -15 -4
-12 -2 -13 13 -6 14 8 20 6 28 -12 14 -31 6 -47 -25 -47 -55 0 -69 9 -70 46
-1 35 6 42 25 23 8 -8 15 -6 25 10 14 22 28 28 28 11z m2790 0 c0 -5 -7 -7
-15 -4 -8 4 -15 8 -15 10 0 2 7 4 15 4 8 0 15 -4 15 -10z m-3145 -29 c-3 -12
-11 -19 -16 -15 -6 3 -16 -2 -24 -12 -7 -11 -16 -16 -19 -13 -5 5 4 16 47 55
16 16 20 10 12 -15z m158 20 c32 -12 40 -45 16 -67 -18 -16 -19 -15 -28 10 -6
14 -17 26 -26 26 -15 0 -21 21 -8 33 9 9 17 9 46 -2z m2677 -1 c0 -5 -4 -10
-10 -10 -5 0 -10 5 -10 10 0 6 5 10 10 10 6 0 10 -4 10 -10z m-1140 -10 c0 -5
-2 -10 -4 -10 -3 0 -8 5 -11 10 -3 6 -1 10 4 10 6 0 11 -4 11 -10z m274 -5
c25 -19 16 -19 -20 0 -16 8 -22 15 -14 15 8 -1 24 -7 34 -15z m536 11 c0 -2
-7 -6 -15 -10 -8 -3 -15 -1 -15 4 0 6 7 10 15 10 8 0 15 -2 15 -4z m124 -11
c-4 -8 -8 -15 -10 -15 -2 0 -4 7 -4 15 0 8 4 15 10 15 5 0 7 -7 4 -15z m178
-9 c7 4 8 2 4 -4 -11 -18 -46 -35 -46 -22 0 5 8 10 18 10 16 1 16 1 -1 14 -13
10 -15 15 -5 18 7 3 14 -1 16 -9 2 -7 8 -10 14 -7z m-1441 -24 c-6 -20 -6 -32
0 -32 18 0 9 -16 -20 -33 -28 -16 -41 -14 -41 8 0 12 62 97 67 92 1 -2 -1 -18
-6 -35z m1239 18 c6 -11 7 -20 2 -20 -10 0 -32 21 -32 32 0 16 19 8 30 -12z
m-1717 -43 c-7 -12 -23 3 -23 22 0 28 14 35 21 9 3 -13 4 -26 2 -31z m394 31
c-3 -8 -6 -5 -6 6 -1 11 2 17 5 13 3 -3 4 -12 1 -19z m1291 10 c15 -15 16 -28
2 -28 -5 0 -10 7 -10 16 0 11 -6 14 -22 9 -18 -5 -20 -4 -8 4 19 14 23 14 38
-1z m-1473 -8 c3 -5 1 -10 -4 -10 -6 0 -11 5 -11 10 0 6 2 10 4 10 3 0 8 -4
11 -10z m916 -9 c11 -13 11 -14 -5 -8 -16 6 -15 3 4 -28 14 -22 20 -46 18 -67
l-4 -33 -13 27 c-8 15 -19 25 -25 21 -6 -3 -8 -3 -4 2 4 4 -1 22 -12 40 -11
18 -17 35 -13 38 3 4 -1 7 -10 7 -9 0 -18 4 -21 9 -10 15 70 7 85 -8z m-500
-23 c-3 -21 -6 -26 -9 -15 -3 17 3 47 11 47 2 0 1 -15 -2 -32z m834 4 c-3 -3
-11 0 -18 7 -9 10 -8 11 6 5 10 -3 15 -9 12 -12z m-2575 -27 c0 -5 -5 -3 -10
5 -5 8 -10 20 -10 25 0 6 5 3 10 -5 5 -8 10 -19 10 -25z m1340 25 c0 -5 -2
-10 -4 -10 -3 0 -8 5 -11 10 -3 6 -1 10 4 10 6 0 11 -4 11 -10z m1594 -5 c-6
-16 -24 -21 -24 -7 0 11 11 22 21 22 5 0 6 -7 3 -15z m-291 -15 c3 -11 1 -18
-4 -14 -5 3 -9 12 -9 20 0 20 7 17 13 -6z m-2732 -97 c-9 -16 -10 -14 -11 12
0 21 3 26 11 18 8 -8 8 -16 0 -30z m2609 27 c8 -5 11 -10 5 -10 -5 0 -17 5
-25 10 -8 5 -10 10 -5 10 6 0 17 -5 25 -10z m-1444 -57 c-4 -4 -11 -1 -16 7
-16 25 -11 35 7 17 9 -9 13 -20 9 -24z m-1136 1 c0 -8 -4 -12 -10 -9 -5 3 -10
10 -10 16 0 5 5 9 10 9 6 0 10 -7 10 -16z m1305 6 c-3 -5 -14 -10 -23 -10 -15
0 -15 2 -2 10 20 13 33 13 25 0z m-1358 -22 c-3 -8 -6 -5 -6 6 -1 11 2 17 5
13 3 -3 4 -12 1 -19z m2403 7 c-14 -7 -27 -11 -30 -9 -6 7 22 24 40 23 9 0 5
-6 -10 -14z"/>
<path d="M1420 4571 c0 -6 5 -13 10 -16 6 -3 10 1 10 9 0 9 -4 16 -10 16 -5 0
-10 -4 -10 -9z"/>
<path d="M1308 483 c7 -3 16 -2 19 1 4 3 -2 6 -13 5 -11 0 -14 -3 -6 -6z"/>
<path d="M1366 294 c-17 -12 -17 -14 -4 -14 9 0 20 5 23 11 11 17 2 18 -19 3z"/>
<path d="M4620 559 c0 -5 5 -7 10 -4 6 3 10 8 10 11 0 2 -4 4 -10 4 -5 0 -10
-5 -10 -11z"/>
<path d="M4766 604 c-8 -20 -8 -24 2 -24 4 0 8 9 9 20 2 24 -3 26 -11 4z"/>
<path d="M4890 5650 c-8 -5 -11 -10 -7 -10 4 0 3 -9 -3 -20 -9 -17 -7 -22 14
-29 29 -11 96 6 96 25 0 15 -44 44 -67 44 -10 0 -25 -5 -33 -10z"/>
<path d="M3676 4951 c-4 -5 3 -7 14 -4 23 6 26 13 6 13 -8 0 -17 -4 -20 -9z"/>
<path d="M3750 4928 c0 -5 -12 -9 -27 -9 l-28 -1 30 -8 c29 -7 29 -8 -10 -10
-31 -2 -25 -4 30 -11 99 -10 189 1 198 25 5 12 -12 15 -94 18 -54 2 -99 0 -99
-4z m110 -18 c13 -9 13 -10 0 -10 -8 0 -22 5 -30 10 -13 9 -13 10 0 10 8 0 22
-5 30 -10z"/>
<path d="M4018 4933 c12 -2 32 -2 45 0 12 2 2 4 -23 4 -25 0 -35 -2 -22 -4z"/>
<path d="M4145 4933 c-11 -3 -25 -9 -31 -14 -6 -5 -42 -7 -80 -4 -38 2 -61 2
-51 -1 47 -15 2 -34 -80 -34 -64 0 -83 -7 -83 -31 0 -23 -30 -14 -30 10 -1 14
-2 14 -15 -2 -14 -19 -55 -16 -55 4 0 5 -5 9 -11 9 -5 0 -8 -4 -5 -9 4 -5 0
-12 -6 -14 -8 -3 -6 -6 5 -6 16 -1 16 -3 1 -26 -18 -27 -37 -34 -28 -10 7 18
-34 65 -58 65 -9 0 -21 -8 -26 -17 -9 -16 -11 -16 -27 0 -17 18 -40 14 -29 -5
4 -6 2 -8 -4 -4 -6 3 -13 2 -16 -3 -3 -5 -15 -7 -26 -4 -11 3 -17 9 -14 14 3
5 -5 9 -17 9 -18 0 -19 -2 -9 -15 7 -9 10 -18 6 -22 -3 -3 -6 0 -7 8 -1 8 -5
3 -10 -11 l-9 -25 4 27 c3 23 -1 27 -18 27 -12 0 -28 1 -36 2 -32 5 -61 -1
-55 -11 4 -6 16 -8 27 -4 17 5 20 3 15 -10 -5 -12 1 -19 18 -26 14 -5 25 -14
25 -19 0 -5 3 -16 6 -25 3 -9 1 -16 -5 -16 -6 0 -13 11 -17 25 -4 17 -13 25
-28 25 -11 0 -50 3 -85 6 -58 6 -64 5 -58 -11 5 -11 3 -15 -5 -12 -7 2 -21 0
-30 -5 -13 -6 -18 -5 -18 7 0 8 -5 15 -11 15 -6 0 -8 9 -4 20 4 11 2 20 -4 20
-6 0 -8 7 -5 15 7 17 -13 20 -49 6 -19 -8 -24 -16 -23 -42 1 -31 4 -34 46 -42
25 -5 55 -10 67 -11 11 0 20 -3 18 -6 -2 -3 17 -17 43 -30 26 -14 49 -27 52
-30 3 -4 32 -26 65 -50 86 -64 291 -246 317 -283 12 -18 52 -63 88 -102 154
-164 179 -217 189 -400 4 -66 13 -130 20 -143 7 -13 10 -30 7 -38 -3 -8 -1
-12 4 -9 9 5 18 -10 76 -117 12 -21 31 -49 42 -61 11 -12 37 -52 57 -90 20
-37 45 -73 56 -81 10 -7 22 -27 25 -44 4 -18 10 -32 14 -32 18 0 60 -51 60
-73 0 -13 9 -32 21 -43 12 -10 27 -31 35 -46 8 -16 19 -28 25 -28 20 0 151 83
167 107 9 13 32 43 50 65 40 49 58 92 68 153 3 26 17 58 29 73 12 15 39 77 59
137 21 61 42 119 49 130 6 11 23 43 37 70 14 28 33 61 42 75 9 14 20 42 23 62
4 20 16 45 26 54 44 40 77 264 57 389 -12 74 -26 105 -38 84 -4 -6 -13 -8 -19
-5 -8 5 -7 12 4 22 8 9 15 26 15 38 0 22 -60 110 -69 101 -2 -3 1 -11 7 -17
15 -15 15 -28 2 -28 -6 0 -15 10 -20 23 -5 12 -9 16 -9 10 -1 -7 -5 -13 -11
-13 -5 0 -7 7 -4 15 8 20 -57 79 -69 62 -5 -8 -6 -5 -3 8 5 16 -2 24 -35 38
-22 10 -52 30 -66 45 l-25 27 6 -35 c7 -33 6 -34 -9 -16 -8 11 -15 25 -15 32
0 7 -11 10 -27 7 l-28 -3 25 11 c21 10 22 13 8 16 -10 3 -18 8 -18 13 0 14
-32 21 -46 9 -12 -10 -13 -9 -8 5 4 9 1 16 -6 16 -7 0 -25 9 -41 21 -16 11
-40 19 -53 17 -13 -1 -29 2 -37 8 -17 14 -84 36 -123 41 -19 2 -33 -3 -42 -15
-13 -16 -13 -16 -14 1 0 27 -47 42 -95 30z m-55 -64 c0 -6 -4 -7 -10 -4 -5 3
-10 11 -10 16 0 6 5 7 10 4 6 -3 10 -11 10 -16z m-187 -6 c-13 -2 -33 -2 -45
0 -13 2 -3 4 22 4 25 0 35 -2 23 -4z m47 -33 c0 -11 -4 -20 -9 -20 -5 0 -11 9
-14 20 -3 13 0 20 9 20 8 0 14 -9 14 -20z m-305 0 c3 -5 -1 -10 -9 -10 -9 0
-16 5 -16 10 0 6 4 10 9 10 6 0 13 -4 16 -10z m265 0 c13 -9 13 -10 0 -9 -8 1
-26 5 -40 9 l-25 8 25 1 c14 0 32 -4 40 -9z m113 3 c-7 -2 -21 -2 -30 0 -10 3
-4 5 12 5 17 0 24 -2 18 -5z m-533 -13 c0 -5 -4 -10 -10 -10 -5 0 -10 5 -10
10 0 6 5 10 10 10 6 0 10 -4 10 -10z m585 0 c-3 -5 -10 -10 -16 -10 -5 0 -9 5
-9 10 0 6 7 10 16 10 8 0 12 -4 9 -10z m-555 -10 c0 -5 -5 -10 -11 -10 -5 0
-7 5 -4 10 3 6 8 10 11 10 2 0 4 -4 4 -10z m333 -4 c3 -8 0 -20 -8 -26 -11 -9
-12 -7 -8 9 3 13 -1 21 -14 24 -15 4 -15 5 3 6 12 0 24 -5 27 -13z m-378 -16
c4 -6 11 -8 16 -5 5 4 9 -1 9 -9 0 -10 -6 -13 -16 -9 -14 5 -15 3 -3 -18 13
-25 23 -76 12 -65 -5 4 -41 102 -43 114 -1 7 20 1 25 -8z m-27 -24 c6 -13 8
-27 5 -30 -7 -7 -32 24 -33 42 0 20 16 14 28 -12z m96 -11 c15 -23 15 -24 -5
-17 -11 5 -20 11 -20 15 1 4 1 12 1 17 0 16 6 12 24 -15z m336 15 c0 -5 -8
-10 -17 -10 -15 0 -16 2 -3 10 19 12 20 12 20 0z m-309 -66 c6 -8 17 -14 25
-14 9 0 12 -10 8 -36 -3 -31 -2 -35 12 -30 14 5 15 4 5 -8 -10 -12 -8 -16 8
-21 10 -3 22 -12 25 -20 6 -17 -9 -21 -19 -5 -3 6 -19 10 -34 10 -16 0 -41 11
-57 26 l-29 25 39 -15 c52 -21 58 -13 9 14 l-38 21 35 -6 c33 -6 34 -5 15 10
-11 9 -28 14 -38 11 -9 -2 -15 0 -11 5 3 5 0 9 -5 9 -6 0 -11 11 -11 24 0 19
4 22 25 19 13 -3 30 -11 36 -19z m26 20 c-3 -3 -12 -4 -19 -1 -8 3 -5 6 6 6
11 1 17 -2 13 -5z m520 -30 c-3 -3 -12 -4 -19 -1 -8 3 -5 6 6 6 11 1 17 -2 13
-5z m-449 -11 c-10 -2 -26 -2 -35 0 -10 3 -2 5 17 5 19 0 27 -2 18 -5z m742
-7 c0 -3 -4 -8 -10 -11 -5 -3 -10 -1 -10 4 0 6 5 11 10 11 6 0 10 -2 10 -4z
m400 -50 c0 -3 -4 -8 -10 -11 -5 -3 -10 -1 -10 4 0 6 5 11 10 11 6 0 10 -2 10
-4z m25 -16 c3 -5 1 -10 -4 -10 -6 0 -11 5 -11 10 0 6 2 10 4 10 3 0 8 -4 11
-10z m-1073 -34 c10 5 10 4 1 -6 -13 -14 -43 -7 -43 11 0 8 4 8 15 -1 8 -6 20
-8 27 -4z m-242 -16 c0 -5 9 -10 19 -10 11 0 23 -4 26 -10 8 -13 5 -12 -34 1
-29 10 -43 29 -21 29 6 0 10 -4 10 -10z m90 -8 c30 -20 40 -48 13 -33 -23 12
-59 51 -47 51 5 0 20 -8 34 -18z m63 -26 c4 -10 1 -13 -9 -9 -7 3 -14 9 -14
14 0 14 17 10 23 -5z m1200 -33 c-7 -2 -21 -2 -30 0 -10 3 -4 5 12 5 17 0 24
-2 18 -5z"/>
<path d="M3520 4701 c0 -5 11 -12 24 -15 13 -3 32 -8 43 -12 10 -3 0 4 -21 15
-45 24 -46 24 -46 12z"/>
<path d="M3086 4892 c-3 -6 -1 -14 5 -17 15 -10 25 3 12 16 -7 7 -13 7 -17 1z"/>
<path d="M3515 4890 c3 -5 8 -10 11 -10 2 0 4 5 4 10 0 6 -5 10 -11 10 -5 0
-7 -4 -4 -10z"/>
<path d="M3545 4890 c-3 -5 1 -10 9 -10 9 0 16 5 16 10 0 6 -4 10 -9 10 -6 0
-13 -4 -16 -10z"/>
<path d="M3468 4883 c7 -3 16 -2 19 1 4 3 -2 6 -13 5 -11 0 -14 -3 -6 -6z"/>
<path d="M3128 4873 c7 -3 16 -2 19 1 4 3 -2 6 -13 5 -11 0 -14 -3 -6 -6z"/>
<path d="M3410 4870 c0 -5 7 -10 15 -10 8 0 15 5 15 10 0 6 -7 10 -15 10 -8 0
-15 -4 -15 -10z"/>
<path d="M3180 4859 c-25 -9 -25 -9 3 -5 15 2 30 -1 33 -5 3 -5 20 -9 37 -8
l32 1 -35 13 c-41 16 -38 16 -70 4z"/>
<path d="M3288 4863 c7 -3 16 -2 19 1 4 3 -2 6 -13 5 -11 0 -14 -3 -6 -6z"/>
<path d="M3500 4860 c-13 -8 -12 -10 3 -10 9 0 17 5 17 10 0 12 -1 12 -20 0z"/>
<path d="M3285 4830 c-19 -8 -19 -9 3 -9 12 -1 22 4 22 9 0 6 -1 10 -2 9 -2 0
-12 -4 -23 -9z"/>
<path d="M3030 4815 c0 -5 5 -17 10 -25 5 -8 10 -10 10 -5 0 6 -5 17 -10 25
-5 8 -10 11 -10 5z"/>
<path d="M5870 4719 c0 -5 5 -7 10 -4 6 3 10 8 10 11 0 2 -4 4 -10 4 -5 0 -10
-5 -10 -11z"/>
<path d="M2965 4690 c3 -5 -1 -10 -10 -10 -13 0 -14 -2 -3 -14 9 -10 14 -11
17 -3 2 7 11 17 20 24 14 11 13 12 -7 13 -13 0 -20 -4 -17 -10z"/>
<path d="M3078 4683 c7 -3 16 -2 19 1 4 3 -2 6 -13 5 -11 0 -14 -3 -6 -6z"/>
<path d="M5858 4683 c7 -3 16 -2 19 1 4 3 -2 6 -13 5 -11 0 -14 -3 -6 -6z"/>
<path d="M2810 4670 c-8 -5 -12 -12 -9 -15 4 -3 12 1 19 10 14 17 11 19 -10 5z"/>
<path d="M2908 4663 c7 -3 16 -2 19 1 4 3 -2 6 -13 5 -11 0 -14 -3 -6 -6z"/>
<path d="M2895 4640 c-19 -8 -19 -9 2 -9 12 -1 25 4 28 9 7 12 -2 12 -30 0z"/>
<path d="M2835 4624 c11 -8 19 -21 17 -27 -3 -9 0 -8 9 0 10 11 9 16 -7 28
-10 8 -23 14 -29 14 -5 0 -1 -7 10 -15z"/>
<path d="M6337 4633 c-11 -3 -16 -10 -13 -19 9 -24 -38 -64 -77 -64 -18 0 -38
5 -44 11 -12 12 -99 17 -165 9 -35 -5 -57 -2 -84 12 -41 20 -74 23 -74 8 0 -5
-29 -23 -64 -39 -41 -19 -66 -36 -71 -50 -7 -22 -117 -81 -150 -81 -15 0 -26
-4 -72 -28 -13 -7 -32 -12 -42 -12 -17 0 -51 -33 -51 -50 0 -3 24 -3 54 -2 30
2 64 -1 76 -8 11 -6 41 -13 66 -15 25 -2 65 -11 90 -21 37 -14 51 -15 82 -6
20 6 57 12 82 12 25 0 81 2 125 5 109 6 318 11 305 7 -22 -8 -8 -22 21 -22 26
0 30 3 24 18 -14 31 -17 61 -10 79 6 17 7 17 21 -2 12 -16 16 -17 23 -6 14 22
31 3 31 -34 0 -27 5 -35 28 -43 30 -10 82 8 82 30 0 15 31 37 53 38 16 0 17
11 15 138 l-3 137 -55 -3 c-30 -1 -71 -3 -90 -5 -19 -1 -48 1 -65 4 -16 3 -38
4 -48 2z"/>
<path d="M2880 4509 c0 -5 5 -7 10 -4 6 3 10 8 10 11 0 2 -4 4 -10 4 -5 0 -10
-5 -10 -11z"/>
<path d="M3116 4461 c-3 -4 6 -6 19 -3 14 2 25 6 25 8 0 8 -39 4 -44 -5z"/>
<path d="M3230 4225 c0 -8 5 -15 10 -15 6 0 10 7 10 15 0 8 -4 15 -10 15 -5 0
-10 -7 -10 -15z"/>
<path d="M3271 4214 c0 -11 3 -14 6 -6 3 7 2 16 -1 19 -3 4 -6 -2 -5 -13z"/>
<path d="M3305 4170 c-3 -5 3 -10 14 -10 12 0 21 5 21 10 0 6 -6 10 -14 10 -8
0 -18 -4 -21 -10z"/>
<path d="M3360 4170 c0 -5 5 -10 10 -10 6 0 10 5 10 10 0 6 -4 10 -10 10 -5 0
-10 -4 -10 -10z"/>
<path d="M3528 4113 c6 -2 18 -2 25 0 6 3 1 5 -13 5 -14 0 -19 -2 -12 -5z"/>
<path d="M3716 3935 c-3 -10 -2 -23 4 -29 15 -15 22 -2 12 24 -8 21 -9 22 -16
5z"/>
<path d="M3765 3940 c3 -5 12 -7 20 -3 21 7 19 13 -6 13 -11 0 -18 -4 -14 -10z"/>
<path d="M3810 3940 c0 -6 7 -10 15 -10 8 0 15 2 15 4 0 2 -7 6 -15 10 -8 3
-15 1 -15 -4z"/>
<path d="M3750 3921 c0 -6 5 -13 10 -16 6 -3 10 1 10 9 0 9 -4 16 -10 16 -5 0
-10 -4 -10 -9z"/>
<path d="M3785 3910 c3 -5 11 -10 16 -10 6 0 7 5 4 10 -3 6 -11 10 -16 10 -6
0 -7 -4 -4 -10z"/>
<path d="M3875 3900 c3 -5 11 -10 16 -10 6 0 7 5 4 10 -3 6 -11 10 -16 10 -6
0 -7 -4 -4 -10z"/>
<path d="M3738 3883 c6 -2 12 -8 12 -13 0 -16 21 -63 25 -58 9 9 -25 78 -38
77 -9 0 -9 -2 1 -6z"/>
<path d="M3770 3880 c0 -5 5 -10 11 -10 5 0 7 5 4 10 -3 6 -8 10 -11 10 -2 0
-4 -4 -4 -10z"/>
<path d="M3800 3881 c0 -5 5 -13 10 -16 6 -3 10 -2 10 4 0 5 -4 13 -10 16 -5
3 -10 2 -10 -4z"/>
<path d="M3680 3860 c0 -5 6 -7 13 -4 12 4 77 -76 77 -95 0 -4 9 -16 21 -27
16 -14 22 -15 28 -5 7 10 13 10 29 2 11 -6 24 -11 27 -11 9 0 -23 50 -44 70
-9 8 -22 28 -29 44 -7 16 -15 26 -18 23 -3 -3 -1 -15 6 -26 6 -12 8 -27 4 -34
-4 -6 -4 -9 1 -5 11 10 34 -23 28 -39 -3 -7 -10 -13 -15 -13 -6 0 -8 7 -4 15
3 8 0 15 -7 15 -22 0 -72 74 -62 90 4 6 -7 10 -24 10 -17 0 -31 -4 -31 -10z"/>
<path d="M3850 3859 c0 -5 7 -9 15 -9 8 0 15 -5 15 -11 0 -5 5 -7 10 -4 6 4 8
10 5 14 -7 13 -45 21 -45 10z"/>
<path d="M3850 3831 c0 -5 5 -13 10 -16 6 -3 10 -2 10 4 0 5 -4 13 -10 16 -5
3 -10 2 -10 -4z"/>
<path d="M3900 3789 c0 -5 5 -7 10 -4 6 3 10 8 10 11 0 2 -4 4 -10 4 -5 0 -10
-5 -10 -11z"/>
<path d="M3887 3755 c-4 -8 -2 -15 3 -15 5 0 8 -6 6 -12 -1 -7 -1 -10 1 -5 3
4 9 4 15 1 5 -4 4 4 -2 17 -17 32 -17 32 -23 14z"/>
<path d="M3869 3692 c8 -16 89 -50 95 -40 1 2 -9 14 -21 28 -17 17 -22 19 -17
7 6 -16 3 -16 -30 2 -34 19 -36 20 -27 3z"/>
<path d="M3956 3693 c-6 -14 -5 -15 5 -6 7 7 10 15 7 18 -3 3 -9 -2 -12 -12z"/>
<path d="M3918 3633 c7 -3 16 -2 19 1 4 3 -2 6 -13 5 -11 0 -14 -3 -6 -6z"/>
<path d="M5685 3560 c3 -5 14 -10 23 -10 15 0 15 2 2 10 -20 13 -33 13 -25 0z"/>
<path d="M4010 3502 c0 -4 9 -13 20 -20 19 -12 20 -11 8 8 -13 20 -28 27 -28
12z"/>
<path d="M4050 3501 c0 -10 19 -25 25 -20 1 2 -3 10 -11 17 -8 7 -14 8 -14 3z"/>
<path d="M6102 3118 c5 -15 87 -18 91 -3 1 6 -20 11 -47 13 -36 2 -47 0 -44
-10z"/>
<path d="M5375 3051 c-57 -7 -75 -16 -75 -36 0 -11 -8 -13 -32 -8 -22 4 -29 3
-24 -6 6 -8 1 -8 -18 1 -14 6 -26 15 -26 20 0 5 -19 9 -42 8 -24 0 -61 2 -83
5 -34 5 -38 4 -24 -7 8 -7 18 -20 21 -29 3 -9 23 -24 43 -33 34 -16 41 -17 75
-3 35 13 38 13 51 -7 8 -12 17 -29 21 -38 11 -28 38 -21 49 12 6 17 13 30 16
30 15 0 43 -23 43 -35 0 -24 19 -27 46 -6 24 19 28 19 55 5 16 -8 34 -12 39
-9 6 3 10 1 10 -4 0 -18 58 -12 77 8 22 23 112 44 130 30 8 -8 16 -2 27 19 8
16 12 32 9 35 -3 4 2 9 11 13 42 16 8 25 -91 23 -60 -1 -110 0 -113 1 -3 2
-26 4 -52 5 -25 1 -57 4 -70 7 -12 3 -45 2 -73 -1z"/>
<path d="M4497 2829 c7 -7 15 -10 18 -7 3 3 -2 9 -12 12 -14 6 -15 5 -6 -5z"/>
<path d="M5756 2824 c-20 -19 -20 -28 -2 -44 8 -6 12 -19 9 -28 -3 -10 -2 -13
4 -6 4 6 16 14 27 17 15 6 17 3 12 -16 -4 -17 0 -30 13 -41 19 -17 22 -16 65
9 29 17 48 36 52 52 9 33 -10 45 -63 40 -31 -3 -47 0 -62 14 -25 23 -35 24
-55 3z"/>
<path d="M6065 2804 c-5 -1 -22 -5 -36 -8 -21 -5 -31 -18 -49 -60 -12 -31 -21
-59 -21 -63 1 -4 24 -6 51 -5 33 3 56 -1 72 -12 12 -9 34 -16 47 -16 14 0 35
-10 48 -22 23 -22 24 -22 54 -4 23 13 42 17 70 12 31 -5 39 -3 39 9 0 11 6 14
25 9 15 -4 25 -2 25 4 0 17 -14 22 -84 26 -102 6 -154 24 -161 57 -6 28 -61
78 -80 73z"/>
<path d="M5518 2717 c-16 -6 -28 -14 -28 -19 0 -16 37 -8 55 12 20 22 14 23
-27 7z"/>
<path d="M295 2710 c3 -5 15 -10 26 -10 10 0 19 5 19 10 0 6 -12 10 -26 10
-14 0 -23 -4 -19 -10z"/>
<path d="M4800 2621 c0 -29 -1 -30 -45 -25 -25 2 -45 1 -45 -2 0 -4 16 -24 36
-46 22 -25 34 -33 32 -22 -2 12 10 27 33 42 32 21 36 27 30 50 -11 40 -41 42
-41 3z"/>
<path d="M3795 2630 c-3 -5 -3 -15 0 -20 7 -12 45 5 45 20 0 13 -37 13 -45 0z"/>
<path d="M6545 2620 c3 -5 8 -10 11 -10 2 0 4 5 4 10 0 6 -5 10 -11 10 -5 0
-7 -4 -4 -10z"/>
<path d="M3840 2580 c0 -5 5 -10 11 -10 5 0 7 5 4 10 -3 6 -8 10 -11 10 -2 0
-4 -4 -4 -10z"/>
<path d="M5002 2560 c-8 -14 -23 -20 -47 -20 -44 0 -47 -23 -6 -40 23 -9 34
-9 53 1 12 7 52 14 88 15 36 1 66 2 68 3 1 0 -4 15 -13 31 -15 28 -19 30 -73
30 -46 0 -60 -4 -70 -20z"/>
<path d="M3847 2554 c-8 -8 1 -24 14 -24 5 0 9 7 9 15 0 15 -12 20 -23 9z"/>
<path d="M5227 2544 c-13 -13 -7 -24 14 -24 11 0 19 5 17 12 -5 14 -22 21 -31
12z"/>
<path d="M3710 2505 c0 -8 5 -15 10 -15 6 0 10 7 10 15 0 8 -4 15 -10 15 -5 0
-10 -7 -10 -15z"/>
<path d="M3450 2494 c0 -3 4 -14 10 -24 8 -14 16 -17 37 -11 15 4 29 13 31 20
3 8 0 11 -7 7 -6 -4 -11 -2 -11 3 0 6 -13 11 -30 11 -16 0 -30 -3 -30 -6z"/>
<path d="M3270 2485 c0 -5 5 -17 10 -25 5 -8 10 -10 10 -5 0 6 -5 17 -10 25
-5 8 -10 11 -10 5z"/>
<path d="M3260 2412 c0 -12 19 -26 26 -19 2 2 -2 10 -11 17 -9 8 -15 8 -15 2z"/>
<path d="M4975 2379 c-33 -11 -65 -21 -72 -21 -8 -1 -9 -7 -3 -19 8 -15 15
-16 47 -7 21 5 43 14 49 19 7 6 21 0 39 -17 27 -25 29 -25 42 -8 18 24 16 38
-5 57 -23 21 -23 21 -97 -4z"/>
<path d="M550 2329 c0 -5 5 -7 10 -4 6 3 10 8 10 11 0 2 -4 4 -10 4 -5 0 -10
-5 -10 -11z"/>
<path d="M3300 2330 c0 -5 5 -10 11 -10 5 0 7 5 4 10 -3 6 -8 10 -11 10 -2 0
-4 -4 -4 -10z"/>
<path d="M5210 2330 c0 -5 7 -10 16 -10 8 0 12 5 9 10 -3 6 -10 10 -16 10 -5
0 -9 -4 -9 -10z"/>
<path d="M578 2303 c-9 -10 -13 -24 -11 -30 3 -7 0 -13 -6 -13 -6 0 -11 -7
-11 -16 0 -13 5 -12 24 7 25 26 43 69 28 69 -5 0 -16 -8 -24 -17z"/>
<path d="M6493 2233 c-7 -2 -13 -11 -13 -19 0 -9 -7 -14 -17 -12 -16 3 -24
-11 -39 -69 -2 -7 -17 -13 -34 -13 -16 0 -30 -4 -30 -9 0 -11 25 -21 51 -21
10 0 19 -7 19 -15 0 -21 63 -20 81 1 12 14 31 14 73 -2 14 -5 16 5 16 74 l0
80 -31 6 c-36 7 -58 7 -76 -1z"/>
<path d="M3340 2216 c0 -2 7 -9 15 -16 13 -11 14 -10 9 4 -5 14 -24 23 -24 12z"/>
<path d="M6316 2205 c-3 -8 2 -21 10 -30 30 -29 44 -13 24 26 -13 23 -26 25
-34 4z"/>
<path d="M3948 2193 c7 -3 16 -2 19 1 4 3 -2 6 -13 5 -11 0 -14 -3 -6 -6z"/>
<path d="M3494 2172 c-9 -5 -8 -11 2 -20 12 -11 14 -9 14 8 0 22 0 23 -16 12z"/>
<path d="M5910 2160 c-17 -11 27 -70 53 -70 31 0 57 -20 57 -44 0 -20 5 -23
45 -24 26 0 48 5 53 12 4 7 15 17 26 23 17 9 16 12 -13 42 -16 17 -35 31 -41
31 -5 0 -10 7 -10 16 0 13 -3 14 -14 5 -8 -7 -25 -9 -41 -5 -19 5 -30 1 -40
-12 -14 -18 -15 -18 -21 3 -6 23 -34 35 -54 23z"/>
<path d="M3360 2146 c0 -2 7 -9 15 -16 13 -11 14 -10 9 4 -5 14 -24 23 -24 12z"/>
<path d="M5184 2129 c-3 -6 -13 -8 -21 -5 -8 3 -11 1 -8 -4 3 -6 15 -10 26
-10 11 0 19 -7 19 -16 0 -8 5 -12 10 -9 15 9 12 42 -5 48 -8 4 -17 2 -21 -4z"/>
<path d="M5540 2080 c0 -13 5 -20 13 -17 6 2 12 10 12 17 0 7 -6 15 -12 18 -8
2 -13 -5 -13 -18z"/>
<path d="M4401 2071 c-18 -15 -28 -18 -42 -11 -36 20 -151 1 -146 -23 1 -7 -4
-11 -12 -9 -7 1 -19 -2 -27 -9 -11 -9 -11 -15 2 -35 14 -21 21 -23 56 -18 34
6 40 4 45 -15 3 -12 16 -24 30 -27 19 -5 31 0 53 25 16 17 36 31 45 31 24 0
101 78 89 90 -21 21 -69 22 -93 1z"/>
<path d="M6177 2084 c-14 -14 -7 -25 13 -22 12 2 21 8 21 13 0 12 -24 18 -34
9z"/>
<path d="M3370 2070 c0 -5 5 -10 11 -10 5 0 7 5 4 10 -3 6 -8 10 -11 10 -2 0
-4 -4 -4 -10z"/>
<path d="M5620 2070 c0 -5 5 -10 10 -10 6 0 10 5 10 10 0 6 -4 10 -10 10 -5 0
-10 -4 -10 -10z"/>
<path d="M6246 2064 c-8 -22 -8 -24 8 -24 12 0 26 20 26 36 0 12 -29 2 -34
-12z"/>
<path d="M5385 2050 c-3 -5 1 -10 9 -10 9 0 16 5 16 10 0 6 -4 10 -9 10 -6 0
-13 -4 -16 -10z"/>
<path d="M5040 1996 c0 -9 5 -16 10 -16 6 0 10 4 10 9 0 6 -4 13 -10 16 -5 3
-10 -1 -10 -9z"/>
<path d="M5075 2000 c-9 -14 -6 -17 20 -22 13 -2 20 3 20 12 0 18 -30 26 -40
10z"/>
<path d="M5233 1983 c-16 -3 -23 -11 -23 -28 0 -33 40 -41 62 -12 10 12 18 16
18 10 0 -15 40 -18 40 -4 0 14 -42 41 -60 40 -8 -1 -25 -4 -37 -6z"/>
<path d="M3730 1969 c0 -5 5 -7 10 -4 6 3 10 8 10 11 0 2 -4 4 -10 4 -5 0 -10
-5 -10 -11z"/>
<path d="M5410 1955 c0 -28 24 -34 34 -9 8 20 -1 34 -20 34 -8 0 -14 -10 -14
-25z"/>
<path d="M5472 1969 c2 -7 10 -15 17 -17 8 -3 12 1 9 9 -2 7 -10 15 -17 17 -8
3 -12 -1 -9 -9z"/>
<path d="M3481 1954 c0 -11 3 -14 6 -6 3 7 2 16 -1 19 -3 4 -6 -2 -5 -13z"/>
<path d="M4427 1955 c3 -8 9 -12 14 -9 12 7 11 11 -5 17 -10 4 -13 1 -9 -8z"/>
<path d="M3785 1950 c-3 -5 -1 -10 4 -10 6 0 11 5 11 10 0 6 -2 10 -4 10 -3 0
-8 -4 -11 -10z"/>
<path d="M6290 1900 c0 -5 7 -10 15 -10 8 0 15 5 15 10 0 6 -7 10 -15 10 -8 0
-15 -4 -15 -10z"/>
<path d="M4187 1874 c-8 -8 1 -24 14 -24 5 0 9 7 9 15 0 15 -12 20 -23 9z"/>
<path d="M245 1760 c-4 -6 7 -10 25 -10 18 0 29 4 25 10 -3 6 -15 10 -25 10
-10 0 -22 -4 -25 -10z"/>
<path d="M4193 1724 c-12 -27 -10 -44 7 -44 4 0 8 16 8 35 0 19 -1 35 -1 35
-1 0 -7 -12 -14 -26z"/>
<path d="M210 1724 c0 -8 5 -12 10 -9 6 3 10 10 10 16 0 5 -4 9 -10 9 -5 0
-10 -7 -10 -16z"/>
<path d="M3210 1682 c0 -12 19 -26 26 -19 2 2 -2 10 -11 17 -9 8 -15 8 -15 2z"/>
<path d="M4311 1674 c0 -11 3 -14 6 -6 3 7 2 16 -1 19 -3 4 -6 -2 -5 -13z"/>
<path d="M310 1625 c0 -8 2 -15 4 -15 2 0 6 7 10 15 3 8 1 15 -4 15 -6 0 -10
-7 -10 -15z"/>
<path d="M3256 1627 c3 -10 9 -15 12 -12 3 3 0 11 -7 18 -10 9 -11 8 -5 -6z"/>
<path d="M4300 1627 c0 -8 7 -17 15 -21 8 -3 15 -2 15 3 0 5 -7 14 -15 21 -12
10 -15 10 -15 -3z"/>
<path d="M3321 1600 c0 -8 4 -22 9 -30 12 -18 12 -2 0 25 -6 13 -9 15 -9 5z"/>
<path d="M338 1569 c-10 -17 -18 -47 -18 -66 0 -30 2 -34 15 -23 17 14 20 40
5 40 -5 0 -10 7 -10 16 0 11 6 15 20 11 11 -3 20 -2 20 1 0 4 3 17 6 30 9 34
-18 28 -38 -9z"/>
<path d="M3200 1561 c0 -6 4 -13 10 -16 6 -3 7 1 4 9 -7 18 -14 21 -14 7z"/>
<path d="M3236 1548 c10 -14 21 -24 23 -22 3 3 -6 15 -18 27 l-24 22 19 -27z"/>
<path d="M6067 1509 c-16 -18 -17 -21 -1 -36 15 -16 17 -16 30 2 17 23 18 55
2 54 -7 0 -21 -9 -31 -20z"/>
<path d="M6297 1508 c-5 -18 -9 -19 -21 -9 -12 10 -19 10 -38 -4 -14 -10 -17
-16 -8 -14 30 3 39 -1 42 -23 l3 -22 16 24 c22 34 33 70 21 70 -5 0 -12 -10
-15 -22z"/>
<path d="M3106 1503 c-15 -15 -3 -44 30 -77 20 -20 41 -36 47 -36 6 0 1 9 -11
20 -12 12 -22 25 -22 30 0 6 -6 10 -14 10 -8 0 -17 7 -20 16 -5 14 -4 15 9 4
24 -20 31 -2 8 20 -12 10 -24 16 -27 13z"/>
<path d="M4451 1494 c0 -11 3 -14 6 -6 3 7 2 16 -1 19 -3 4 -6 -2 -5 -13z"/>
<path d="M5754 1495 c3 -8 1 -15 -5 -15 -6 0 -7 -5 -4 -10 5 -8 11 -7 21 1 19
16 18 39 -2 39 -10 0 -14 -6 -10 -15z"/>
<path d="M5977 1495 c-18 -13 -24 -31 -7 -20 5 3 18 -3 29 -14 27 -27 38 -8
14 23 -16 20 -22 22 -36 11z"/>
<path d="M6323 1495 c4 -8 1 -17 -4 -21 -6 -3 -9 -15 -6 -25 4 -14 0 -19 -14
-19 -10 0 -19 -4 -19 -10 0 -5 6 -10 14 -10 8 0 18 5 21 10 12 19 44 11 47
-12 5 -38 32 -27 39 15 3 20 2 37 -2 37 -4 0 -9 10 -11 21 -2 16 -11 23 -37
25 -26 3 -32 1 -28 -11z"/>
<path d="M3165 1490 c-3 -6 1 -7 9 -4 18 7 21 14 7 14 -6 0 -13 -4 -16 -10z"/>
<path d="M6145 1477 c-11 -13 -29 -26 -39 -30 -27 -11 -6 -29 33 -31 17 -1 31
-4 31 -8 0 -3 9 -4 20 -1 31 8 35 40 8 68 -28 30 -28 30 -53 2z"/>
<path d="M3391 1474 c0 -11 3 -14 6 -6 3 7 2 16 -1 19 -3 4 -6 -2 -5 -13z"/>
<path d="M4535 1480 c3 -5 11 -10 16 -10 6 0 7 5 4 10 -3 6 -11 10 -16 10 -6
0 -7 -4 -4 -10z"/>
<path d="M5895 1461 c-7 -12 12 -24 25 -16 11 7 4 25 -10 25 -5 0 -11 -4 -15
-9z"/>
<path d="M6430 1444 c-12 -31 -13 -44 -2 -44 15 0 32 24 32 47 0 31 -18 29
-30 -3z"/>
<path d="M3156 1446 c3 -9 11 -16 16 -16 13 0 5 23 -10 28 -7 2 -10 -2 -6 -12z"/>
<path d="M5350 1450 c0 -5 4 -10 9 -10 6 0 13 5 16 10 3 6 -1 10 -9 10 -9 0
-16 -4 -16 -10z"/>
<path d="M3190 1431 c0 -5 5 -13 10 -16 6 -3 10 -2 10 4 0 5 -4 13 -10 16 -5
3 -10 2 -10 -4z"/>
<path d="M5400 1431 c0 -5 7 -14 15 -21 13 -10 15 -9 15 9 0 12 -6 21 -15 21
-8 0 -15 -4 -15 -9z"/>
<path d="M3110 1422 c0 -4 5 -13 12 -20 9 -9 9 -12 0 -12 -6 0 -9 -7 -5 -16 5
-15 7 -15 15 0 5 10 5 23 -2 36 -11 21 -20 26 -20 12z"/>
<path d="M6035 1420 c3 -5 8 -10 11 -10 2 0 4 5 4 10 0 6 -5 10 -11 10 -5 0
-7 -4 -4 -10z"/>
<path d="M4570 1405 c0 -8 4 -15 10 -15 5 0 7 7 4 15 -4 8 -8 15 -10 15 -2 0
-4 -7 -4 -15z"/>
<path d="M6507 1413 c-4 -3 -7 -13 -7 -21 0 -12 3 -12 15 -2 8 7 15 16 15 21
0 11 -14 12 -23 2z"/>
<path d="M5540 1399 c0 -5 5 -7 10 -4 6 3 10 8 10 11 0 2 -4 4 -10 4 -5 0 -10
-5 -10 -11z"/>
<path d="M5890 1399 c0 -5 5 -7 10 -4 6 3 10 8 10 11 0 2 -4 4 -10 4 -5 0 -10
-5 -10 -11z"/>
<path d="M6038 1392 c-11 -2 -18 -13 -18 -28 0 -21 -4 -24 -20 -19 -23 7 -25
2 -9 -26 9 -17 13 -18 26 -7 15 12 48 78 41 82 -2 1 -11 1 -20 -2z"/>
<path d="M6101 1384 c0 -11 3 -14 6 -6 3 7 2 16 -1 19 -3 4 -6 -2 -5 -13z"/>
<path d="M6127 1394 c-13 -13 -7 -24 14 -24 11 0 19 5 17 12 -5 14 -22 21 -31
12z"/>
<path d="M3151 1380 c0 -8 13 -25 30 -38 16 -13 29 -20 29 -15 -1 11 -30 49
-30 38 0 -5 -7 0 -15 11 -11 14 -14 15 -14 4z"/>
<path d="M5292 1379 c2 -7 10 -15 17 -17 8 -3 12 1 9 9 -2 7 -10 15 -17 17 -8
3 -12 -1 -9 -9z"/>
<path d="M5965 1380 c-3 -5 -1 -10 4 -10 6 0 11 5 11 10 0 6 -2 10 -4 10 -3 0
-8 -4 -11 -10z"/>
<path d="M6430 1382 c-8 -4 -16 -17 -17 -29 -4 -31 40 -31 62 -1 14 21 14 23
-2 30 -22 8 -24 8 -43 0z"/>
<path d="M6549 1367 c-29 -26 -27 -47 5 -47 25 0 53 41 42 59 -10 15 -17 13
-47 -12z"/>
<path d="M5228 1369 c-10 -5 -18 -17 -18 -24 0 -8 -4 -15 -10 -15 -5 0 -10 -6
-10 -14 0 -9 7 -12 18 -9 20 5 59 -31 44 -41 -5 -3 -15 1 -22 9 -6 7 -18 11
-26 8 -27 -10 28 -41 69 -38 20 2 37 -1 37 -6 0 -5 9 -9 19 -9 11 0 22 -8 24
-17 3 -13 5 -11 6 6 1 19 4 21 15 12 10 -9 15 -8 19 3 6 16 -34 38 -100 56
-41 10 -56 31 -33 45 14 9 12 45 -2 45 -7 0 -21 -5 -30 -11z"/>
<path d="M5620 1355 c0 -17 2 -18 24 -9 23 9 20 24 -4 24 -11 0 -20 -7 -20
-15z"/>
<path d="M6352 1358 c7 -20 48 -23 48 -4 0 11 -9 16 -26 16 -16 0 -24 -5 -22
-12z"/>
<path d="M3124 1334 c3 -9 6 -22 6 -30 0 -8 10 -14 23 -14 20 1 21 2 5 14 -10
7 -18 21 -18 30 0 9 -5 16 -11 16 -6 0 -8 -7 -5 -16z"/>
<path d="M5120 1340 c0 -5 5 -10 10 -10 6 0 10 5 10 10 0 6 -4 10 -10 10 -5 0
-10 -4 -10 -10z"/>
<path d="M5473 1331 c-4 -14 -9 -18 -17 -12 -21 17 -58 17 -70 -1 -15 -24 19
-49 59 -43 16 2 36 -1 44 -8 12 -10 14 -9 8 6 -10 25 1 41 18 27 11 -9 16 -6
25 11 10 17 9 23 -1 30 -9 5 -17 3 -22 -6 -4 -8 -13 -15 -18 -15 -6 0 -8 4 -4
9 3 5 0 13 -6 16 -6 4 -13 -2 -16 -14z"/>
<path d="M5680 1335 c0 -8 -9 -15 -20 -15 -11 0 -20 -4 -20 -8 0 -11 69 -2 76
9 8 14 24 10 24 -6 0 -8 5 -15 10 -15 20 0 10 38 -12 44 -38 10 -58 7 -58 -9z"/>
<path d="M3222 1315 c0 -16 2 -22 5 -12 2 9 2 23 0 30 -3 6 -5 -1 -5 -18z"/>
<path d="M5770 1326 c0 -8 4 -17 10 -21 5 -3 7 -12 3 -20 -3 -9 1 -15 10 -15
14 0 30 47 20 62 -8 14 -43 8 -43 -6z"/>
<path d="M4641 1314 c0 -11 3 -14 6 -6 3 7 2 16 -1 19 -3 4 -6 -2 -5 -13z"/>
<path d="M5933 1315 c-9 -24 1 -27 15 -5 8 13 8 20 2 20 -6 0 -13 -7 -17 -15z"/>
<path d="M3191 1300 c14 -31 19 -36 19 -24 0 6 -7 19 -16 30 -14 18 -14 18 -3
-6z"/>
<path d="M4920 1294 c-16 -40 -12 -44 23 -27 43 22 43 21 21 38 -27 20 -33 19
-44 -11z"/>
<path d="M4991 1304 c0 -11 3 -14 6 -6 3 7 2 16 -1 19 -3 4 -6 -2 -5 -13z"/>
<path d="M4691 1292 c0 -13 6 -30 14 -38 13 -14 15 -13 15 5 0 12 -4 21 -9 21
-5 0 -12 8 -14 18 -3 12 -5 11 -6 -6z"/>
<path d="M6295 1290 c3 -5 10 -10 16 -10 5 0 9 5 9 10 0 6 -7 10 -16 10 -8 0
-12 -4 -9 -10z"/>
<path d="M6145 1281 c-3 -5 -1 -12 5 -16 5 -3 10 1 10 9 0 18 -6 21 -15 7z"/>
<path d="M3170 1270 c0 -6 7 -13 15 -16 8 -4 15 -12 15 -19 0 -8 5 -17 12 -21
6 -4 9 -3 7 2 -3 5 -11 21 -19 37 -13 27 -30 36 -30 17z"/>
<path d="M4984 1268 c-8 -12 22 -38 43 -38 17 0 7 23 -17 38 -14 8 -21 9 -26
0z"/>
<path d="M3090 1257 c0 -8 7 -17 15 -21 8 -3 15 -2 15 3 0 5 -7 14 -15 21 -12
10 -15 10 -15 -3z"/>
<path d="M6266 1261 c-4 -7 -5 -15 -2 -18 9 -9 19 4 14 18 -4 11 -6 11 -12 0z"/>
<path d="M3155 1240 c-3 -5 -1 -10 4 -10 6 0 11 5 11 10 0 6 -2 10 -4 10 -3 0
-8 -4 -11 -10z"/>
<path d="M4730 1234 c0 -8 5 -12 10 -9 6 3 10 10 10 16 0 5 -4 9 -10 9 -5 0
-10 -7 -10 -16z"/>
<path d="M6470 1220 c0 -5 5 -10 11 -10 5 0 7 5 4 10 -3 6 -8 10 -11 10 -2 0
-4 -4 -4 -10z"/>
<path d="M6532 1200 c0 -19 4 -30 13 -30 18 0 32 23 17 28 -7 2 -12 10 -12 18
0 28 -17 13 -18 -16z"/>
<path d="M5545 1190 c-3 -5 -1 -10 4 -10 6 0 11 5 11 10 0 6 -2 10 -4 10 -3 0
-8 -4 -11 -10z"/>
<path d="M5418 1183 c7 -3 16 -2 19 1 4 3 -2 6 -13 5 -11 0 -14 -3 -6 -6z"/>
<path d="M4810 1170 c0 -5 5 -10 11 -10 5 0 7 5 4 10 -3 6 -8 10 -11 10 -2 0
-4 -4 -4 -10z"/>
<path d="M5490 1176 c0 -2 9 -6 20 -9 11 -3 20 -1 20 4 0 5 -9 9 -20 9 -11 0
-20 -2 -20 -4z"/>
<path d="M5750 1160 c-8 -5 -18 -6 -22 -4 -5 3 -23 2 -41 -2 l-32 -7 35 -15
c19 -8 50 -16 68 -18 28 -3 32 0 32 20 0 26 -20 39 -40 26z"/>
<path d="M6511 1143 c-14 -11 -14 -12 2 -13 9 0 17 -7 17 -15 0 -21 17 -19 30
5 6 11 17 20 25 20 8 0 15 4 15 9 0 14 -70 9 -89 -6z"/>
<path d="M5990 1141 c0 -5 9 -7 20 -4 11 3 20 7 20 9 0 2 -9 4 -20 4 -11 0
-20 -4 -20 -9z"/>
<path d="M5235 1120 c-3 -6 1 -7 9 -4 18 7 21 14 7 14 -6 0 -13 -4 -16 -10z"/>
<path d="M2864 1063 c2 -21 10 -51 18 -67 l15 -29 7 26 c7 28 -1 57 -15 57 -5
0 -9 9 -9 19 0 11 -4 23 -10 26 -6 3 -8 -9 -6 -32z m36 -51 c0 -8 -1 -13 -3
-11 -1 2 -9 12 -16 22 -12 15 -12 17 3 11 9 -3 16 -13 16 -22z"/>
<path d="M5790 1060 c0 -5 5 -10 10 -10 6 0 10 5 10 10 0 6 -4 10 -10 10 -5 0
-10 -4 -10 -10z"/>
<path d="M6198 1048 c17 -8 26 -8 34 0 9 9 4 12 -22 11 -33 0 -34 -1 -12 -11z"/>
<path d="M5865 1041 c-27 -6 -28 -8 -11 -17 19 -11 66 2 66 19 0 8 -12 8 -55
-2z"/>
<path d="M6272 1020 c-10 -16 -10 -20 0 -20 22 0 41 17 34 29 -10 16 -20 14
-34 -9z"/>
<path d="M6137 1023 c-4 -3 -7 -11 -7 -17 0 -6 5 -5 12 2 6 6 9 14 7 17 -3 3
-9 2 -12 -2z"/>
<path d="M2920 1015 c-1 -5 -3 -19 -5 -30 -6 -26 4 -55 17 -55 6 0 8 10 4 24
-3 14 -2 28 4 31 5 3 10 11 10 16 0 6 -4 8 -9 5 -5 -4 -12 0 -14 6 -3 7 -6 9
-7 3z"/>
<path d="M2986 997 c3 -10 9 -15 12 -12 3 3 0 11 -7 18 -10 9 -11 8 -5 -6z"/>
<path d="M4945 999 c-4 -6 -5 -12 -2 -15 2 -3 7 2 10 11 7 17 1 20 -8 4z"/>
<path d="M5317 999 c7 -7 15 -10 18 -7 3 3 -2 9 -12 12 -14 6 -15 5 -6 -5z"/>
<path d="M2952 988 c-17 -17 -15 -27 6 -24 9 2 16 6 15 10 -6 23 -9 26 -21 14z"/>
<path d="M3106 992 c-3 -5 1 -9 9 -9 8 0 15 4 15 9 0 4 -4 8 -9 8 -6 0 -12 -4
-15 -8z"/>
<path d="M5382 970 c0 -14 2 -19 5 -12 2 6 2 18 0 25 -3 6 -5 1 -5 -13z"/>
<path d="M6327 973 c-14 -13 -6 -25 13 -20 11 3 23 1 26 -4 3 -5 10 -7 15 -3
14 8 -9 34 -31 34 -9 0 -20 -3 -23 -7z"/>
<path d="M149 947 c-8 -7 -27 -17 -42 -21 -15 -3 -27 -13 -27 -22 0 -9 6 -14
13 -11 44 19 67 34 72 46 8 20 0 24 -16 8z"/>
<path d="M2950 936 c0 -8 5 -18 10 -21 6 -3 10 1 10 9 0 8 -4 18 -10 21 -5 3
-10 -1 -10 -9z"/>
<path d="M5821 874 c0 -11 3 -14 6 -6 3 7 2 16 -1 19 -3 4 -6 -2 -5 -13z"/>
<path d="M5256 845 c-3 -8 -1 -15 4 -15 6 0 10 7 10 15 0 8 -2 15 -4 15 -2 0
-6 -7 -10 -15z"/>
<path d="M6569 530 c-13 -10 -19 -19 -13 -20 6 0 19 9 29 20 23 26 14 26 -16
0z"/>
<path d="M310 519 c0 -5 5 -7 10 -4 6 3 10 8 10 11 0 2 -4 4 -10 4 -5 0 -10
-5 -10 -11z"/>
<path d="M5835 510 c-3 -5 1 -10 10 -10 9 0 13 5 10 10 -3 6 -8 10 -10 10 -2
0 -7 -4 -10 -10z"/>
<path d="M5778 496 c-21 -16 -23 -32 -5 -42 6 -4 9 -3 4 1 -4 5 0 19 8 32 18
26 17 27 -7 9z"/>
<path d="M227 469 c14 -28 33 -39 33 -19 0 6 -5 10 -11 10 -6 0 -8 8 -5 18 4
12 0 18 -13 19 -17 1 -18 0 -4 -28z"/>
<path d="M5869 478 c-12 -22 -11 -22 7 -8 10 8 20 15 22 16 2 1 -1 5 -7 8 -5
4 -15 -4 -22 -16z"/>
<path d="M6499 473 l-24 -26 31 16 c17 9 34 13 38 10 3 -4 6 -2 6 4 0 23 -29
20 -51 -4z"/>
<path d="M6570 490 c0 -5 7 -10 16 -10 8 0 12 5 9 10 -3 6 -10 10 -16 10 -5 0
-9 -4 -9 -10z"/>
<path d="M75 470 c-8 -13 3 -30 18 -30 7 0 6 4 -3 10 -13 9 -13 11 0 20 9 6
10 10 3 10 -6 0 -15 -4 -18 -10z"/>
<path d="M181 472 c-1 -9 -8 -11 -22 -7 -15 5 -19 4 -15 -4 4 -6 16 -11 26
-11 10 0 22 -4 25 -10 3 -5 12 -10 18 -10 7 1 6 5 -4 13 -9 7 -18 19 -22 27
-4 10 -6 11 -6 2z"/>
<path d="M5325 440 c3 -5 8 -10 11 -10 2 0 4 5 4 10 0 6 -5 10 -11 10 -5 0 -7
-4 -4 -10z"/>
<path d="M5393 422 c-1 -22 0 -24 9 -8 6 10 6 22 2 26 -5 5 -10 -3 -11 -18z"/>
<path d="M5197 380 c-15 -14 -16 -20 -5 -26 7 -4 10 -4 6 1 -4 4 0 14 10 21 9
7 15 14 12 17 -3 2 -13 -4 -23 -13z"/>
<path d="M5246 387 c3 -10 9 -15 12 -12 3 3 0 11 -7 18 -10 9 -11 8 -5 -6z"/>
<path d="M5130 374 c0 -11 -4 -24 -10 -30 -6 -6 -3 -10 10 -10 16 0 18 5 13
26 -8 33 -13 38 -13 14z"/>
<path d="M6515 380 c-3 -5 1 -10 9 -10 9 0 16 5 16 10 0 6 -4 10 -9 10 -6 0
-13 -4 -16 -10z"/>
<path d="M4492 340 c0 -14 2 -19 5 -12 2 6 2 18 0 25 -3 6 -5 1 -5 -13z"/>
<path d="M6370 340 c0 -5 -7 -10 -16 -10 -10 0 -13 -6 -10 -18 5 -13 -1 -22
-19 -30 -14 -6 -25 -17 -25 -23 0 -8 4 -8 15 1 10 9 15 9 15 1 0 -6 -4 -11
-10 -11 -15 0 -12 -14 9 -37 11 -12 17 -23 14 -26 -3 -3 4 -3 16 0 22 6 27 18
11 28 -5 3 -7 12 -3 20 3 8 0 15 -6 15 -6 0 -11 4 -11 10 0 5 7 7 15 4 11 -5
13 -2 9 9 -9 24 5 41 19 25 7 -7 11 -11 10 -9 -2 2 1 9 6 15 6 7 0 17 -15 29
-13 10 -24 13 -24 7z"/>
<path d="M6530 341 c0 -6 4 -13 10 -16 6 -3 7 1 4 9 -7 18 -14 21 -14 7z"/>
<path d="M5531 331 c-8 -5 -9 -11 -3 -15 5 -3 12 1 16 9 6 17 6 18 -13 6z"/>
<path d="M4731 314 c0 -11 3 -14 6 -6 3 7 2 16 -1 19 -3 4 -6 -2 -5 -13z"/>
<path d="M5225 319 c-4 -6 -5 -13 -2 -16 7 -7 27 6 27 18 0 12 -17 12 -25 -2z"/>
<path d="M5685 320 c3 -5 8 -10 11 -10 2 0 4 5 4 10 0 6 -5 10 -11 10 -5 0 -7
-4 -4 -10z"/>
<path d="M5736 321 c-4 -7 -5 -15 -2 -18 9 -9 19 4 14 18 -4 11 -6 11 -12 0z"/>
<path d="M4660 310 c0 -5 5 -10 11 -10 5 0 7 5 4 10 -3 6 -8 10 -11 10 -2 0
-4 -4 -4 -10z"/>
<path d="M5295 310 c-3 -5 1 -10 10 -10 9 0 13 5 10 10 -3 6 -8 10 -10 10 -2
0 -7 -4 -10 -10z"/>
<path d="M6558 314 c-7 -7 21 -64 32 -64 3 0 5 11 5 25 0 14 -5 25 -12 25 -6
0 -13 5 -15 11 -2 5 -7 7 -10 3z"/>
<path d="M4371 294 c0 -11 3 -14 6 -6 3 7 2 16 -1 19 -3 4 -6 -2 -5 -13z"/>
<path d="M5567 295 c3 -8 9 -12 14 -9 12 7 11 11 -5 17 -10 4 -13 1 -9 -8z"/>
<path d="M6447 287 c-15 -18 -16 -22 -3 -25 8 -2 17 -13 19 -25 4 -18 5 -17 6
6 0 15 5 27 10 27 12 0 7 33 -5 37 -5 1 -17 -7 -27 -20z"/>
<path d="M6520 284 c0 -8 6 -22 14 -29 12 -12 15 -12 20 1 3 9 0 22 -8 30 -19
18 -26 18 -26 -2z"/>
<path d="M4480 286 c0 -2 8 -10 18 -17 15 -13 16 -12 3 4 -13 16 -21 21 -21
13z"/>
<path d="M6090 274 c0 -8 5 -12 10 -9 6 3 10 10 10 16 0 5 -4 9 -10 9 -5 0
-10 -7 -10 -16z"/>
<path d="M10 260 c0 -5 5 -10 11 -10 5 0 7 5 4 10 -3 6 -8 10 -11 10 -2 0 -4
-4 -4 -10z"/>
<path d="M5010 259 c0 -5 5 -7 10 -4 6 3 10 8 10 11 0 2 -4 4 -10 4 -5 0 -10
-5 -10 -11z"/>
<path d="M4006 245 c-3 -8 -1 -15 4 -15 6 0 10 7 10 15 0 8 -2 15 -4 15 -2 0
-6 -7 -10 -15z"/>
<path d="M4375 251 c-3 -5 -1 -12 5 -16 5 -3 10 1 10 9 0 18 -6 21 -15 7z"/>
<path d="M5520 250 c0 -5 5 -10 10 -10 6 0 10 5 10 10 0 6 -4 10 -10 10 -5 0
-10 -4 -10 -10z"/>
<path d="M5800 249 c0 -5 -4 -7 -10 -4 -5 3 -10 2 -10 -3 0 -18 29 -21 33 -4
3 12 5 11 6 -5 0 -13 5 -23 11 -23 5 0 7 7 4 15 -5 11 -1 14 12 9 11 -3 8 1
-6 10 -30 18 -40 20 -40 5z"/>
<path d="M4257 243 c-11 -10 -8 -20 8 -27 10 -4 15 1 15 14 0 20 -11 26 -23
13z"/>
<path d="M4785 239 c-4 -6 -5 -12 -2 -15 2 -3 7 2 10 11 7 17 1 20 -8 4z"/>
<path d="M4806 234 c-9 -24 -2 -26 12 -4 7 11 8 20 3 20 -5 0 -12 -7 -15 -16z"/>
<path d="M5611 222 c1 -15 -2 -36 -7 -47 -8 -19 -7 -19 10 -2 20 20 40 13 32
-12 -4 -9 3 -5 14 9 11 14 20 21 20 15 0 -5 4 -4 9 4 17 26 -7 56 -45 58 -31
1 -34 -1 -33 -25z"/>
<path d="M5943 243 c-15 -5 -17 -23 -4 -23 5 0 11 7 15 15 3 8 4 15 3 14 -1 0
-8 -3 -14 -6z"/>
<path d="M6280 242 c0 -5 7 -15 15 -22 8 -7 15 -8 15 -2 0 5 -7 15 -15 22 -8
7 -15 8 -15 2z"/>
<path d="M4098 220 c3 -8 4 -23 4 -33 0 -9 3 -15 9 -12 5 4 9 13 9 21 0 8 5
14 10 14 6 0 10 5 10 11 0 6 -9 9 -20 6 -10 -3 -21 -2 -23 2 -2 3 -2 -1 1 -9z"/>
<path d="M4555 231 c-3 -5 -1 -12 5 -16 5 -3 10 1 10 9 0 18 -6 21 -15 7z"/>
<path d="M5536 225 c-8 -8 -19 -15 -24 -15 -17 0 -34 -29 -28 -46 5 -13 9 -14
21 -4 12 10 15 9 15 -4 0 -9 5 -16 10 -16 6 0 9 -5 8 -11 -2 -6 2 -13 7 -15 6
-3 12 9 13 26 2 22 -2 30 -13 30 -9 0 -13 5 -10 10 9 15 24 3 39 -33 l14 -32
-3 37 c-2 21 1 40 6 43 5 4 9 13 9 22 0 12 -3 13 -15 3 -8 -6 -19 -9 -26 -5
-8 6 -7 10 2 16 9 6 10 9 2 9 -6 0 -18 -7 -27 -15z"/>
<path d="M6206 231 c-3 -5 1 -11 9 -14 9 -4 12 -1 8 9 -6 16 -10 17 -17 5z"/>
<path d="M3607 219 c7 -7 15 -10 18 -7 3 3 -2 9 -12 12 -14 6 -15 5 -6 -5z"/>
<path d="M3645 208 c4 -33 4 -34 19 -13 15 22 12 35 -8 35 -8 0 -12 -9 -11
-22z"/>
<path d="M3950 220 c0 -5 5 -10 11 -10 5 0 7 5 4 10 -3 6 -8 10 -11 10 -2 0
-4 -4 -4 -10z"/>
<path d="M4177 216 c-3 -7 0 -19 6 -26 9 -9 9 -14 1 -17 -6 -2 -20 -11 -30
-19 -10 -9 -14 -13 -7 -10 6 4 14 -2 16 -11 4 -14 5 -13 6 5 1 15 7 22 21 22
23 0 27 28 6 36 -8 3 -12 12 -9 20 3 8 3 14 0 14 -3 0 -7 -6 -10 -14z"/>
<path d="M4680 214 c0 -14 3 -14 15 -4 8 7 15 14 15 16 0 2 -7 4 -15 4 -8 0
-15 -7 -15 -16z"/>
<path d="M6250 220 c-8 -5 -11 -10 -6 -10 5 0 3 -7 -4 -15 -11 -13 -14 -13
-27 1 -9 8 -21 13 -29 10 -7 -3 -15 0 -18 7 -2 7 -4 0 -3 -15 2 -38 52 -57 77
-30 13 14 34 63 27 62 -1 0 -9 -5 -17 -10z"/>
<path d="M3796 211 c-4 -7 -5 -15 -2 -18 9 -9 19 4 14 18 -4 11 -6 11 -12 0z"/>
<path d="M5967 213 c-28 -4 -28 -5 -11 -24 19 -21 13 -24 -18 -8 -18 10 -20 9
-15 -6 4 -9 7 -18 7 -21 0 -7 35 9 53 24 21 19 35 8 17 -13 -11 -13 -10 -14 4
-9 20 8 21 44 0 44 -8 0 -12 5 -9 10 3 6 5 9 3 9 -2 -1 -16 -4 -31 -6z"/>
<path d="M6040 216 c0 -8 31 -36 40 -36 4 0 6 9 3 20 -4 16 -43 30 -43 16z"/>
<path d="M170 203 c5 -2 8 -9 4 -14 -3 -5 0 -9 6 -9 15 0 7 23 -8 26 -7 1 -8
0 -2 -3z"/>
<path d="M4470 200 c0 -5 5 -10 10 -10 6 0 10 5 10 10 0 6 -4 10 -10 10 -5 0
-10 -4 -10 -10z"/>
<path d="M5852 195 c-7 -8 -12 -17 -12 -20 1 -23 -2 -26 -15 -21 -38 15 -48
16 -22 1 29 -17 37 -31 12 -21 -8 3 -15 1 -15 -4 0 -15 30 -12 36 4 3 8 13 12
23 9 18 -5 51 20 51 38 0 14 -11 11 -27 -8 -13 -16 -14 -16 -8 10 6 30 -3 34
-23 12z"/>
<path d="M6103 203 c-7 -2 -9 -11 -6 -20 5 -13 2 -15 -15 -11 -18 5 -22 2 -22
-18 0 -24 1 -24 25 -8 14 9 25 26 25 38 0 17 2 18 10 6 6 -9 10 -10 10 -3 0
15 -11 22 -27 16z"/>
<path d="M6276 196 c6 -15 34 -30 41 -22 5 5 -26 36 -37 36 -5 0 -7 -6 -4 -14z"/>
<path d="M4320 166 c0 -8 -8 -16 -17 -18 -16 -3 -15 -5 2 -9 17 -5 21 -1 23
17 1 13 0 24 -3 24 -3 0 -5 -6 -5 -14z"/>
<path d="M4693 165 c0 -8 4 -12 9 -9 5 3 6 10 3 15 -9 13 -12 11 -12 -6z"/>
<path d="M5293 158 c1 -7 -7 -12 -18 -13 -24 0 -28 -36 -5 -43 12 -4 13 -2 3
9 -20 21 -15 29 17 25 26 -3 28 -1 19 15 -11 21 -20 25 -16 7z"/>
<path d="M5690 150 c0 -11 2 -20 4 -20 2 0 6 9 9 20 3 11 1 20 -4 20 -5 0 -9
-9 -9 -20z"/>
<path d="M6471 146 c-1 -20 -5 -27 -15 -23 -14 6 -32 -21 -21 -31 3 -3 5 0 5
6 0 7 5 12 10 12 6 0 10 -7 10 -15 0 -8 5 -15 10 -15 17 0 22 25 12 61 -10 34
-10 34 -11 5z"/>
<path d="M2861 144 c0 -11 3 -14 6 -6 3 7 2 16 -1 19 -3 4 -6 -2 -5 -13z"/>
<path d="M6492 148 c5 -15 28 -23 28 -10 0 5 -7 13 -16 16 -10 4 -14 1 -12 -6z"/>
<path d="M4184 139 c-3 -6 -1 -16 5 -22 6 -6 11 -9 12 -6 0 2 2 12 4 22 4 19
-10 23 -21 6z"/>
<path d="M4345 140 c3 -5 8 -10 11 -10 2 0 4 5 4 10 0 6 -5 10 -11 10 -5 0 -7
-4 -4 -10z"/>
<path d="M4860 128 c0 -19 2 -20 10 -8 13 19 13 30 0 30 -5 0 -10 -10 -10 -22z"/>
<path d="M4895 140 c-3 -6 1 -7 9 -4 18 7 21 14 7 14 -6 0 -13 -4 -16 -10z"/>
<path d="M5465 141 c-3 -6 -2 -11 4 -11 6 0 8 -6 5 -14 -3 -8 -1 -23 6 -33 9
-16 10 -15 4 6 -4 16 -3 21 5 17 7 -5 10 1 8 15 -4 25 -22 36 -32 20z"/>
<path d="M5656 143 c-11 -11 -6 -23 9 -23 8 0 15 4 15 9 0 13 -16 22 -24 14z"/>
<path d="M6090 140 c-20 -12 -10 -19 14 -10 11 3 15 9 10 13 -6 3 -16 2 -24
-3z"/>
<path d="M286 124 c-5 -12 -2 -15 10 -10 8 3 18 6 20 6 2 0 4 5 4 10 0 16 -27
11 -34 -6z"/>
<path d="M3216 128 c-9 -5 -16 -22 -16 -40 0 -30 1 -31 15 -12 12 16 14 17 15
3 0 -20 21 -29 58 -28 17 1 21 3 10 6 -10 2 -18 8 -18 13 0 10 58 -7 79 -24
12 -9 13 -7 8 7 -4 10 -7 21 -7 23 0 3 -4 2 -10 -1 -5 -3 -10 3 -10 14 0 14
-9 23 -25 27 -14 3 -25 9 -25 13 0 11 -55 9 -74 -1z m97 -35 c-7 -2 -19 -2
-25 0 -7 3 -2 5 12 5 14 0 19 -2 13 -5z"/>
<path d="M3855 130 c3 -5 8 -10 11 -10 2 0 4 5 4 10 0 6 -5 10 -11 10 -5 0 -7
-4 -4 -10z"/>
<path d="M4771 124 c-1 -14 7 -24 19 -27 13 -3 20 0 20 9 0 8 -6 14 -14 14 -8
0 -17 6 -19 13 -3 6 -6 2 -6 -9z"/>
<path d="M6535 129 c-11 -17 1 -21 15 -4 8 9 8 15 2 15 -6 0 -14 -5 -17 -11z"/>
<path d="M185 120 c-3 -5 -2 -10 4 -10 5 0 13 5 16 10 3 6 2 10 -4 10 -5 0
-13 -4 -16 -10z"/>
<path d="M4930 121 c0 -5 5 -13 10 -16 6 -3 10 -2 10 4 0 5 -4 13 -10 16 -5 3
-10 2 -10 -4z"/>
<path d="M4965 120 c-3 -5 -1 -10 4 -10 6 0 11 5 11 10 0 6 -2 10 -4 10 -3 0
-8 -4 -11 -10z"/>
<path d="M5136 121 c-7 -11 3 -41 13 -41 4 0 8 11 9 25 2 25 -11 34 -22 16z"/>
<path d="M5196 113 c-7 -18 14 -37 27 -24 9 9 -1 41 -13 41 -4 0 -11 -8 -14
-17z"/>
<path d="M4605 110 c3 -5 8 -10 11 -10 2 0 4 5 4 10 0 6 -5 10 -11 10 -5 0 -7
-4 -4 -10z"/>
<path d="M4660 105 c12 -15 30 -12 30 6 0 5 -10 9 -21 9 -18 0 -19 -2 -9 -15z"/>
<path d="M5294 105 c4 -24 16 -30 16 -7 0 12 -4 22 -9 22 -5 0 -8 -7 -7 -15z"/>
<path d="M218 103 c7 -3 16 -2 19 1 4 3 -2 6 -13 5 -11 0 -14 -3 -6 -6z"/>
<path d="M3390 100 c0 -5 5 -10 11 -10 5 0 7 5 4 10 -3 6 -8 10 -11 10 -2 0
-4 -4 -4 -10z"/>
<path d="M4988 103 c-10 -2 -18 -9 -18 -15 0 -5 7 -7 16 -4 9 3 20 6 25 6 5 0
9 5 9 10 0 10 -3 11 -32 3z"/>
<path d="M5044 83 c-13 -20 -13 -23 1 -23 8 0 15 5 15 11 0 5 4 7 10 4 11 -7
50 11 50 23 0 4 -14 8 -30 7 -21 0 -36 -8 -46 -22z"/>
<path d="M3850 89 c0 -5 5 -7 10 -4 6 3 10 8 10 11 0 2 -4 4 -10 4 -5 0 -10
-5 -10 -11z"/>
<path d="M4890 96 c0 -2 8 -10 18 -17 15 -13 16 -12 3 4 -13 16 -21 21 -21 13z"/>
<path d="M266 81 c-4 -6 -2 -19 6 -28 7 -9 12 -18 10 -20 -5 -6 16 -38 21 -33
3 3 -3 25 -13 49 -10 28 -20 40 -24 32z"/>
<path d="M6575 60 c-3 -5 -2 -10 4 -10 5 0 13 5 16 10 3 6 2 10 -4 10 -5 0
-13 -4 -16 -10z"/>
<path d="M216 45 c-3 -8 -1 -15 4 -15 6 0 10 7 10 15 0 8 -2 15 -4 15 -2 0 -6
-7 -10 -15z"/>
<path d="M3171 44 c0 -11 3 -14 6 -6 3 7 2 16 -1 19 -3 4 -6 -2 -5 -13z"/>
<path d="M3460 50 c0 -5 5 -10 11 -10 5 0 7 5 4 10 -3 6 -8 10 -11 10 -2 0 -4
-4 -4 -10z"/>
<path d="M10 40 c-12 -7 -10 -9 7 -7 12 0 19 5 17 9 -6 10 -6 10 -24 -2z"/>
<path d="M70 35 c-8 -9 -8 -15 -2 -15 12 0 26 19 19 26 -2 2 -10 -2 -17 -11z"/>
<path d="M3526 35 c-3 -9 0 -15 9 -15 8 0 15 7 15 15 0 8 -4 15 -9 15 -5 0
-11 -7 -15 -15z"/>
<path d="M3695 39 c-4 -6 -5 -12 -2 -15 2 -3 7 2 10 11 7 17 1 20 -8 4z"/>
<path d="M4450 39 c0 -5 5 -7 10 -4 6 3 10 8 10 11 0 2 -4 4 -10 4 -5 0 -10
-5 -10 -11z"/>
<path d="M3040 29 c0 -5 5 -7 10 -4 6 3 10 8 10 11 0 2 -4 4 -10 4 -5 0 -10
-5 -10 -11z"/>
<path d="M3620 30 c0 -5 5 -10 10 -10 6 0 10 5 10 10 0 6 -4 10 -10 10 -5 0
-10 -4 -10 -10z"/>
<path d="M3665 30 c3 -5 8 -10 11 -10 2 0 4 5 4 10 0 6 -5 10 -11 10 -5 0 -7
-4 -4 -10z"/>
<path d="M4470 25 c-17 -20 -5 -32 15 -15 10 8 15 9 15 1 0 -6 5 -11 10 -11
16 0 11 27 -6 34 -21 8 -20 8 -34 -9z"/>
<path d="M111 14 c0 -11 3 -14 6 -6 3 7 2 16 -1 19 -3 4 -6 -2 -5 -13z"/>
<path d="M160 16 c0 -9 5 -16 10 -16 6 0 10 4 10 9 0 6 -4 13 -10 16 -5 3 -10
-1 -10 -9z"/>
<path d="M2920 15 c-10 -12 -10 -15 4 -15 9 0 16 7 16 15 0 8 -2 15 -4 15 -2
0 -9 -7 -16 -15z"/>
<path d="M3560 20 c0 -5 5 -10 10 -10 6 0 10 5 10 10 0 6 -4 10 -10 10 -5 0
-10 -4 -10 -10z"/>
<path d="M0 10 c0 -5 5 -10 10 -10 6 0 10 5 10 10 0 6 -4 10 -10 10 -5 0 -10
-4 -10 -10z"/>
<path d="M3455 10 c-3 -5 -1 -10 4 -10 6 0 11 5 11 10 0 6 -2 10 -4 10 -3 0
-8 -4 -11 -10z"/>
</g>
</svg>
