<?xml version="1.0" standalone="no"?>
<!DOCTYPE svg PUBLIC "-//W3C//DTD SVG 20010904//EN"
 "http://www.w3.org/TR/2001/REC-SVG-20010904/DTD/svg10.dtd">
<svg version="1.0" xmlns="http://www.w3.org/2000/svg"
 width="956.000000pt" height="956.000000pt" viewBox="0 0 956.000000 956.000000"
 preserveAspectRatio="xMidYMid meet">
<metadata>
Created by potrace 1.14, written by Peter Selinger 2001-2017
</metadata>
<g transform="translate(0.000000,956.000000) scale(0.100000,-0.100000)"
fill="#000000" stroke="none">
<path d="M0 4840 c0 -3306 3 -4720 11 -4720 5 0 53 26 106 58 124 74 113 68
232 137 56 33 117 69 135 80 18 11 84 51 147 89 63 38 138 84 166 103 29 19
67 41 85 49 18 8 56 28 83 44 58 34 191 100 202 100 4 1 26 9 48 20 22 11 47
19 55 20 9 0 25 7 37 15 25 17 108 45 193 65 30 7 60 16 65 20 10 8 123 42
196 61 79 19 226 72 267 96 24 13 64 45 90 71 26 26 64 60 85 75 82 62 225
217 199 217 -13 0 -14 78 0 103 9 17 17 19 65 13 66 -8 113 11 183 74 25 22
50 40 57 40 6 0 19 10 27 22 16 22 92 78 106 78 4 0 11 -11 14 -25 4 -14 10
-24 15 -21 4 3 9 -18 10 -47 1 -29 6 -54 12 -55 5 -2 9 -17 9 -34 0 -36 27
-69 40 -47 5 7 10 11 12 9 2 -3 11 -15 21 -26 12 -14 19 -45 23 -90 3 -38 7
-74 9 -81 7 -20 -13 -25 -24 -6 -9 17 -11 17 -25 -2 -8 -11 -28 -35 -44 -54
-30 -32 -134 -231 -148 -281 -3 -14 -10 -30 -15 -36 -5 -6 -10 -24 -11 -40 -1
-16 -10 -38 -19 -49 -23 -26 -49 -98 -54 -152 -4 -39 -33 -125 -71 -211 -7
-18 -14 -43 -14 -55 0 -12 -9 -37 -20 -55 -11 -18 -25 -54 -29 -80 -5 -26 -15
-76 -22 -112 -6 -36 -18 -72 -25 -81 -8 -9 -11 -19 -7 -23 5 -4 1 -6 -7 -4 -8
1 -14 -2 -13 -9 5 -26 -17 -63 -37 -63 -12 0 -20 -7 -20 -16 0 -11 -6 -15 -20
-11 -11 3 -23 1 -26 -4 -3 -5 130 -9 325 -9 315 0 331 1 331 18 0 24 -67 47
-109 39 -17 -4 -32 -3 -35 1 -3 5 -6 41 -7 80 -1 40 -5 75 -9 77 -11 7 -4 54
11 71 8 9 10 37 7 83 -5 68 1 96 18 89 5 -1 14 25 19 59 6 34 13 65 18 69 4 4
7 15 7 25 0 10 9 23 20 29 16 8 19 17 14 38 -4 15 -11 28 -16 30 -19 8 -8 77
17 106 14 16 25 35 25 41 0 7 6 18 14 24 11 9 17 8 29 -4 9 -8 32 -15 51 -15
20 0 36 -4 36 -9 0 -5 16 -12 36 -15 20 -4 37 -14 40 -24 3 -9 11 -27 16 -39
6 -12 8 -31 5 -42 -3 -14 -1 -18 10 -14 9 4 14 0 12 -8 -6 -34 26 -123 41
-114 6 3 10 1 10 -5 0 -7 7 -9 15 -6 11 4 19 -3 25 -20 14 -37 61 -80 93 -86
15 -3 27 -1 27 3 0 5 9 9 19 9 22 0 51 -35 51 -62 0 -10 3 -17 8 -17 26 4 43
-4 55 -29 8 -15 12 -32 10 -39 -3 -7 3 -10 15 -6 11 2 23 -1 27 -7 11 -17 -15
-60 -37 -60 -18 0 -20 -7 -23 -84 -1 -31 -6 -41 -23 -47 -12 -5 -22 -16 -22
-26 0 -10 -4 -14 -8 -8 -8 12 -52 18 -52 7 0 -21 -71 -41 -160 -45 -112 -5
-180 -24 -180 -49 0 -17 100 -18 2015 -18 l2015 0 0 24 c0 13 -7 43 -15 67
-12 33 -16 80 -14 191 1 81 6 145 10 142 5 -3 9 0 9 5 0 6 -4 11 -10 11 -5 0
-10 20 -10 44 0 25 -5 46 -12 48 -6 2 -12 13 -13 24 -1 10 -7 44 -13 74 -6 30
-13 82 -16 115 -3 33 -10 91 -16 130 -6 38 -9 80 -5 92 3 13 4 25 3 27 -7 9
37 46 55 46 10 0 32 -13 47 -30 15 -16 33 -30 39 -30 5 0 24 -20 41 -45 17
-25 35 -45 40 -45 4 0 19 -17 31 -37 13 -21 38 -54 56 -73 116 -125 146 -171
183 -285 7 -22 22 -51 34 -63 19 -22 187 -108 244 -126 43 -14 126 -70 223
-151 53 -44 128 -97 168 -117 l71 -38 635 0 635 0 0 4780 0 4780 -3151 0
c-3061 0 -3150 -1 -3144 -19 10 -31 14 -299 6 -329 -5 -15 -14 -52 -21 -83
-13 -59 -72 -156 -106 -174 -10 -6 -54 -37 -98 -70 -43 -33 -90 -69 -105 -79
-14 -11 -51 -43 -81 -71 -66 -63 -109 -88 -175 -105 -85 -21 -139 -42 -165
-65 -37 -33 -114 -75 -137 -75 -23 0 -39 -16 -44 -44 -3 -13 -21 -25 -54 -37
-28 -9 -51 -24 -53 -33 -2 -9 -11 -16 -21 -16 -10 0 -26 -9 -36 -20 -10 -11
-29 -20 -42 -20 -16 0 -23 6 -23 20 0 24 -25 27 -34 4 -3 -9 -6 -27 -6 -40 0
-15 -6 -24 -15 -24 -8 0 -15 -6 -15 -12 0 -9 -3 -9 -8 -2 -4 6 -15 13 -24 17
-10 3 -18 17 -19 29 -1 22 -1 22 -8 -2 -7 -24 -7 -24 -14 7 -8 39 0 63 19 63
8 0 14 9 14 21 0 15 5 19 15 15 24 -9 35 26 35 108 0 64 3 76 16 76 14 0 16
10 11 73 -3 45 -2 59 3 37 4 -19 8 -27 9 -17 0 10 5 16 10 13 5 -4 11 25 13
64 2 38 0 70 -3 70 -3 0 -3 14 -1 31 5 35 29 69 49 69 7 0 12 10 12 23 -1 17
-2 18 -6 4 -9 -35 -38 -14 -47 34 -10 54 -2 99 19 99 9 0 15 10 16 23 1 21 1
21 9 -3 7 -21 8 -18 11 20 l2 45 7 -45 c6 -40 7 -36 8 33 1 42 -2 77 -7 77
-11 0 -9 39 2 57 4 7 15 9 24 6 11 -4 14 -3 9 6 -5 8 -1 14 12 18 11 3 25 17
31 32 12 28 46 55 60 46 5 -2 14 2 21 10 7 8 19 15 26 15 8 0 33 12 57 27 23
15 45 26 50 25 4 -1 7 2 7 8 0 5 7 10 14 10 8 0 27 11 42 25 l27 25 -1282 0
-1281 0 0 -4720z m2097 3888 c-3 -7 -5 -2 -5 12 0 14 2 19 5 13 2 -7 2 -19 0
-25z m3383 -712 c0 -3 -4 -8 -10 -11 -5 -3 -10 -1 -10 4 0 6 5 11 10 11 6 0
10 -2 10 -4z m316 -26 c19 0 33 4 29 9 -3 5 -1 12 5 16 5 3 10 1 10 -4 0 -14
115 -14 141 -1 13 8 19 7 19 0 0 -6 8 -9 18 -6 9 3 40 2 67 -2 33 -5 58 -3 75
4 28 14 120 7 120 -8 0 -12 -27 -39 -37 -37 -4 1 -25 1 -45 0 -27 -1 -38 -6
-38 -16 0 -19 30 -19 58 1 12 8 22 10 22 5 0 -6 18 -11 39 -11 33 0 43 -5 57
-29 10 -16 27 -32 38 -36 21 -6 21 -6 -1 -17 -26 -13 -29 -30 -9 -47 8 -6 17
-32 20 -56 4 -25 11 -47 17 -50 5 -4 6 -17 3 -30 -5 -20 -3 -23 14 -18 11 2
23 0 26 -6 4 -6 0 -11 -8 -11 -9 0 -16 -7 -16 -15 0 -8 -7 -15 -16 -15 -8 0
-22 -16 -29 -35 -14 -33 -55 -67 -55 -46 0 16 -28 2 -35 -17 -20 -50 -16 -67
23 -89 30 -17 42 -19 51 -10 10 9 15 8 25 -5 18 -25 25 -22 20 7 -4 21 -1 25
22 25 14 0 39 9 55 21 16 11 35 19 42 16 6 -2 20 0 31 5 12 7 22 6 29 -1 14
-14 30 -14 22 -1 -10 16 12 12 55 -10 34 -18 40 -18 54 -5 18 19 46 19 46 1 0
-16 27 -29 41 -20 8 5 59 -42 59 -54 0 -3 -7 -10 -17 -17 -11 -8 -14 -18 -8
-31 4 -10 7 -24 6 -31 -4 -26 19 -22 34 7 8 16 12 30 8 31 -12 1 39 17 60 18
9 1 17 -6 17 -14 0 -18 12 -19 28 -3 9 9 13 8 17 -5 9 -22 -12 -57 -35 -57
-23 0 -34 -31 -31 -87 1 -25 -2 -43 -8 -43 -6 0 -8 7 -5 15 4 8 -1 17 -10 21
-9 3 -17 16 -17 28 -1 15 -3 13 -8 -9 -4 -16 -4 -38 1 -47 7 -14 1 -25 -21
-47 -33 -32 -96 -50 -104 -29 -3 7 -6 4 -6 -8 -1 -11 -10 -29 -21 -39 -11 -10
-20 -26 -20 -36 0 -12 -10 -21 -26 -25 -19 -5 -22 -9 -12 -15 7 -5 8 -9 3 -9
-6 0 -16 -13 -23 -30 -9 -19 -21 -30 -34 -30 -11 0 -22 -8 -25 -20 -3 -11 -9
-20 -14 -20 -5 0 -9 -4 -9 -9 0 -5 -10 -20 -22 -34 -12 -13 -23 -39 -24 -57
-4 -49 -33 -104 -48 -91 -16 14 -61 -44 -58 -76 1 -16 -10 -31 -42 -52 -24
-17 -50 -43 -57 -59 -6 -15 -23 -36 -37 -47 -31 -23 -91 -24 -108 -1 -6 9 -18
16 -27 16 -8 0 -21 14 -29 30 -7 17 -21 30 -30 30 -12 0 -18 8 -18 24 0 18 -4
23 -18 19 -9 -2 -37 0 -61 6 -32 7 -52 6 -70 -2 -29 -14 -91 -11 -91 4 0 6 -4
7 -10 4 -5 -3 -10 -15 -10 -26 0 -10 -4 -19 -10 -19 -5 0 -10 5 -10 10 0 6 -4
10 -8 10 -4 0 -8 -9 -8 -20 0 -13 5 -18 16 -15 15 5 48 -10 40 -19 -9 -8 -85
-10 -98 -2 -8 5 -20 0 -31 -13 -10 -12 -22 -21 -28 -21 -12 0 -14 -38 -2 -45
5 -4 9 3 9 14 0 22 14 28 25 11 3 -5 15 -10 26 -10 10 0 19 5 19 10 0 6 19 10
42 10 47 0 45 -9 -4 -19 -29 -6 -33 -11 -30 -34 4 -35 -14 -42 -61 -22 -20 8
-37 12 -37 8 0 -4 -12 5 -27 19 -16 14 -37 29 -48 33 -13 5 -16 9 -7 12 7 3
19 -1 28 -7 8 -7 18 -10 22 -6 4 4 -1 12 -10 17 -10 5 -15 16 -12 24 4 8 2 15
-4 15 -6 0 -12 -5 -14 -11 -2 -7 -10 -4 -18 7 -13 16 -13 17 0 12 8 -3 21 1
28 8 7 8 10 15 7 15 -35 8 -55 21 -55 35 0 8 -4 14 -10 14 -5 0 -10 5 -10 10
0 6 11 8 28 4 25 -7 26 -6 12 11 -14 17 -13 18 23 12 22 -3 35 -2 32 4 -4 5
-13 9 -21 9 -16 0 -19 26 -4 35 14 9 -8 29 -45 42 -17 6 -29 16 -28 22 2 6 -7
11 -20 11 -13 0 -28 5 -34 11 -9 9 -83 12 -293 9 -35 -1 -70 -6 -76 -11 -7 -6
-61 -10 -121 -10 -111 0 -203 -12 -212 -28 -4 -5 -42 -12 -86 -16 -59 -6 -94
-15 -134 -36 -30 -16 -64 -29 -76 -29 -12 0 -29 -9 -36 -21 -8 -11 -30 -24
-49 -28 -27 -5 -37 -14 -45 -36 -12 -36 -21 -44 -44 -38 -10 2 -23 -3 -30 -11
-8 -9 -21 -16 -30 -17 -9 0 -11 -3 -4 -5 7 -3 0 -16 -19 -33 -40 -36 -46 -86
-17 -138 12 -21 27 -42 35 -46 15 -9 19 -33 7 -40 -5 -2 -2 -2 5 0 8 2 16 -6
19 -16 4 -15 14 -19 41 -19 21 0 63 -2 94 -4 32 -3 59 -1 60 4 5 13 56 12 117
-1 62 -13 192 -14 151 -1 -21 7 -18 8 18 9 24 1 41 -3 38 -8 -3 -5 0 -9 7 -8
37 1 46 -4 42 -23 -2 -11 0 -18 4 -15 5 2 14 -2 21 -10 7 -8 16 -12 21 -9 5 3
9 0 9 -5 0 -6 8 -11 19 -11 10 0 24 -7 31 -15 7 -8 18 -15 25 -15 9 0 12 -15
10 -47 -3 -62 -3 -63 -14 -63 -15 0 -22 32 -10 46 11 14 -4 54 -20 54 -15 0
-21 -48 -10 -74 10 -20 9 -30 -5 -51 -9 -14 -21 -25 -27 -25 -6 0 -8 -4 -4
-10 7 -11 -30 -36 -70 -46 -36 -9 -202 -92 -211 -105 -3 -5 -20 -15 -38 -23
-18 -8 -44 -26 -58 -41 -14 -15 -34 -32 -46 -38 -98 -56 -262 -189 -262 -213
0 -8 -26 -34 -95 -91 -15 -13 -35 -23 -45 -23 -23 0 -36 -18 -31 -43 2 -18 -8
-33 -51 -75 -10 -9 -18 -30 -18 -47 0 -17 -5 -36 -12 -43 -9 -9 -8 -15 8 -27
22 -17 40 -19 48 -6 4 5 24 12 46 16 22 4 64 16 93 27 28 11 68 24 87 29 37
11 125 52 151 72 29 22 51 77 45 113 -6 27 -2 38 22 66 16 18 32 46 36 61 3
15 18 38 32 50 14 12 42 37 62 55 53 51 77 63 126 69 51 5 51 5 59 -95 4 -46
10 -59 53 -109 41 -47 64 -67 92 -79 4 -2 14 -65 13 -89 0 -11 9 -29 20 -41
23 -25 18 -65 -12 -98 -10 -10 -16 -23 -13 -28 3 -4 -2 -8 -11 -8 -10 0 -13 5
-9 12 4 7 3 8 -5 4 -6 -4 -9 -12 -6 -17 4 -5 1 -9 -4 -9 -16 0 -51 -32 -45
-42 3 -4 -1 -5 -9 -2 -8 3 -18 1 -21 -4 -3 -5 4 -12 15 -15 13 -3 18 -10 14
-17 -12 -20 15 -56 51 -70 19 -8 34 -17 34 -22 0 -4 24 -6 53 -4 29 3 44 1 33
-3 -11 -4 -15 -10 -10 -14 12 -7 34 -4 52 7 7 4 20 2 29 -5 13 -11 17 -10 30
6 10 15 26 20 61 20 26 1 57 6 69 13 12 7 33 12 46 12 29 0 56 27 59 61 3 24
20 49 34 49 12 0 52 48 46 55 -4 3 -2 9 4 13 13 9 34 82 34 121 0 17 5 31 10
31 6 0 10 6 10 13 0 6 7 25 15 41 8 15 12 33 8 39 -3 6 -1 7 5 3 14 -8 25 16
42 94 8 37 22 64 41 81 15 15 33 46 39 70 7 24 23 56 36 72 13 16 24 39 24 53
0 20 5 24 31 24 26 0 29 3 20 14 -9 10 -8 15 4 20 8 3 21 3 29 0 8 -3 17 -1
21 5 3 6 -2 11 -12 12 -15 0 -14 2 4 9 13 5 20 15 17 23 -3 9 13 18 54 30 50
14 63 22 81 52 21 35 35 43 46 25 3 -5 15 -10 26 -10 18 0 25 -20 20 -58 -2
-8 5 -12 16 -10 12 2 20 15 23 38 5 34 6 34 18 13 6 -12 12 -28 12 -37 0 -8
34 -39 75 -68 41 -29 77 -61 81 -71 3 -10 21 -34 40 -55 19 -20 34 -47 34 -60
0 -21 62 -97 71 -88 2 3 25 -13 49 -34 25 -22 50 -40 57 -40 7 0 17 -9 23 -21
9 -16 14 -18 25 -9 15 13 39 4 30 -11 -4 -5 -1 -9 4 -9 6 0 11 -9 11 -20 0
-15 7 -20 28 -20 29 0 52 -16 52 -36 0 -7 -8 -10 -21 -7 -21 6 -21 5 -4 -21
10 -15 19 -37 21 -49 11 -75 20 -105 41 -133 16 -21 28 -60 38 -115 12 -66 20
-88 39 -104 25 -21 56 -84 56 -115 0 -10 7 -23 15 -30 8 -7 19 -27 23 -44 5
-19 19 -36 38 -46 16 -8 31 -18 32 -23 10 -21 37 -37 63 -37 16 0 29 4 29 8 0
11 96 34 140 34 68 -1 140 -14 154 -28 15 -15 37 -19 34 -6 -5 15 23 52 40 52
13 0 14 2 3 9 -25 16 -1 31 48 31 34 0 56 -6 75 -21 17 -14 44 -22 81 -24 30
-1 61 -7 68 -13 6 -6 40 -16 74 -22 38 -8 60 -17 56 -23 -3 -6 -1 -7 5 -3 6 3
22 -4 35 -16 42 -38 52 -45 65 -40 6 2 12 -3 12 -12 0 -9 -7 -16 -15 -16 -8 0
-15 -5 -15 -11 0 -6 7 -8 15 -5 11 4 17 -3 21 -24 4 -20 13 -30 28 -32 17 -2
21 -10 22 -43 1 -62 -6 -85 -27 -85 -13 0 -21 -12 -29 -40 -6 -22 -15 -40 -19
-40 -5 0 -12 -25 -16 -55 -5 -44 -10 -55 -25 -55 -15 0 -19 -11 -25 -60 -7
-61 -27 -81 -40 -40 -3 11 -15 20 -26 20 -10 0 -19 5 -19 10 0 6 -4 10 -10 10
-6 0 -10 -30 -10 -70 0 -40 -4 -70 -10 -70 -5 0 -10 7 -10 15 0 16 -12 20 -23
8 -4 -3 -1 -13 6 -21 9 -12 9 -16 0 -19 -8 -3 -13 -22 -13 -48 0 -24 -5 -47
-10 -50 -6 -4 -9 -3 -8 2 1 4 -1 18 -6 31 -7 21 -39 31 -50 14 -2 -4 -33 -7
-68 -7 -55 1 -64 4 -74 23 -17 35 -23 37 -39 16 -13 -18 -14 -16 -15 24 0 23
1 45 3 48 1 3 -5 9 -14 14 -17 10 -15 55 2 66 14 8 11 24 -5 24 -8 0 -19 14
-25 30 -5 17 -14 30 -19 30 -6 0 -13 20 -16 44 -4 24 -14 50 -22 57 -11 9 -12
15 -3 26 7 7 12 28 12 46 -1 18 1 26 4 20 3 -7 9 -13 14 -13 15 0 10 22 -8 35
-12 9 -17 25 -15 51 1 22 -1 45 -6 52 -5 7 -40 21 -78 33 -55 16 -84 19 -146
13 -43 -3 -78 -10 -78 -15 0 -5 -9 -9 -19 -9 -13 0 -21 -8 -23 -22 -2 -12 -13
-27 -25 -33 -12 -6 -34 -23 -49 -38 -15 -15 -37 -27 -48 -27 -12 0 -32 -9 -44
-20 -12 -11 -26 -20 -31 -20 -6 0 -8 -6 -6 -12 5 -14 -44 -48 -85 -59 -14 -4
-47 -16 -75 -27 -60 -24 -135 -42 -174 -42 -19 0 -36 -8 -48 -23 -23 -30 -64
-52 -137 -73 -32 -10 -77 -30 -100 -46 -22 -15 -49 -28 -58 -28 -10 0 -22 -8
-27 -19 -14 -24 -54 -39 -124 -44 -47 -3 -60 -1 -67 13 -5 10 -7 20 -4 22 7 8
-17 60 -39 85 -15 17 -18 31 -14 58 7 41 -22 101 -66 135 -25 20 -28 20 -49 6
-12 -9 -35 -16 -51 -16 -35 0 -90 -27 -82 -40 4 -6 0 -13 -9 -16 -8 -3 -12
-12 -9 -21 5 -12 0 -14 -25 -8 -25 5 -32 3 -32 -9 0 -10 -9 -16 -21 -16 -20 0
-21 -4 -17 -77 4 -92 29 -153 62 -153 17 0 18 -2 6 -10 -12 -8 -12 -10 5 -11
19 0 19 -1 1 -8 -16 -6 -17 -9 -5 -13 9 -3 26 -4 40 -1 33 6 79 -13 79 -33 0
-22 63 -81 109 -100 35 -15 132 -38 208 -50 21 -3 82 -5 135 -5 81 0 110 5
184 31 48 16 95 30 105 30 10 0 25 7 33 16 12 11 39 16 99 17 76 2 87 -1 123
-25 36 -25 46 -27 127 -25 48 1 87 -1 87 -5 0 -5 -7 -8 -15 -8 -20 0 -19 -19
2 -27 14 -5 13 -7 -5 -14 -14 -5 -20 -14 -16 -24 4 -10 0 -15 -12 -15 -11 0
-30 -9 -44 -20 -14 -11 -34 -20 -46 -20 -12 0 -31 -9 -44 -20 -13 -11 -26 -20
-29 -20 -3 0 -20 -12 -37 -28 -33 -30 -89 -62 -107 -62 -7 0 -18 -9 -25 -20
-7 -11 -18 -20 -25 -20 -6 0 -25 -18 -40 -40 -16 -22 -33 -40 -38 -40 -5 0 -9
-6 -9 -14 0 -8 -10 -23 -23 -33 -13 -10 -26 -26 -30 -35 -3 -9 -21 -25 -39
-34 -18 -9 -44 -28 -58 -42 -14 -13 -59 -51 -101 -83 -81 -63 -129 -133 -129
-190 0 -21 -4 -27 -15 -23 -9 4 -15 1 -15 -7 0 -8 -13 -20 -30 -27 -35 -16
-46 -43 -28 -71 11 -18 10 -23 -7 -36 -11 -9 -31 -21 -45 -28 -14 -7 -25 -18
-25 -25 0 -7 -18 -23 -40 -35 -22 -12 -41 -25 -43 -29 -2 -5 -14 -8 -27 -8
-34 0 -75 -25 -90 -54 -8 -14 -10 -26 -4 -26 5 0 9 -9 9 -19 0 -23 -46 -72
-82 -88 -16 -7 -28 -17 -28 -23 0 -7 -8 -9 -20 -5 -12 4 -20 2 -20 -5 0 -16
-49 -33 -92 -32 -34 1 -66 -16 -36 -19 7 -1 -7 -5 -32 -9 -25 -5 -63 -14 -85
-21 -23 -8 -77 -12 -127 -11 -49 1 -88 -2 -88 -6 0 -4 18 -6 40 -4 25 3 40 0
40 -7 0 -10 -29 -16 -53 -12 -4 1 -44 -8 -88 -19 -45 -12 -107 -21 -138 -21
-31 0 -105 -1 -165 -2 -80 -1 -110 1 -113 11 -3 6 -11 12 -19 12 -8 0 -14 5
-14 10 0 6 5 10 10 10 16 0 -12 39 -33 46 -9 3 -24 -2 -33 -10 -8 -9 -30 -16
-47 -17 -27 0 -29 -2 -12 -9 16 -7 13 -9 -17 -9 -38 -1 -55 -21 -18 -21 11 0
20 -5 20 -11 0 -7 -6 -8 -18 -3 -23 11 -87 9 -147 -6 -62 -15 -179 -24 -211
-16 -15 4 -24 14 -24 26 0 14 -7 20 -22 21 -13 0 -43 2 -68 5 -58 5 -78 -6
-63 -38 5 -13 7 -32 3 -43 -6 -17 -18 -21 -91 -25 -71 -4 -84 -8 -83 -22 1
-10 -8 -19 -23 -23 -13 -3 -21 -9 -19 -14 6 -9 -41 -21 -84 -21 -33 0 -54 22
-45 49 4 13 -1 24 -13 33 -10 7 -21 21 -25 31 -7 19 -27 23 -27 6 0 -9 -30
-10 -109 -6 -104 5 -110 5 -108 -14 1 -10 9 -22 19 -25 10 -3 18 -10 18 -15 0
-5 6 -9 13 -9 6 -1 25 -17 40 -38 l29 -37 -25 -3 c-22 -3 -24 -7 -21 -40 2
-20 -2 -56 -8 -79 -12 -43 -12 -43 -60 -43 -36 0 -48 -4 -48 -15 0 -18 -38
-93 -52 -101 -14 -9 -35 23 -59 88 -12 32 -24 56 -28 54 -3 -2 -5 24 -3 57 2
44 0 57 -7 46 -7 -11 -20 -14 -41 -11 -33 5 -57 36 -42 55 20 27 -1 206 -28
227 -18 14 -61 140 -55 159 4 14 1 23 -9 27 -9 3 -16 12 -16 20 0 8 -4 14 -10
14 -5 0 -10 -4 -10 -10 0 -5 -18 -15 -40 -21 -22 -7 -47 -20 -56 -31 -10 -10
-22 -18 -28 -18 -7 0 -17 -13 -23 -30 -12 -31 -46 -50 -89 -50 -13 0 -24 -4
-24 -9 0 -5 -45 -14 -99 -21 -113 -14 -148 -7 -196 37 -16 15 -43 34 -59 43
-17 8 -46 35 -64 60 -19 25 -44 49 -56 53 -24 10 -146 145 -249 276 -38 47
-78 98 -90 113 -12 15 -33 43 -47 63 -14 20 -37 52 -52 70 -16 18 -28 36 -28
40 0 4 -16 29 -35 55 -19 26 -47 72 -60 101 -14 30 -32 65 -40 79 -8 14 -30
60 -51 104 -29 63 -35 87 -32 120 7 58 30 102 51 98 9 -2 17 3 17 9 0 7 6 5
13 -5 12 -17 14 -16 25 8 12 27 47 46 83 46 24 0 49 22 49 44 0 9 9 25 20 36
11 11 20 18 20 15 0 -3 11 2 26 11 16 11 24 24 22 39 -1 12 5 33 15 48 9 14
17 31 17 37 0 5 11 10 24 10 14 0 28 4 31 10 9 15 41 12 56 -6 7 -8 13 -30 13
-47 1 -27 9 -37 50 -64 26 -18 58 -33 70 -33 11 0 30 -7 41 -16 16 -12 18 -18
7 -34 -6 -11 -12 -28 -12 -37 0 -10 -15 -30 -33 -44 -64 -52 -126 -241 -91
-277 15 -14 16 -17 35 -132 14 -86 39 -129 59 -105 7 8 21 15 31 15 30 0 103
66 129 117 19 36 39 52 66 53 11 0 29 9 40 21 17 19 19 38 19 183 -1 182 -6
216 -35 216 -11 0 -27 11 -36 25 -9 14 -26 25 -37 25 -44 0 -167 106 -188 162
-8 19 -29 36 -72 57 -60 28 -82 44 -156 110 -43 39 -84 51 -191 57 -68 5 -97
2 -145 -14 -86 -28 -107 -3 -65 75 11 21 20 42 20 48 0 6 14 27 30 47 24 29
42 39 86 49 76 17 186 1 279 -42 76 -35 184 -65 267 -74 85 -10 106 -23 134
-76 13 -27 31 -49 39 -49 9 0 18 -13 22 -30 3 -16 9 -30 13 -30 3 0 25 -17 48
-38 33 -31 42 -46 42 -72 0 -21 8 -40 23 -54 12 -11 33 -38 46 -58 12 -21 26
-38 30 -38 5 0 15 -18 24 -41 13 -32 20 -39 35 -35 11 4 26 -2 39 -13 23 -22
46 -14 43 15 -4 35 0 42 20 37 11 -3 20 0 20 6 0 6 6 11 14 11 22 0 30 19 32
70 1 25 5 84 9 131 6 68 5 92 -8 120 -38 85 -55 274 -46 519 0 8 -2 39 -5 68
-4 30 -3 51 1 49 5 -3 4 47 -1 111 -4 65 -9 156 -10 204 0 49 -5 88 -9 88 -4
0 -3 9 2 19 6 10 13 43 16 73 9 85 15 104 26 87 6 -10 9 -2 8 26 0 31 -2 36
-9 20 -7 -16 -9 -17 -9 -3 -1 9 4 20 10 23 6 4 10 30 8 59 -1 28 1 58 4 66 3
8 10 36 17 61 8 31 17 46 27 45 10 -1 17 10 19 33 2 19 11 42 18 50 8 9 15 32
17 51 2 19 8 42 14 50 17 22 37 76 34 91 -1 8 3 33 9 55 7 23 9 49 6 58 -3 9
-1 16 5 16 6 0 11 10 11 23 1 128 -1 181 -6 188 -10 17 -13 49 -4 49 9 0 6 58
-4 67 -3 3 -12 0 -21 -7 -13 -11 -15 -10 -10 1 8 22 -20 144 -33 142 -12 -3
-13 3 -16 97 -2 36 -6 73 -11 83 -11 26 0 170 14 175 6 2 11 8 11 13 0 12 48
66 120 137 146 142 190 189 190 205 0 7 22 33 50 56 27 23 49 45 49 49 -3 19
2 25 11 12 7 -12 14 -9 39 15 17 17 31 40 31 51 0 12 14 36 32 53 17 17 29 31
25 31 -3 0 0 12 8 27 8 15 12 30 9 35 -3 5 0 16 7 24 10 12 14 12 20 2 7 -10
9 -9 9 4 0 10 10 20 25 24 14 3 25 10 25 15 0 5 9 4 21 -3 17 -11 22 -10 30 5
7 12 17 16 30 12 10 -4 19 -2 19 4 0 7 8 7 25 1 28 -11 48 -5 87 23 15 11 35
17 47 14 12 -3 29 3 42 14 12 10 30 20 41 20 34 3 38 4 39 14 2 12 39 39 59
42 8 1 20 9 26 17 6 9 15 12 19 8 5 -4 5 1 2 11 -5 12 -1 19 11 23 9 3 31 11
47 19 17 7 44 16 60 20 17 4 37 13 45 20 8 8 27 16 42 19 14 2 35 9 45 14 31
16 90 21 293 27 256 7 353 14 371 26 10 8 7 9 -11 4 -19 -5 -22 -4 -10 4 8 6
33 11 55 11 29 0 36 -3 25 -10 -11 -7 -7 -10 18 -10 20 0 31 4 27 10 -3 6 5
10 19 10 13 0 27 -6 29 -12 4 -10 8 -10 14 -1 5 7 67 14 176 19 153 6 169 5
187 -11 11 -10 20 -25 20 -33 0 -10 3 -12 13 -4 6 6 26 12 42 14 17 2 29 8 28
16 -2 8 10 12 37 12 45 0 50 -6 18 -20 -19 -8 -16 -9 12 -4 54 9 71 15 65 24
-6 10 118 23 145 15 14 -4 22 -1 27 12 7 17 8 17 11 1 2 -13 13 -18 38 -18z
m1 14 c-3 -3 -12 -4 -19 -1 -8 3 -5 6 6 6 11 1 17 -2 13 -5z m593 -174 c-19
-13 -30 -13 -30 0 0 6 10 10 23 10 18 0 19 -2 7 -10z m-5979 -216 c46 3 179 5
294 4 116 -1 253 0 305 2 184 6 245 5 248 -5 2 -5 -7 -13 -20 -17 -15 -4 -17
-6 -6 -7 39 -2 84 -34 102 -72 11 -21 24 -39 29 -39 6 0 3 -8 -5 -17 -8 -10
-16 -27 -17 -38 -4 -52 -8 -72 -19 -98 -7 -16 -12 -32 -12 -36 0 -4 -9 -16
-20 -26 -11 -10 -22 -34 -25 -54 -11 -66 -15 -80 -28 -93 -7 -7 -18 -32 -25
-55 -7 -24 -17 -43 -22 -43 -6 0 -10 -6 -10 -12 0 -7 -7 -26 -16 -43 -9 -16
-18 -43 -21 -60 -2 -16 -13 -48 -23 -70 -10 -22 -22 -53 -26 -70 -4 -16 -12
-41 -19 -55 -7 -14 -15 -79 -19 -146 -3 -76 -11 -134 -22 -159 -14 -33 -15
-71 -12 -250 4 -153 9 -217 19 -235 16 -29 14 -22 23 -85 4 -27 23 -101 43
-163 35 -111 35 -114 17 -132 -12 -12 -42 -20 -84 -24 -36 -4 -84 -14 -108
-22 -23 -7 -51 -14 -62 -14 -10 0 -21 -4 -25 -9 -3 -6 -38 -20 -78 -32 -51
-15 -81 -31 -104 -55 -18 -18 -44 -34 -60 -36 -16 -2 -27 -8 -25 -15 1 -7 -2
-13 -8 -13 -5 0 -7 -7 -4 -15 4 -8 2 -15 -3 -15 -20 0 -44 -27 -49 -55 -3 -16
-10 -33 -17 -37 -8 -5 -8 -13 1 -33 16 -34 16 -34 -13 -45 -15 -6 -23 -15 -19
-23 5 -15 -14 -27 -51 -34 -37 -6 -42 -11 -48 -43 -6 -26 -11 -31 -29 -28 -20
3 -22 8 -20 37 2 22 0 31 -7 26 -7 -4 -11 3 -11 19 0 14 -4 28 -10 31 -5 3
-10 17 -10 30 0 13 -5 25 -11 27 -7 2 -13 22 -14 43 -3 55 -4 57 -15 50 -6 -4
-10 8 -10 29 0 20 -4 36 -10 36 -5 0 -10 -6 -10 -12 0 -9 -4 -8 -10 2 -5 8
-10 32 -10 53 0 20 -4 37 -10 37 -5 0 -10 -7 -10 -16 0 -8 -4 -12 -10 -9 -5 3
-10 21 -10 38 -1 61 -37 200 -56 214 -10 7 -13 13 -7 13 8 0 7 9 -3 28 -7 15
-14 38 -14 52 0 20 -2 22 -10 10 -7 -11 -10 -4 -10 28 0 27 4 42 13 42 9 0 9
2 0 8 -7 4 -14 46 -17 103 -6 96 -19 659 -17 714 1 17 6 109 11 205 6 96 11
228 12 292 2 86 6 118 16 118 6 0 12 9 12 20 0 12 -5 17 -14 14 -20 -8 -28 11
-20 51 5 29 10 35 25 30 17 -6 19 -1 19 38 0 71 16 103 64 126 23 12 47 21 54
21 6 0 17 12 24 27 7 14 20 29 28 33 8 4 24 11 35 17 13 7 22 7 26 1 4 -6 41
-7 90 -4z m6309 -67 c0 -9 -12 -11 -40 -9 -25 3 -40 0 -40 -7 0 -6 12 -11 28
-12 24 0 25 -1 7 -9 -30 -13 -35 -12 -44 13 -8 20 -5 23 28 28 58 10 61 10 61
-4z m290 -158 c0 -5 -6 -9 -13 -9 -8 0 -14 6 -14 14 0 8 6 12 14 9 7 -3 13 -9
13 -14z m-6940 -5 c0 -8 -4 -12 -10 -9 -5 3 -10 10 -10 16 0 5 5 9 10 9 6 0
10 -7 10 -16z m6967 -26 c-3 -8 -6 -5 -6 6 -1 11 2 17 5 13 3 -3 4 -12 1 -19z
m33 -23 c0 -9 -9 -15 -21 -15 -18 0 -19 2 -9 15 7 8 16 15 21 15 5 0 9 -7 9
-15z m-7030 -266 c0 -75 -16 -95 -21 -26 -5 59 1 108 12 102 5 -4 9 -37 9 -76z
m6540 -258 c0 -6 -4 -13 -10 -16 -5 -3 -10 1 -10 9 0 9 5 16 10 16 6 0 10 -4
10 -9z m-515 -301 c3 -5 -1 -10 -9 -10 -8 0 -18 5 -21 10 -3 6 1 10 9 10 8 0
18 -4 21 -10z m1037 -617 c7 -8 11 -31 9 -50 -2 -23 4 -42 16 -56 48 -54 51
-67 29 -109 -12 -21 -25 -38 -30 -38 -5 0 -19 -12 -32 -27 -20 -23 -27 -26
-42 -16 -12 7 -24 8 -33 2 -23 -14 -57 -10 -98 11 -46 23 -56 58 -41 140 15
77 38 111 97 141 55 28 103 29 125 2z m-6691 -857 c5 3 9 0 9 -6 0 -7 -7 -10
-15 -6 -8 3 -15 0 -15 -6 0 -6 -2 -9 -5 -6 -3 3 -2 13 2 24 4 11 8 13 11 6 2
-7 8 -10 13 -6z m-54 -82 c-3 -3 -12 -4 -19 -1 -8 3 -5 6 6 6 11 1 17 -2 13
-5z m7652 -506 c1 -4 -5 -5 -13 -2 -8 3 -12 13 -8 27 5 20 6 20 13 1 4 -10 8
-22 8 -26z m16 -218 c0 -7 -6 -15 -12 -17 -8 -3 -13 4 -13 17 0 13 5 20 13 18
6 -3 12 -11 12 -18z m-6625 -630 c0 -20 -2 -22 -10 -10 -5 8 -10 26 -10 40 0
20 2 22 10 10 5 -8 10 -26 10 -40z m3080 -1380 c0 -5 -13 -10 -30 -10 -16 0
-30 5 -30 10 0 6 14 10 30 10 17 0 30 -4 30 -10z m-480 -29 c0 -5 -9 -7 -20
-4 -11 3 -20 7 -20 9 0 2 9 4 20 4 11 0 20 -4 20 -9z m2104 -297 c9 -3 13 -10
10 -15 -3 -5 2 -6 11 -3 11 5 17 -2 21 -25 7 -33 22 -49 33 -35 3 5 21 9 39 9
29 0 32 -3 30 -24 -3 -27 -28 -42 -28 -17 0 8 -5 18 -11 22 -8 4 -9 -3 -4 -24
8 -38 -9 -50 -29 -20 -13 19 -16 19 -22 5 -9 -25 3 -47 26 -47 16 0 20 -7 20
-30 0 -16 -5 -30 -11 -30 -6 0 -9 -6 -6 -14 4 -9 0 -12 -12 -9 -23 6 -46 -48
-28 -66 8 -8 6 -11 -7 -11 -10 0 -26 -10 -36 -22 -16 -21 -27 -23 -103 -23
-47 0 -89 -3 -93 -7 -11 -11 -39 -10 -68 4 -19 8 -23 14 -15 24 7 9 2 16 -22
28 -17 9 -35 13 -40 11 -13 -9 -22 16 -10 28 6 6 11 18 11 27 0 30 25 70 43
70 23 0 56 17 83 43 22 21 84 60 122 77 12 5 22 16 22 25 0 8 7 15 15 15 8 0
20 9 27 20 7 11 14 20 15 20 1 0 8 -3 17 -6z m-3061 -84 c12 -47 -47 -68 -64
-22 -7 19 -4 24 14 32 34 14 44 12 50 -10z m2754 -286 c-3 -3 -12 -4 -19 -1
-8 3 -5 6 6 6 11 1 17 -2 13 -5z"/>
<path d="M5600 7950 c0 -5 7 -7 15 -4 8 4 15 8 15 10 0 2 -7 4 -15 4 -8 0 -15
-4 -15 -10z"/>
<path d="M6320 7850 c0 -5 5 -10 10 -10 6 0 10 5 10 10 0 6 -4 10 -10 10 -5 0
-10 -4 -10 -10z"/>
<path d="M6347 7663 c-12 -11 -8 -23 8 -23 8 0 15 7 15 15 0 16 -12 20 -23 8z"/>
<path d="M6900 7339 c0 -5 5 -7 10 -4 6 3 10 8 10 11 0 2 -4 4 -10 4 -5 0 -10
-5 -10 -11z"/>
<path d="M5855 6570 c-4 -6 7 -10 24 -10 17 0 31 5 31 10 0 6 -11 10 -24 10
-14 0 -28 -4 -31 -10z"/>
<path d="M2641 5304 c0 -11 3 -14 6 -6 3 7 2 16 -1 19 -3 4 -6 -2 -5 -13z"/>
<path d="M7360 4570 c0 -5 9 -10 21 -10 11 0 17 5 14 10 -3 6 -13 10 -21 10
-8 0 -14 -4 -14 -10z"/>
<path d="M7020 4560 c0 -5 5 -10 10 -10 6 0 10 5 10 10 0 6 -4 10 -10 10 -5 0
-10 -4 -10 -10z"/>
<path d="M7325 4540 c3 -5 13 -10 21 -10 8 0 14 5 14 10 0 6 -9 10 -21 10 -11
0 -17 -4 -14 -10z"/>
<path d="M7721 3974 c0 -11 3 -14 6 -6 3 7 2 16 -1 19 -3 4 -6 -2 -5 -13z"/>
<path d="M2448 3100 c-7 -11 -18 -20 -25 -20 -20 0 -15 -14 16 -44 29 -28 77
-34 75 -8 -1 6 -2 30 -2 52 -2 36 -5 40 -27 40 -14 0 -30 -9 -37 -20z"/>
<path d="M2556 3095 c-3 -8 -1 -15 4 -15 6 0 10 7 10 15 0 8 -2 15 -4 15 -2 0
-6 -7 -10 -15z"/>
<path d="M5905 2750 c3 -5 8 -10 11 -10 2 0 4 5 4 10 0 6 -5 10 -11 10 -5 0
-7 -4 -4 -10z"/>
<path d="M4053 2363 c15 -2 37 -2 50 0 12 2 0 4 -28 4 -27 0 -38 -2 -22 -4z"/>
<path d="M4540 2290 c0 -6 11 -8 28 -4 39 10 40 14 4 14 -18 0 -32 -5 -32 -10z"/>
<path d="M4848 2283 c6 -2 18 -2 25 0 6 3 1 5 -13 5 -14 0 -19 -2 -12 -5z"/>
<path d="M4923 2283 c20 -2 54 -2 75 0 20 2 3 4 -38 4 -41 0 -58 -2 -37 -4z"/>
<path d="M4588 2273 c12 -2 30 -2 40 0 9 3 -1 5 -23 4 -22 0 -30 -2 -17 -4z"/>
<path d="M4195 2250 c-3 -5 1 -10 9 -10 8 0 18 5 21 10 3 6 -1 10 -9 10 -8 0
-18 -4 -21 -10z"/>
<path d="M3625 2210 l-40 -7 42 -2 c23 0 45 4 48 9 3 6 3 9 -2 9 -4 -1 -26 -5
-48 -9z"/>
<path d="M3740 2175 c0 -8 5 -15 10 -15 6 0 10 7 10 15 0 8 -4 15 -10 15 -5 0
-10 -7 -10 -15z"/>
<path d="M2203 9165 c0 -44 2 -61 4 -37 2 23 2 59 0 80 -2 20 -4 1 -4 -43z"/>
<path d="M2202 9055 c0 -16 2 -22 5 -12 2 9 2 23 0 30 -3 6 -5 -1 -5 -18z"/>
<path d="M2060 8480 c0 -30 4 -40 16 -40 11 0 14 5 10 16 -3 9 -6 27 -6 40 0
13 -4 24 -10 24 -5 0 -10 -18 -10 -40z"/>
<path d="M3550 361 c0 -12 6 -21 15 -21 8 0 15 3 15 6 0 3 -7 12 -15 20 -13
14 -15 13 -15 -5z"/>
<path d="M2898 83 c6 -2 18 -2 25 0 6 3 1 5 -13 5 -14 0 -19 -2 -12 -5z"/>
<path d="M2300 10 c0 -5 5 -10 10 -10 6 0 10 5 10 10 0 6 -4 10 -10 10 -5 0
-10 -4 -10 -10z"/>
</g>
</svg>
